<?xml version="1.0" encoding="UTF-8" standalone="no"?>
<!DOCTYPE svg PUBLIC "-//W3C//DTD SVG 1.1//EN"
 "http://www.w3.org/Graphics/SVG/1.1/DTD/svg11.dtd">
<!-- Generated by graphviz version 2.43.0 (0)
 -->
<!-- Title: 3. New functors surrounding the magnetic field geometry Pages: 1 -->
<svg width="323pt" height="194pt"
 viewBox="0.00 0.00 323.00 194.00" xmlns="http://www.w3.org/2000/svg" xmlns:xlink="http://www.w3.org/1999/xlink">
<g id="graph0" class="graph" transform="scale(1 1) rotate(0) translate(4 190)">
<title>3. New functors surrounding the magnetic field geometry</title>
<!-- Node5 -->
<g id="node1" class="node">
<title>Node5</title>
<g id="a_node1"><a xlink:href="group__fluxfunctions.html" target="_top" xlink:title=" ">
<polygon fill="none" stroke="black" points="293,-186 198,-186 198,-156 293,-156 293,-186"/>
<text text-anchor="start" x="206" y="-174" font-family="Helvetica,sans-Serif" font-size="10.00">3.4. Utility functor</text>
<text text-anchor="middle" x="245.5" y="-163" font-family="Helvetica,sans-Serif" font-size="10.00"> functionality</text>
</a>
</g>
</g>
<!-- Node2 -->
<g id="node2" class="node">
<title>Node2</title>
<g id="a_node2"><a xlink:href="group__geom.html" target="_top" xlink:title="dg::geo::createMagneticField">
<polygon fill="none" stroke="black" points="294,-138 197,-138 197,-108 294,-108 294,-138"/>
<text text-anchor="start" x="205" y="-126" font-family="Helvetica,sans-Serif" font-size="10.00">3.1 Creating a flux</text>
<text text-anchor="middle" x="245.5" y="-115" font-family="Helvetica,sans-Serif" font-size="10.00"> function</text>
</a>
</g>
</g>
<!-- Node1 -->
<g id="node3" class="node">
<title>Node1</title>
<g id="a_node3"><a xlink:title=" ">
<polygon fill="#bfbfbf" stroke="black" points="140,-111 0,-111 0,-81 140,-81 140,-111"/>
<text text-anchor="start" x="8" y="-99" font-family="Helvetica,sans-Serif" font-size="10.00">3. New functors surrounding</text>
<text text-anchor="middle" x="70" y="-88" font-family="Helvetica,sans-Serif" font-size="10.00"> the magnetic field geometry</text>
</a>
</g>
</g>
<!-- Node1&#45;&gt;Node5 -->
<g id="edge4" class="edge">
<title>Node1&#45;&gt;Node5</title>
<path fill="none" stroke="black" d="M108.99,-115.76C128.72,-125.69 153.39,-137.58 176,-147 183.45,-150.1 191.45,-153.15 199.27,-155.98"/>
<polygon fill="black" stroke="black" points="110.51,-112.61 100.01,-111.21 107.34,-118.85 110.51,-112.61"/>
</g>
<!-- Node1&#45;&gt;Node2 -->
<g id="edge1" class="edge">
<title>Node1&#45;&gt;Node2</title>
<path fill="none" stroke="black" d="M150.4,-108.36C166.23,-110.82 182.38,-113.33 196.74,-115.57"/>
<polygon fill="black" stroke="black" points="150.49,-104.83 140.07,-106.75 149.41,-111.74 150.49,-104.83"/>
</g>
<!-- Node3 -->
<g id="node4" class="node">
<title>Node3</title>
<g id="a_node4"><a xlink:href="group__magnetic.html" target="_top" xlink:title=" ">
<polygon fill="none" stroke="black" points="312.5,-89.5 178.5,-89.5 178.5,-48.5 312.5,-48.5 312.5,-89.5"/>
<text text-anchor="start" x="186.5" y="-77.5" font-family="Helvetica,sans-Serif" font-size="10.00">3.2 Magnetic field,</text>
<text text-anchor="start" x="186.5" y="-66.5" font-family="Helvetica,sans-Serif" font-size="10.00"> curvatures and associated</text>
<text text-anchor="middle" x="245.5" y="-55.5" font-family="Helvetica,sans-Serif" font-size="10.00"> functors</text>
</a>
</g>
</g>
<!-- Node1&#45;&gt;Node3 -->
<g id="edge2" class="edge">
<title>Node1&#45;&gt;Node3</title>
<path fill="none" stroke="black" d="M150.25,-83.67C159.7,-82.2 169.26,-80.71 178.49,-79.27"/>
<polygon fill="black" stroke="black" points="149.41,-80.26 140.07,-85.25 150.49,-87.17 149.41,-80.26"/>
</g>
<!-- Node4 -->
<g id="node5" class="node">
<title>Node4</title>
<g id="a_node5"><a xlink:href="group__profiles.html" target="_top" xlink:title=" ">
<polygon fill="none" stroke="black" points="315,-30 176,-30 176,0 315,0 315,-30"/>
<text text-anchor="start" x="184" y="-18" font-family="Helvetica,sans-Serif" font-size="10.00">3.3 Penalization, weight</text>
<text text-anchor="middle" x="245.5" y="-7" font-family="Helvetica,sans-Serif" font-size="10.00"> and monitor metric functors</text>
</a>
</g>
</g>
<!-- Node1&#45;&gt;Node4 -->
<g id="edge3" class="edge">
<title>Node1&#45;&gt;Node4</title>
<path fill="none" stroke="black" d="M105.64,-75.95C125.82,-64.67 151.95,-50.74 176,-40 183.74,-36.54 192.13,-33.18 200.28,-30.1"/>
<polygon fill="black" stroke="black" points="103.81,-72.96 96.81,-80.92 107.24,-79.06 103.81,-72.96"/>
</g>
</g>
</svg>
