<?xml version="1.0" encoding="UTF-8" standalone="no"?>
<!DOCTYPE svg PUBLIC "-//W3C//DTD SVG 1.1//EN"
 "http://www.w3.org/Graphics/SVG/1.1/DTD/svg11.dtd">
<!-- Generated by graphviz version 2.43.0 (0)
 -->
<!-- Title: 3.1 Creating a flux function Pages: 1 -->
<svg width="451pt" height="310pt"
 viewBox="0.00 0.00 451.00 310.00" xmlns="http://www.w3.org/2000/svg" xmlns:xlink="http://www.w3.org/1999/xlink">
<g id="graph0" class="graph" transform="scale(1 1) rotate(0) translate(4 306)">
<title>3.1 Creating a flux function</title>
<!-- Node8 -->
<g id="node1" class="node">
<title>Node8</title>
<g id="a_node1"><a xlink:href="group__circular.html" target="_top" xlink:title=" ">
<polygon fill="none" stroke="black" points="434.5,-302 317.5,-302 317.5,-283 434.5,-283 434.5,-302"/>
<text text-anchor="middle" x="376" y="-290" font-family="Helvetica,sans-Serif" font-size="10.00">The Circular expansion</text>
</a>
</g>
</g>
<!-- Node1 -->
<g id="node2" class="node">
<title>Node1</title>
<g id="a_node2"><a xlink:title="dg::geo::createMagneticField">
<polygon fill="#bfbfbf" stroke="black" points="273,-165.5 176,-165.5 176,-135.5 273,-135.5 273,-165.5"/>
<text text-anchor="start" x="184" y="-153.5" font-family="Helvetica,sans-Serif" font-size="10.00">3.1 Creating a flux</text>
<text text-anchor="middle" x="224.5" y="-142.5" font-family="Helvetica,sans-Serif" font-size="10.00"> function</text>
</a>
</g>
</g>
<!-- Node1&#45;&gt;Node8 -->
<g id="edge7" class="edge">
<title>Node1&#45;&gt;Node8</title>
<path fill="none" stroke="black" d="M235.51,-174.84C248.37,-203.05 273.34,-248.93 309,-274.5 313.73,-277.89 319.07,-280.64 324.6,-282.88"/>
<polygon fill="black" stroke="black" points="238.7,-173.4 231.47,-165.66 232.3,-176.22 238.7,-173.4"/>
</g>
<!-- Node6 -->
<g id="node4" class="node">
<title>Node6</title>
<g id="a_node4"><a xlink:href="group__guenther.html" target="_top" xlink:title=" ">
<polygon fill="none" stroke="black" points="437.5,-265 314.5,-265 314.5,-246 437.5,-246 437.5,-265"/>
<text text-anchor="middle" x="376" y="-253" font-family="Helvetica,sans-Serif" font-size="10.00">The Guenther expansion</text>
</a>
</g>
</g>
<!-- Node1&#45;&gt;Node6 -->
<g id="edge5" class="edge">
<title>Node1&#45;&gt;Node6</title>
<path fill="none" stroke="black" d="M242.34,-173.66C257.66,-193.12 281.95,-220.28 309,-236.5 315.44,-240.36 322.71,-243.48 330.01,-245.97"/>
<polygon fill="black" stroke="black" points="245.02,-171.39 236.15,-165.59 239.46,-175.65 245.02,-171.39"/>
</g>
<!-- Node9 -->
<g id="node5" class="node">
<title>Node9</title>
<g id="a_node5"><a xlink:href="group__mod.html" target="_top" xlink:title=", dg::geo::createModifiedField">
<polygon fill="none" stroke="black" points="425.5,-227.5 326.5,-227.5 326.5,-197.5 425.5,-197.5 425.5,-227.5"/>
<text text-anchor="start" x="334.5" y="-215.5" font-family="Helvetica,sans-Serif" font-size="10.00">Modification of any</text>
<text text-anchor="middle" x="376" y="-204.5" font-family="Helvetica,sans-Serif" font-size="10.00"> expansion</text>
</a>
</g>
</g>
<!-- Node1&#45;&gt;Node9 -->
<g id="edge8" class="edge">
<title>Node1&#45;&gt;Node9</title>
<path fill="none" stroke="black" d="M266.05,-169.72C279.61,-175.94 294.86,-182.72 309,-188.5 316.45,-191.54 324.44,-194.61 332.21,-197.49"/>
<polygon fill="black" stroke="black" points="267.51,-166.54 256.97,-165.52 264.57,-172.9 267.51,-166.54"/>
</g>
<!-- Node4 -->
<g id="node6" class="node">
<title>Node4</title>
<g id="a_node6"><a xlink:href="group__polynomial.html" target="_top" xlink:title=" ">
<polygon fill="none" stroke="black" points="441,-179 311,-179 311,-160 441,-160 441,-179"/>
<text text-anchor="middle" x="376" y="-167" font-family="Helvetica,sans-Serif" font-size="10.00">The polynomial expansion</text>
</a>
</g>
</g>
<!-- Node1&#45;&gt;Node4 -->
<g id="edge3" class="edge">
<title>Node1&#45;&gt;Node4</title>
<path fill="none" stroke="black" d="M283.24,-157.84C292.27,-158.99 301.66,-160.18 310.83,-161.34"/>
<polygon fill="black" stroke="black" points="283.58,-154.35 273.21,-156.56 282.69,-161.3 283.58,-154.35"/>
</g>
<!-- Node3 -->
<g id="node7" class="node">
<title>Node3</title>
<g id="a_node7"><a xlink:href="group__solovev.html" target="_top" xlink:title=" ">
<polygon fill="none" stroke="black" points="434.5,-142 317.5,-142 317.5,-123 434.5,-123 434.5,-142"/>
<text text-anchor="middle" x="376" y="-130" font-family="Helvetica,sans-Serif" font-size="10.00">The solovev expansion</text>
</a>
</g>
</g>
<!-- Node1&#45;&gt;Node3 -->
<g id="edge2" class="edge">
<title>Node1&#45;&gt;Node3</title>
<path fill="none" stroke="black" d="M283.28,-143.54C294.43,-142.2 306.12,-140.79 317.28,-139.45"/>
<polygon fill="black" stroke="black" points="282.72,-140.08 273.21,-144.76 283.56,-147.03 282.72,-140.08"/>
</g>
<!-- Node5 -->
<g id="node8" class="node">
<title>Node5</title>
<g id="a_node8"><a xlink:href="group__taylor.html" target="_top" xlink:title=" ">
<polygon fill="none" stroke="black" points="443,-105 309,-105 309,-86 443,-86 443,-105"/>
<text text-anchor="middle" x="376" y="-93" font-family="Helvetica,sans-Serif" font-size="10.00">The Taylor state expansion</text>
</a>
</g>
</g>
<!-- Node1&#45;&gt;Node5 -->
<g id="edge4" class="edge">
<title>Node1&#45;&gt;Node5</title>
<path fill="none" stroke="black" d="M265.48,-131.32C279.11,-125.17 294.56,-118.64 309,-113.5 317.73,-110.4 327.27,-107.51 336.31,-105"/>
<polygon fill="black" stroke="black" points="264.01,-128.14 256.37,-135.48 266.92,-134.51 264.01,-128.14"/>
</g>
<!-- Node7 -->
<g id="node9" class="node">
<title>Node7</title>
<g id="a_node9"><a xlink:href="group__toroidal.html" target="_top" xlink:title=" ">
<polygon fill="none" stroke="black" points="426.5,-67.5 325.5,-67.5 325.5,-37.5 426.5,-37.5 426.5,-67.5"/>
<text text-anchor="start" x="333.5" y="-55.5" font-family="Helvetica,sans-Serif" font-size="10.00">The Purely Toroidal</text>
<text text-anchor="middle" x="376" y="-44.5" font-family="Helvetica,sans-Serif" font-size="10.00"> expansion</text>
</a>
</g>
</g>
<!-- Node1&#45;&gt;Node7 -->
<g id="edge6" class="edge">
<title>Node1&#45;&gt;Node7</title>
<path fill="none" stroke="black" d="M246.44,-127.85C262.33,-111.74 285.4,-90.55 309,-76.5 314.55,-73.19 320.63,-70.23 326.79,-67.6"/>
<polygon fill="black" stroke="black" points="243.67,-125.67 239.24,-135.29 248.71,-130.53 243.67,-125.67"/>
</g>
<!-- Node10 -->
<g id="node10" class="node">
<title>Node10</title>
<g id="a_node10"><a xlink:href="group__wall.html" target="_top" xlink:title=" ">
<polygon fill="none" stroke="black" points="420,-19 332,-19 332,0 420,0 420,-19"/>
<text text-anchor="middle" x="376" y="-7" font-family="Helvetica,sans-Serif" font-size="10.00">Wall and Sheath</text>
</a>
</g>
</g>
<!-- Node1&#45;&gt;Node10 -->
<g id="edge9" class="edge">
<title>Node1&#45;&gt;Node10</title>
<path fill="none" stroke="black" d="M236.06,-125.83C249.17,-98.1 274.16,-53.66 309,-28.5 315.77,-23.61 323.77,-19.98 331.82,-17.28"/>
<polygon fill="black" stroke="black" points="232.74,-124.68 231.76,-135.23 239.1,-127.59 232.74,-124.68"/>
</g>
<!-- Node2 -->
<g id="node3" class="node">
<title>Node2</title>
<g id="a_node3"><a xlink:href="group__geom__functors.html" target="_top" xlink:title=" ">
<polygon fill="none" stroke="black" points="140,-165.5 0,-165.5 0,-135.5 140,-135.5 140,-165.5"/>
<text text-anchor="start" x="8" y="-153.5" font-family="Helvetica,sans-Serif" font-size="10.00">3. New functors surrounding</text>
<text text-anchor="middle" x="70" y="-142.5" font-family="Helvetica,sans-Serif" font-size="10.00"> the magnetic field geometry</text>
</a>
</g>
</g>
<!-- Node2&#45;&gt;Node1 -->
<g id="edge1" class="edge">
<title>Node2&#45;&gt;Node1</title>
<path fill="none" stroke="black" d="M150.25,-150.5C158.89,-150.5 167.47,-150.5 175.56,-150.5"/>
<polygon fill="black" stroke="black" points="150.11,-147 140.11,-150.5 150.11,-154 150.11,-147"/>
</g>
</g>
</svg>
