<?xml version="1.0" encoding="UTF-8" standalone="no"?>
<!DOCTYPE svg PUBLIC "-//W3C//DTD SVG 1.1//EN"
 "http://www.w3.org/Graphics/SVG/1.1/DTD/svg11.dtd">
<!-- Generated by graphviz version 2.43.0 (0)
 -->
<!-- Title: Graphical Class Hierarchy Pages: 1 -->
<svg width="422pt" height="88pt"
 viewBox="0.00 0.00 422.00 88.00" xmlns="http://www.w3.org/2000/svg" xmlns:xlink="http://www.w3.org/1999/xlink">
<g id="graph0" class="graph" transform="scale(1 1) rotate(0) translate(4 84)">
<title>Graphical Class Hierarchy</title>
<!-- Node0 -->
<g id="node1" class="node">
<title>Node0</title>
<g id="a_node1"><a target="_parent" xlink:href="../../dg/html/structdg_1_1a_real_topology2d" xlink:title=" ">
<polygon fill="none" stroke="black" points="0,-24.5 0,-54.5 108,-54.5 108,-24.5 0,-24.5"/>
<text text-anchor="start" x="8" y="-42.5" font-family="Helvetica,sans-Serif" font-size="10.00">dg::aRealTopology2d</text>
<text text-anchor="middle" x="54" y="-31.5" font-family="Helvetica,sans-Serif" font-size="10.00">&lt; class real_type &gt;</text>
</a>
</g>
</g>
<!-- Node1 -->
<g id="node2" class="node">
<title>Node1</title>
<g id="a_node2"><a target="_parent" xlink:href="../../dg/html/structdg_1_1a_real_geometry2d" xlink:title=" ">
<polygon fill="none" stroke="black" points="144,-49.5 144,-79.5 256,-79.5 256,-49.5 144,-49.5"/>
<text text-anchor="start" x="152" y="-67.5" font-family="Helvetica,sans-Serif" font-size="10.00">dg::aRealGeometry2d</text>
<text text-anchor="middle" x="200" y="-56.5" font-family="Helvetica,sans-Serif" font-size="10.00">&lt; real_type &gt;</text>
</a>
</g>
</g>
<!-- Node0&#45;&gt;Node1 -->
<g id="edge1" class="edge">
<title>Node0&#45;&gt;Node1</title>
<path fill="none" stroke="midnightblue" d="M118.08,-50.45C126.58,-51.93 135.24,-53.43 143.6,-54.88"/>
<polygon fill="midnightblue" stroke="midnightblue" points="118.66,-47 108.21,-48.74 117.47,-53.9 118.66,-47"/>
</g>
<!-- Node3 -->
<g id="node4" class="node">
<title>Node3</title>
<g id="a_node4"><a target="_parent" xlink:href="../../dg/html/structdg_1_1a_real_geometry2d" xlink:title=" ">
<polygon fill="none" stroke="black" points="144,-0.5 144,-30.5 256,-30.5 256,-0.5 144,-0.5"/>
<text text-anchor="start" x="152" y="-18.5" font-family="Helvetica,sans-Serif" font-size="10.00">dg::aRealGeometry2d</text>
<text text-anchor="middle" x="200" y="-7.5" font-family="Helvetica,sans-Serif" font-size="10.00">&lt; double &gt;</text>
</a>
</g>
</g>
<!-- Node0&#45;&gt;Node3 -->
<g id="edge3" class="edge">
<title>Node0&#45;&gt;Node3</title>
<path fill="none" stroke="midnightblue" d="M118.08,-28.99C126.58,-27.57 135.24,-26.13 143.6,-24.73"/>
<polygon fill="midnightblue" stroke="midnightblue" points="117.5,-25.54 108.21,-30.63 118.65,-32.44 117.5,-25.54"/>
</g>
<!-- Node2 -->
<g id="node3" class="node">
<title>Node2</title>
<g id="a_node3"><a xlink:href="structdg_1_1geo_1_1_real_curvilinear_grid2d.html" target="_top" xlink:title="A two&#45;dimensional grid based on curvilinear coordinates.">
<polygon fill="none" stroke="black" points="292,-49.5 292,-79.5 414,-79.5 414,-49.5 292,-49.5"/>
<text text-anchor="start" x="300" y="-67.5" font-family="Helvetica,sans-Serif" font-size="10.00">dg::geo::RealCurvilinear</text>
<text text-anchor="middle" x="353" y="-56.5" font-family="Helvetica,sans-Serif" font-size="10.00">Grid2d&lt; real_type &gt;</text>
</a>
</g>
</g>
<!-- Node1&#45;&gt;Node2 -->
<g id="edge2" class="edge">
<title>Node1&#45;&gt;Node2</title>
<path fill="none" stroke="midnightblue" d="M266.51,-64.5C274.92,-64.5 283.49,-64.5 291.8,-64.5"/>
<polygon fill="midnightblue" stroke="midnightblue" points="266.37,-61 256.37,-64.5 266.37,-68 266.37,-61"/>
</g>
<!-- Node4 -->
<g id="node5" class="node">
<title>Node4</title>
<g id="a_node5"><a xlink:href="structdg_1_1geo_1_1_real_curvilinear_grid2d.html" target="_top" xlink:title=" ">
<polygon fill="none" stroke="black" points="292,-0.5 292,-30.5 414,-30.5 414,-0.5 292,-0.5"/>
<text text-anchor="start" x="300" y="-18.5" font-family="Helvetica,sans-Serif" font-size="10.00">dg::geo::RealCurvilinear</text>
<text text-anchor="middle" x="353" y="-7.5" font-family="Helvetica,sans-Serif" font-size="10.00">Grid2d&lt; double &gt;</text>
</a>
</g>
</g>
<!-- Node3&#45;&gt;Node4 -->
<g id="edge4" class="edge">
<title>Node3&#45;&gt;Node4</title>
<path fill="none" stroke="midnightblue" d="M266.51,-15.5C274.92,-15.5 283.49,-15.5 291.8,-15.5"/>
<polygon fill="midnightblue" stroke="midnightblue" points="266.37,-12 256.37,-15.5 266.37,-19 266.37,-12"/>
</g>
</g>
</svg>
