<?xml version="1.0" encoding="UTF-8" standalone="no"?>
<!DOCTYPE svg PUBLIC "-//W3C//DTD SVG 1.1//EN"
 "http://www.w3.org/Graphics/SVG/1.1/DTD/svg11.dtd">
<!-- Generated by graphviz version 2.43.0 (0)
 -->
<!-- Title: Graphical Class Hierarchy Pages: 1 -->
<svg width="297pt" height="104pt"
 viewBox="0.00 0.00 297.00 104.00" xmlns="http://www.w3.org/2000/svg" xmlns:xlink="http://www.w3.org/1999/xlink">
<g id="graph0" class="graph" transform="scale(1 1) rotate(0) translate(4 100)">
<title>Graphical Class Hierarchy</title>
<!-- Node0 -->
<g id="node1" class="node">
<title>Node0</title>
<g id="a_node1"><a xlink:href="structdg_1_1geo_1_1a_cylindrical_functor.html" target="_top" xlink:title=" ">
<polygon fill="none" stroke="black" points="0,-33 0,-63 139,-63 139,-33 0,-33"/>
<text text-anchor="start" x="8" y="-51" font-family="Helvetica,sans-Serif" font-size="10.00">dg::geo::aCylindricalFunctor</text>
<text text-anchor="middle" x="69.5" y="-40" font-family="Helvetica,sans-Serif" font-size="10.00">&lt; Ipol &gt;</text>
</a>
</g>
</g>
<!-- Node1 -->
<g id="node2" class="node">
<title>Node1</title>
<g id="a_node2"><a xlink:href="structdg_1_1geo_1_1guenther_1_1_ipol.html" target="_top" xlink:title=" ">
<polygon fill="none" stroke="black" points="175,-76.5 175,-95.5 289,-95.5 289,-76.5 175,-76.5"/>
<text text-anchor="middle" x="232" y="-83.5" font-family="Helvetica,sans-Serif" font-size="10.00">dg::geo::guenther::Ipol</text>
</a>
</g>
</g>
<!-- Node0&#45;&gt;Node1 -->
<g id="edge1" class="edge">
<title>Node0&#45;&gt;Node1</title>
<path fill="none" stroke="midnightblue" d="M143.88,-65.37C159.96,-69.18 176.42,-73.08 190.64,-76.44"/>
<polygon fill="midnightblue" stroke="midnightblue" points="144.47,-61.92 133.93,-63.02 142.86,-68.73 144.47,-61.92"/>
</g>
<!-- Node2 -->
<g id="node3" class="node">
<title>Node2</title>
<g id="a_node3"><a xlink:href="structdg_1_1geo_1_1solovev_1_1_ipol.html" target="_top" xlink:title=" ">
<polygon fill="none" stroke="black" points="177,-38.5 177,-57.5 287,-57.5 287,-38.5 177,-38.5"/>
<text text-anchor="middle" x="232" y="-45.5" font-family="Helvetica,sans-Serif" font-size="10.00">dg::geo::solovev::Ipol</text>
</a>
</g>
</g>
<!-- Node0&#45;&gt;Node2 -->
<g id="edge2" class="edge">
<title>Node0&#45;&gt;Node2</title>
<path fill="none" stroke="midnightblue" d="M149.14,-48C158.49,-48 167.86,-48 176.76,-48"/>
<polygon fill="midnightblue" stroke="midnightblue" points="149.03,-44.5 139.03,-48 149.03,-51.5 149.03,-44.5"/>
</g>
<!-- Node3 -->
<g id="node4" class="node">
<title>Node3</title>
<g id="a_node4"><a xlink:href="structdg_1_1geo_1_1taylor_1_1_ipol.html" target="_top" xlink:title=" ">
<polygon fill="none" stroke="black" points="181.5,-0.5 181.5,-19.5 282.5,-19.5 282.5,-0.5 181.5,-0.5"/>
<text text-anchor="middle" x="232" y="-7.5" font-family="Helvetica,sans-Serif" font-size="10.00">dg::geo::taylor::Ipol</text>
</a>
</g>
</g>
<!-- Node0&#45;&gt;Node3 -->
<g id="edge3" class="edge">
<title>Node0&#45;&gt;Node3</title>
<path fill="none" stroke="midnightblue" d="M143.88,-30.63C159.96,-26.82 176.42,-22.92 190.64,-19.56"/>
<polygon fill="midnightblue" stroke="midnightblue" points="142.86,-27.27 133.93,-32.98 144.47,-34.08 142.86,-27.27"/>
</g>
</g>
</svg>
