<?xml version="1.0" encoding="UTF-8" standalone="no"?>
<!DOCTYPE svg PUBLIC "-//W3C//DTD SVG 1.1//EN"
 "http://www.w3.org/Graphics/SVG/1.1/DTD/svg11.dtd">
<!-- Generated by graphviz version 2.43.0 (0)
 -->
<!-- Title: Graphical Class Hierarchy Pages: 1 -->
<svg width="301pt" height="230pt"
 viewBox="0.00 0.00 301.00 230.00" xmlns="http://www.w3.org/2000/svg" xmlns:xlink="http://www.w3.org/1999/xlink">
<g id="graph0" class="graph" transform="scale(1 1) rotate(0) translate(4 226)">
<title>Graphical Class Hierarchy</title>
<!-- Node0 -->
<g id="node1" class="node">
<title>Node0</title>
<g id="a_node1"><a xlink:href="structdg_1_1geo_1_1a_cylindrical_functor.html" target="_top" xlink:title=" ">
<polygon fill="none" stroke="black" points="0,-99 0,-129 139,-129 139,-99 0,-99"/>
<text text-anchor="start" x="8" y="-117" font-family="Helvetica,sans-Serif" font-size="10.00">dg::geo::aCylindricalFunctor</text>
<text text-anchor="middle" x="69.5" y="-106" font-family="Helvetica,sans-Serif" font-size="10.00">&lt; Psip &gt;</text>
</a>
</g>
</g>
<!-- Node1 -->
<g id="node2" class="node">
<title>Node1</title>
<g id="a_node2"><a xlink:href="structdg_1_1geo_1_1circular_1_1_psip.html" target="_top" xlink:title=" ">
<polygon fill="none" stroke="black" points="178,-202.5 178,-221.5 290,-221.5 290,-202.5 178,-202.5"/>
<text text-anchor="middle" x="234" y="-209.5" font-family="Helvetica,sans-Serif" font-size="10.00">dg::geo::circular::Psip</text>
</a>
</g>
</g>
<!-- Node0&#45;&gt;Node1 -->
<g id="edge1" class="edge">
<title>Node0&#45;&gt;Node1</title>
<path fill="none" stroke="midnightblue" d="M94.82,-136.11C115.05,-153.54 145.24,-177.43 175,-193 182.04,-196.68 189.94,-199.84 197.58,-202.46"/>
<polygon fill="midnightblue" stroke="midnightblue" points="96.88,-133.26 87.05,-129.31 92.27,-138.53 96.88,-133.26"/>
</g>
<!-- Node2 -->
<g id="node3" class="node">
<title>Node2</title>
<g id="a_node3"><a xlink:href="structdg_1_1geo_1_1guenther_1_1_psip.html" target="_top" xlink:title=" ">
<polygon fill="none" stroke="black" points="175,-164.5 175,-183.5 293,-183.5 293,-164.5 175,-164.5"/>
<text text-anchor="middle" x="234" y="-171.5" font-family="Helvetica,sans-Serif" font-size="10.00">dg::geo::guenther::Psip</text>
</a>
</g>
</g>
<!-- Node0&#45;&gt;Node2 -->
<g id="edge2" class="edge">
<title>Node0&#45;&gt;Node2</title>
<path fill="none" stroke="midnightblue" d="M117.22,-132.99C135.19,-140.12 155.97,-148.16 175,-155 183.97,-158.23 193.81,-161.53 202.78,-164.46"/>
<polygon fill="midnightblue" stroke="midnightblue" points="118.13,-129.59 107.54,-129.13 115.54,-136.09 118.13,-129.59"/>
</g>
<!-- Node3 -->
<g id="node4" class="node">
<title>Node3</title>
<g id="a_node4"><a xlink:href="structdg_1_1geo_1_1mod_1_1_psip.html" target="_top" xlink:title=" ">
<polygon fill="none" stroke="black" points="184.5,-126.5 184.5,-145.5 283.5,-145.5 283.5,-126.5 184.5,-126.5"/>
<text text-anchor="middle" x="234" y="-133.5" font-family="Helvetica,sans-Serif" font-size="10.00">dg::geo::mod::Psip</text>
</a>
</g>
</g>
<!-- Node0&#45;&gt;Node3 -->
<g id="edge3" class="edge">
<title>Node0&#45;&gt;Node3</title>
<path fill="none" stroke="midnightblue" d="M149.35,-124.68C161.23,-126.28 173.18,-127.9 184.17,-129.39"/>
<polygon fill="midnightblue" stroke="midnightblue" points="149.79,-121.2 139.41,-123.33 148.85,-128.14 149.79,-121.2"/>
</g>
<!-- Node4 -->
<g id="node5" class="node">
<title>Node4</title>
<g id="a_node5"><a xlink:href="structdg_1_1geo_1_1polynomial_1_1_psip.html" target="_top" xlink:title=" ">
<polygon fill="none" stroke="black" points="183.5,-77 183.5,-107 284.5,-107 284.5,-77 183.5,-77"/>
<text text-anchor="start" x="191.5" y="-95" font-family="Helvetica,sans-Serif" font-size="10.00">dg::geo::polynomial</text>
<text text-anchor="middle" x="234" y="-84" font-family="Helvetica,sans-Serif" font-size="10.00">::Psip</text>
</a>
</g>
</g>
<!-- Node0&#45;&gt;Node4 -->
<g id="edge4" class="edge">
<title>Node0&#45;&gt;Node4</title>
<path fill="none" stroke="midnightblue" d="M149.47,-103.31C160.96,-101.75 172.51,-100.19 183.2,-98.74"/>
<polygon fill="midnightblue" stroke="midnightblue" points="148.85,-99.86 139.41,-104.67 149.79,-106.8 148.85,-99.86"/>
</g>
<!-- Node5 -->
<g id="node6" class="node">
<title>Node5</title>
<g id="a_node6"><a xlink:href="structdg_1_1geo_1_1solovev_1_1_psip.html" target="_top" xlink:title=" ">
<polygon fill="none" stroke="black" points="177,-38.5 177,-57.5 291,-57.5 291,-38.5 177,-38.5"/>
<text text-anchor="middle" x="234" y="-45.5" font-family="Helvetica,sans-Serif" font-size="10.00">dg::geo::solovev::Psip</text>
</a>
</g>
</g>
<!-- Node0&#45;&gt;Node5 -->
<g id="edge5" class="edge">
<title>Node0&#45;&gt;Node5</title>
<path fill="none" stroke="midnightblue" d="M112.41,-94.61C131.37,-86.08 154.16,-76.16 175,-68 184.32,-64.35 194.62,-60.68 203.92,-57.5"/>
<polygon fill="midnightblue" stroke="midnightblue" points="110.82,-91.48 103.15,-98.8 113.71,-97.86 110.82,-91.48"/>
</g>
<!-- Node6 -->
<g id="node7" class="node">
<title>Node6</title>
<g id="a_node7"><a xlink:href="structdg_1_1geo_1_1taylor_1_1_psip.html" target="_top" xlink:title=" ">
<polygon fill="none" stroke="black" points="182,-0.5 182,-19.5 286,-19.5 286,-0.5 182,-0.5"/>
<text text-anchor="middle" x="234" y="-7.5" font-family="Helvetica,sans-Serif" font-size="10.00">dg::geo::taylor::Psip</text>
</a>
</g>
</g>
<!-- Node0&#45;&gt;Node6 -->
<g id="edge6" class="edge">
<title>Node0&#45;&gt;Node6</title>
<path fill="none" stroke="midnightblue" d="M92.84,-91.69C112.87,-72.75 143.83,-46.02 175,-29 181.79,-25.29 189.42,-22.16 196.87,-19.56"/>
<polygon fill="midnightblue" stroke="midnightblue" points="90.25,-89.32 85.47,-98.78 95.1,-94.37 90.25,-89.32"/>
</g>
</g>
</svg>
