<?xml version="1.0" encoding="UTF-8" standalone="no"?>
<!DOCTYPE svg PUBLIC "-//W3C//DTD SVG 1.1//EN"
 "http://www.w3.org/Graphics/SVG/1.1/DTD/svg11.dtd">
<!-- Generated by graphviz version 2.43.0 (0)
 -->
<!-- Title: Graphical Class Hierarchy Pages: 1 -->
<svg width="311pt" height="204pt"
 viewBox="0.00 0.00 311.00 203.50" xmlns="http://www.w3.org/2000/svg" xmlns:xlink="http://www.w3.org/1999/xlink">
<g id="graph0" class="graph" transform="scale(1 1) rotate(0) translate(4 199.5)">
<title>Graphical Class Hierarchy</title>
<!-- Node0 -->
<g id="node1" class="node">
<title>Node0</title>
<g id="a_node1"><a xlink:href="structdg_1_1geo_1_1a_cylindrical_functor.html" target="_top" xlink:title=" ">
<polygon fill="none" stroke="black" points="0,-77 0,-107 139,-107 139,-77 0,-77"/>
<text text-anchor="start" x="8" y="-95" font-family="Helvetica,sans-Serif" font-size="10.00">dg::geo::aCylindricalFunctor</text>
<text text-anchor="middle" x="69.5" y="-84" font-family="Helvetica,sans-Serif" font-size="10.00">&lt; PsipRZ &gt;</text>
</a>
</g>
</g>
<!-- Node1 -->
<g id="node2" class="node">
<title>Node1</title>
<g id="a_node2"><a xlink:href="structdg_1_1geo_1_1guenther_1_1_psip_r_z.html" target="_top" xlink:title=" ">
<polygon fill="none" stroke="black" points="190,-165 190,-195 288,-195 288,-165 190,-165"/>
<text text-anchor="start" x="198" y="-183" font-family="Helvetica,sans-Serif" font-size="10.00">dg::geo::guenther::</text>
<text text-anchor="middle" x="239" y="-172" font-family="Helvetica,sans-Serif" font-size="10.00">PsipRZ</text>
</a>
</g>
</g>
<!-- Node0&#45;&gt;Node1 -->
<g id="edge1" class="edge">
<title>Node0&#45;&gt;Node1</title>
<path fill="none" stroke="midnightblue" d="M101.68,-112.65C122.07,-125.69 149.54,-142.38 175,-155 182.06,-158.5 189.75,-161.88 197.24,-164.97"/>
<polygon fill="midnightblue" stroke="midnightblue" points="103.43,-109.62 93.13,-107.13 99.63,-115.5 103.43,-109.62"/>
</g>
<!-- Node2 -->
<g id="node3" class="node">
<title>Node2</title>
<g id="a_node3"><a xlink:href="structdg_1_1geo_1_1mod_1_1_psip_r_z.html" target="_top" xlink:title=" ">
<polygon fill="none" stroke="black" points="182.5,-126.5 182.5,-145.5 295.5,-145.5 295.5,-126.5 182.5,-126.5"/>
<text text-anchor="middle" x="239" y="-133.5" font-family="Helvetica,sans-Serif" font-size="10.00">dg::geo::mod::PsipRZ</text>
</a>
</g>
</g>
<!-- Node0&#45;&gt;Node2 -->
<g id="edge2" class="edge">
<title>Node0&#45;&gt;Node2</title>
<path fill="none" stroke="midnightblue" d="M137.61,-109.63C159.53,-115.39 183.04,-121.56 201.79,-126.49"/>
<polygon fill="midnightblue" stroke="midnightblue" points="138.24,-106.17 127.68,-107.02 136.46,-112.95 138.24,-106.17"/>
</g>
<!-- Node3 -->
<g id="node4" class="node">
<title>Node3</title>
<g id="a_node4"><a xlink:href="structdg_1_1geo_1_1polynomial_1_1_psip_r_z.html" target="_top" xlink:title=" ">
<polygon fill="none" stroke="black" points="188.5,-77 188.5,-107 289.5,-107 289.5,-77 188.5,-77"/>
<text text-anchor="start" x="196.5" y="-95" font-family="Helvetica,sans-Serif" font-size="10.00">dg::geo::polynomial</text>
<text text-anchor="middle" x="239" y="-84" font-family="Helvetica,sans-Serif" font-size="10.00">::PsipRZ</text>
</a>
</g>
</g>
<!-- Node0&#45;&gt;Node3 -->
<g id="edge3" class="edge">
<title>Node0&#45;&gt;Node3</title>
<path fill="none" stroke="midnightblue" d="M149.27,-92C162.62,-92 176.13,-92 188.46,-92"/>
<polygon fill="midnightblue" stroke="midnightblue" points="149.11,-88.5 139.11,-92 149.11,-95.5 149.11,-88.5"/>
</g>
<!-- Node4 -->
<g id="node5" class="node">
<title>Node4</title>
<g id="a_node5"><a xlink:href="structdg_1_1geo_1_1solovev_1_1_psip_r_z.html" target="_top" xlink:title=" ">
<polygon fill="none" stroke="black" points="175,-38.5 175,-57.5 303,-57.5 303,-38.5 175,-38.5"/>
<text text-anchor="middle" x="239" y="-45.5" font-family="Helvetica,sans-Serif" font-size="10.00">dg::geo::solovev::PsipRZ</text>
</a>
</g>
</g>
<!-- Node0&#45;&gt;Node4 -->
<g id="edge4" class="edge">
<title>Node0&#45;&gt;Node4</title>
<path fill="none" stroke="midnightblue" d="M137.61,-74.37C159.53,-68.61 183.04,-62.44 201.79,-57.51"/>
<polygon fill="midnightblue" stroke="midnightblue" points="136.46,-71.05 127.68,-76.98 138.24,-77.83 136.46,-71.05"/>
</g>
<!-- Node5 -->
<g id="node6" class="node">
<title>Node5</title>
<g id="a_node6"><a xlink:href="structdg_1_1geo_1_1taylor_1_1_psip_r_z.html" target="_top" xlink:title=" ">
<polygon fill="none" stroke="black" points="180,-0.5 180,-19.5 298,-19.5 298,-0.5 180,-0.5"/>
<text text-anchor="middle" x="239" y="-7.5" font-family="Helvetica,sans-Serif" font-size="10.00">dg::geo::taylor::PsipRZ</text>
</a>
</g>
</g>
<!-- Node0&#45;&gt;Node5 -->
<g id="edge5" class="edge">
<title>Node0&#45;&gt;Node5</title>
<path fill="none" stroke="midnightblue" d="M100.55,-71.12C120.86,-57.71 148.69,-40.68 175,-29 183.14,-25.39 192.17,-22.21 200.79,-19.54"/>
<polygon fill="midnightblue" stroke="midnightblue" points="98.42,-68.34 92.05,-76.81 102.31,-74.15 98.42,-68.34"/>
</g>
</g>
</svg>
