<?xml version="1.0" encoding="UTF-8" standalone="no"?>
<!DOCTYPE svg PUBLIC "-//W3C//DTD SVG 1.1//EN"
 "http://www.w3.org/Graphics/SVG/1.1/DTD/svg11.dtd">
<!-- Generated by graphviz version 2.43.0 (0)
 -->
<!-- Title: Graphical Class Hierarchy Pages: 1 -->
<svg width="312pt" height="204pt"
 viewBox="0.00 0.00 312.00 203.50" xmlns="http://www.w3.org/2000/svg" xmlns:xlink="http://www.w3.org/1999/xlink">
<g id="graph0" class="graph" transform="scale(1 1) rotate(0) translate(4 199.5)">
<title>Graphical Class Hierarchy</title>
<!-- Node0 -->
<g id="node1" class="node">
<title>Node0</title>
<g id="a_node1"><a xlink:href="structdg_1_1geo_1_1a_cylindrical_functor.html" target="_top" xlink:title=" ">
<polygon fill="none" stroke="black" points="0,-77 0,-107 139,-107 139,-77 0,-77"/>
<text text-anchor="start" x="8" y="-95" font-family="Helvetica,sans-Serif" font-size="10.00">dg::geo::aCylindricalFunctor</text>
<text text-anchor="middle" x="69.5" y="-84" font-family="Helvetica,sans-Serif" font-size="10.00">&lt; PsipRR &gt;</text>
</a>
</g>
</g>
<!-- Node1 -->
<g id="node2" class="node">
<title>Node1</title>
<g id="a_node2"><a xlink:href="structdg_1_1geo_1_1guenther_1_1_psip_r_r.html" target="_top" xlink:title=" ">
<polygon fill="none" stroke="black" points="190.5,-165 190.5,-195 288.5,-195 288.5,-165 190.5,-165"/>
<text text-anchor="start" x="198.5" y="-183" font-family="Helvetica,sans-Serif" font-size="10.00">dg::geo::guenther::</text>
<text text-anchor="middle" x="239.5" y="-172" font-family="Helvetica,sans-Serif" font-size="10.00">PsipRR</text>
</a>
</g>
</g>
<!-- Node0&#45;&gt;Node1 -->
<g id="edge1" class="edge">
<title>Node0&#45;&gt;Node1</title>
<path fill="none" stroke="midnightblue" d="M101.67,-112.68C122.05,-125.72 149.52,-142.41 175,-155 182.12,-158.52 189.86,-161.9 197.41,-164.99"/>
<polygon fill="midnightblue" stroke="midnightblue" points="103.42,-109.64 93.12,-107.15 99.62,-115.52 103.42,-109.64"/>
</g>
<!-- Node2 -->
<g id="node3" class="node">
<title>Node2</title>
<g id="a_node3"><a xlink:href="structdg_1_1geo_1_1mod_1_1_psip_r_r.html" target="_top" xlink:title=" ">
<polygon fill="none" stroke="black" points="182.5,-126.5 182.5,-145.5 296.5,-145.5 296.5,-126.5 182.5,-126.5"/>
<text text-anchor="middle" x="239.5" y="-133.5" font-family="Helvetica,sans-Serif" font-size="10.00">dg::geo::mod::PsipRR</text>
</a>
</g>
</g>
<!-- Node0&#45;&gt;Node2 -->
<g id="edge2" class="edge">
<title>Node0&#45;&gt;Node2</title>
<path fill="none" stroke="midnightblue" d="M137.81,-109.63C159.8,-115.39 183.37,-121.56 202.18,-126.49"/>
<polygon fill="midnightblue" stroke="midnightblue" points="138.41,-106.17 127.85,-107.02 136.63,-112.94 138.41,-106.17"/>
</g>
<!-- Node3 -->
<g id="node4" class="node">
<title>Node3</title>
<g id="a_node4"><a xlink:href="structdg_1_1geo_1_1polynomial_1_1_psip_r_r.html" target="_top" xlink:title=" ">
<polygon fill="none" stroke="black" points="189,-77 189,-107 290,-107 290,-77 189,-77"/>
<text text-anchor="start" x="197" y="-95" font-family="Helvetica,sans-Serif" font-size="10.00">dg::geo::polynomial</text>
<text text-anchor="middle" x="239.5" y="-84" font-family="Helvetica,sans-Serif" font-size="10.00">::PsipRR</text>
</a>
</g>
</g>
<!-- Node0&#45;&gt;Node3 -->
<g id="edge3" class="edge">
<title>Node0&#45;&gt;Node3</title>
<path fill="none" stroke="midnightblue" d="M149.5,-92C162.89,-92 176.45,-92 188.81,-92"/>
<polygon fill="midnightblue" stroke="midnightblue" points="149.32,-88.5 139.32,-92 149.32,-95.5 149.32,-88.5"/>
</g>
<!-- Node4 -->
<g id="node5" class="node">
<title>Node4</title>
<g id="a_node5"><a xlink:href="structdg_1_1geo_1_1solovev_1_1_psip_r_r.html" target="_top" xlink:title=" ">
<polygon fill="none" stroke="black" points="175,-38.5 175,-57.5 304,-57.5 304,-38.5 175,-38.5"/>
<text text-anchor="middle" x="239.5" y="-45.5" font-family="Helvetica,sans-Serif" font-size="10.00">dg::geo::solovev::PsipRR</text>
</a>
</g>
</g>
<!-- Node0&#45;&gt;Node4 -->
<g id="edge4" class="edge">
<title>Node0&#45;&gt;Node4</title>
<path fill="none" stroke="midnightblue" d="M137.81,-74.37C159.8,-68.61 183.37,-62.44 202.18,-57.51"/>
<polygon fill="midnightblue" stroke="midnightblue" points="136.63,-71.06 127.85,-76.98 138.41,-77.83 136.63,-71.06"/>
</g>
<!-- Node5 -->
<g id="node6" class="node">
<title>Node5</title>
<g id="a_node6"><a xlink:href="structdg_1_1geo_1_1taylor_1_1_psip_r_r.html" target="_top" xlink:title=" ">
<polygon fill="none" stroke="black" points="180,-0.5 180,-19.5 299,-19.5 299,-0.5 180,-0.5"/>
<text text-anchor="middle" x="239.5" y="-7.5" font-family="Helvetica,sans-Serif" font-size="10.00">dg::geo::taylor::PsipRR</text>
</a>
</g>
</g>
<!-- Node0&#45;&gt;Node5 -->
<g id="edge5" class="edge">
<title>Node0&#45;&gt;Node5</title>
<path fill="none" stroke="midnightblue" d="M100.54,-71.1C120.85,-57.68 148.68,-40.65 175,-29 183.21,-25.37 192.31,-22.19 201,-19.52"/>
<polygon fill="midnightblue" stroke="midnightblue" points="98.41,-68.32 92.05,-76.79 102.3,-74.14 98.41,-68.32"/>
</g>
</g>
</svg>
