<?xml version="1.0" encoding="UTF-8" standalone="no"?>
<!DOCTYPE svg PUBLIC "-//W3C//DTD SVG 1.1//EN"
 "http://www.w3.org/Graphics/SVG/1.1/DTD/svg11.dtd">
<!-- Generated by graphviz version 2.43.0 (0)
 -->
<!-- Title: Graphical Class Hierarchy Pages: 1 -->
<svg width="457pt" height="100pt"
 viewBox="0.00 0.00 457.00 99.50" xmlns="http://www.w3.org/2000/svg" xmlns:xlink="http://www.w3.org/1999/xlink">
<g id="graph0" class="graph" transform="scale(1 1) rotate(0) translate(4 95.5)">
<title>Graphical Class Hierarchy</title>
<!-- Node0 -->
<g id="node1" class="node">
<title>Node0</title>
<g id="a_node1"><a target="_parent" xlink:href="../../dg/html/structdg_1_1a_real_topology_x3d" xlink:title=" ">
<polygon fill="none" stroke="black" points="0,-33 0,-63 115,-63 115,-33 0,-33"/>
<text text-anchor="start" x="8" y="-51" font-family="Helvetica,sans-Serif" font-size="10.00">dg::aRealTopologyX3d</text>
<text text-anchor="middle" x="57.5" y="-40" font-family="Helvetica,sans-Serif" font-size="10.00">&lt; class real_type &gt;</text>
</a>
</g>
</g>
<!-- Node1 -->
<g id="node2" class="node">
<title>Node1</title>
<g id="a_node2"><a target="_parent" xlink:href="../../dg/html/structdg_1_1a_real_geometry_x3d" xlink:title=" ">
<polygon fill="none" stroke="black" points="151,-33 151,-63 270,-63 270,-33 151,-33"/>
<text text-anchor="start" x="159" y="-51" font-family="Helvetica,sans-Serif" font-size="10.00">dg::aRealGeometryX3d</text>
<text text-anchor="middle" x="210.5" y="-40" font-family="Helvetica,sans-Serif" font-size="10.00">&lt; real_type &gt;</text>
</a>
</g>
</g>
<!-- Node0&#45;&gt;Node1 -->
<g id="edge1" class="edge">
<title>Node0&#45;&gt;Node1</title>
<path fill="none" stroke="midnightblue" d="M125.37,-48C133.83,-48 142.44,-48 150.76,-48"/>
<polygon fill="midnightblue" stroke="midnightblue" points="125.16,-44.5 115.16,-48 125.16,-51.5 125.16,-44.5"/>
</g>
<!-- Node2 -->
<g id="node3" class="node">
<title>Node2</title>
<g id="a_node3"><a xlink:href="structdg_1_1geo_1_1_real_curvilinear_product_grid_x3d.html" target="_top" xlink:title="A three&#45;dimensional grid based on curvilinear coordinates.">
<polygon fill="none" stroke="black" points="306,-61 306,-91 449,-91 449,-61 306,-61"/>
<text text-anchor="start" x="314" y="-79" font-family="Helvetica,sans-Serif" font-size="10.00">dg::geo::RealCurvilinear</text>
<text text-anchor="middle" x="377.5" y="-68" font-family="Helvetica,sans-Serif" font-size="10.00">ProductGridX3d&lt; real_type &gt;</text>
</a>
</g>
</g>
<!-- Node1&#45;&gt;Node2 -->
<g id="edge2" class="edge">
<title>Node1&#45;&gt;Node2</title>
<path fill="none" stroke="midnightblue" d="M280.05,-59.63C288.59,-61.08 297.33,-62.57 305.91,-64.02"/>
<polygon fill="midnightblue" stroke="midnightblue" points="280.58,-56.17 270.14,-57.95 279.41,-63.07 280.58,-56.17"/>
</g>
<!-- Node3 -->
<g id="node4" class="node">
<title>Node3</title>
<g id="a_node4"><a xlink:href="structdg_1_1geo_1_1_real_curvilinear_refined_product_grid_x3d.html" target="_top" xlink:title="A three&#45;dimensional grid based on curvilinear coordinates.">
<polygon fill="none" stroke="black" points="316.5,-0.5 316.5,-41.5 438.5,-41.5 438.5,-0.5 316.5,-0.5"/>
<text text-anchor="start" x="324.5" y="-29.5" font-family="Helvetica,sans-Serif" font-size="10.00">dg::geo::RealCurvilinear</text>
<text text-anchor="start" x="324.5" y="-18.5" font-family="Helvetica,sans-Serif" font-size="10.00">RefinedProductGridX3d</text>
<text text-anchor="middle" x="377.5" y="-7.5" font-family="Helvetica,sans-Serif" font-size="10.00">&lt; real_type &gt;</text>
</a>
</g>
</g>
<!-- Node1&#45;&gt;Node3 -->
<g id="edge3" class="edge">
<title>Node1&#45;&gt;Node3</title>
<path fill="none" stroke="midnightblue" d="M280.13,-36.77C292.16,-34.8 304.6,-32.77 316.38,-30.84"/>
<polygon fill="midnightblue" stroke="midnightblue" points="279.44,-33.34 270.14,-38.4 280.57,-40.24 279.44,-33.34"/>
</g>
</g>
</svg>
