<?xml version="1.0" encoding="UTF-8" standalone="no"?>
<!DOCTYPE svg PUBLIC "-//W3C//DTD SVG 1.1//EN"
 "http://www.w3.org/Graphics/SVG/1.1/DTD/svg11.dtd">
<!-- Generated by graphviz version 2.43.0 (0)
 -->
<!-- Title: Graphical Class Hierarchy Pages: 1 -->
<svg width="658pt" height="50pt"
 viewBox="0.00 0.00 658.00 50.00" xmlns="http://www.w3.org/2000/svg" xmlns:xlink="http://www.w3.org/1999/xlink">
<g id="graph0" class="graph" transform="scale(1 1) rotate(0) translate(4 46)">
<title>Graphical Class Hierarchy</title>
<!-- Node0 -->
<g id="node1" class="node">
<title>Node0</title>
<g id="a_node1"><a target="_parent" xlink:href="../../dg/html/structdg_1_1a_real_m_p_i_topology3d" xlink:title=" ">
<polygon fill="none" stroke="black" points="0,-6 0,-36 126,-36 126,-6 0,-6"/>
<text text-anchor="start" x="8" y="-24" font-family="Helvetica,sans-Serif" font-size="10.00">dg::aRealMPITopology3d</text>
<text text-anchor="middle" x="63" y="-13" font-family="Helvetica,sans-Serif" font-size="10.00">&lt; class real_type &gt;</text>
</a>
</g>
</g>
<!-- Node1 -->
<g id="node2" class="node">
<title>Node1</title>
<g id="a_node2"><a target="_parent" xlink:href="../../dg/html/structdg_1_1a_real_m_p_i_geometry3d" xlink:title=" ">
<polygon fill="none" stroke="black" points="162,-6 162,-36 292,-36 292,-6 162,-6"/>
<text text-anchor="start" x="170" y="-24" font-family="Helvetica,sans-Serif" font-size="10.00">dg::aRealMPIGeometry3d</text>
<text text-anchor="middle" x="227" y="-13" font-family="Helvetica,sans-Serif" font-size="10.00">&lt; class real_type &gt;</text>
</a>
</g>
</g>
<!-- Node0&#45;&gt;Node1 -->
<g id="edge1" class="edge">
<title>Node0&#45;&gt;Node1</title>
<path fill="none" stroke="midnightblue" d="M136.42,-21C144.9,-21 153.5,-21 161.85,-21"/>
<polygon fill="midnightblue" stroke="midnightblue" points="136.17,-17.5 126.17,-21 136.17,-24.5 136.17,-17.5"/>
</g>
<!-- Node2 -->
<g id="node3" class="node">
<title>Node2</title>
<g id="a_node3"><a target="_parent" xlink:href="../../dg/html/structdg_1_1a_real_product_m_p_i_geometry3d" xlink:title=" ">
<polygon fill="none" stroke="black" points="328,-6 328,-36 492,-36 492,-6 328,-6"/>
<text text-anchor="start" x="336" y="-24" font-family="Helvetica,sans-Serif" font-size="10.00">dg::aRealProductMPIGeometry3d</text>
<text text-anchor="middle" x="410" y="-13" font-family="Helvetica,sans-Serif" font-size="10.00">&lt; real_type &gt;</text>
</a>
</g>
</g>
<!-- Node1&#45;&gt;Node2 -->
<g id="edge2" class="edge">
<title>Node1&#45;&gt;Node2</title>
<path fill="none" stroke="midnightblue" d="M302.26,-21C310.71,-21 319.36,-21 327.89,-21"/>
<polygon fill="midnightblue" stroke="midnightblue" points="302.07,-17.5 292.07,-21 302.07,-24.5 302.07,-17.5"/>
</g>
<!-- Node3 -->
<g id="node4" class="node">
<title>Node3</title>
<g id="a_node4"><a xlink:href="structdg_1_1geo_1_1_real_curvilinear_product_m_p_i_grid3d.html" target="_top" xlink:title="A 2x1 curvilinear product space MPI grid.">
<polygon fill="none" stroke="black" points="528,-0.5 528,-41.5 650,-41.5 650,-0.5 528,-0.5"/>
<text text-anchor="start" x="536" y="-29.5" font-family="Helvetica,sans-Serif" font-size="10.00">dg::geo::RealCurvilinear</text>
<text text-anchor="start" x="536" y="-18.5" font-family="Helvetica,sans-Serif" font-size="10.00">ProductMPIGrid3d&lt; real</text>
<text text-anchor="middle" x="589" y="-7.5" font-family="Helvetica,sans-Serif" font-size="10.00">_type &gt;</text>
</a>
</g>
</g>
<!-- Node2&#45;&gt;Node3 -->
<g id="edge3" class="edge">
<title>Node2&#45;&gt;Node3</title>
<path fill="none" stroke="midnightblue" d="M502.39,-21C511.04,-21 519.64,-21 527.88,-21"/>
<polygon fill="midnightblue" stroke="midnightblue" points="502.25,-17.5 492.25,-21 502.25,-24.5 502.25,-17.5"/>
</g>
</g>
</svg>
