<?xml version="1.0" encoding="UTF-8" standalone="no"?>
<!DOCTYPE svg PUBLIC "-//W3C//DTD SVG 1.1//EN"
 "http://www.w3.org/Graphics/SVG/1.1/DTD/svg11.dtd">
<!-- Generated by graphviz version 2.43.0 (0)
 -->
<!-- Title: Graphical Class Hierarchy Pages: 1 -->
<svg width="457pt" height="88pt"
 viewBox="0.00 0.00 457.00 88.00" xmlns="http://www.w3.org/2000/svg" xmlns:xlink="http://www.w3.org/1999/xlink">
<g id="graph0" class="graph" transform="scale(1 1) rotate(0) translate(4 84)">
<title>Graphical Class Hierarchy</title>
<!-- Node0 -->
<g id="node1" class="node">
<title>Node0</title>
<g id="a_node1"><a target="_parent" xlink:href="../../dg/html/structdg_1_1a_real_topology_x2d" xlink:title=" ">
<polygon fill="none" stroke="black" points="0,-24.5 0,-54.5 115,-54.5 115,-24.5 0,-24.5"/>
<text text-anchor="start" x="8" y="-42.5" font-family="Helvetica,sans-Serif" font-size="10.00">dg::aRealTopologyX2d</text>
<text text-anchor="middle" x="57.5" y="-31.5" font-family="Helvetica,sans-Serif" font-size="10.00">&lt; class real_type &gt;</text>
</a>
</g>
</g>
<!-- Node1 -->
<g id="node2" class="node">
<title>Node1</title>
<g id="a_node2"><a target="_parent" xlink:href="../../dg/html/structdg_1_1a_real_geometry_x2d" xlink:title=" ">
<polygon fill="none" stroke="black" points="151,-24.5 151,-54.5 270,-54.5 270,-24.5 151,-24.5"/>
<text text-anchor="start" x="159" y="-42.5" font-family="Helvetica,sans-Serif" font-size="10.00">dg::aRealGeometryX2d</text>
<text text-anchor="middle" x="210.5" y="-31.5" font-family="Helvetica,sans-Serif" font-size="10.00">&lt; real_type &gt;</text>
</a>
</g>
</g>
<!-- Node0&#45;&gt;Node1 -->
<g id="edge1" class="edge">
<title>Node0&#45;&gt;Node1</title>
<path fill="none" stroke="midnightblue" d="M125.37,-39.5C133.83,-39.5 142.44,-39.5 150.76,-39.5"/>
<polygon fill="midnightblue" stroke="midnightblue" points="125.16,-36 115.16,-39.5 125.16,-43 125.16,-36"/>
</g>
<!-- Node2 -->
<g id="node3" class="node">
<title>Node2</title>
<g id="a_node3"><a xlink:href="structdg_1_1geo_1_1_real_curvilinear_grid_x2d.html" target="_top" xlink:title="A two&#45;dimensional grid based on curvilinear coordinates.">
<polygon fill="none" stroke="black" points="316.5,-49.5 316.5,-79.5 438.5,-79.5 438.5,-49.5 316.5,-49.5"/>
<text text-anchor="start" x="324.5" y="-67.5" font-family="Helvetica,sans-Serif" font-size="10.00">dg::geo::RealCurvilinear</text>
<text text-anchor="middle" x="377.5" y="-56.5" font-family="Helvetica,sans-Serif" font-size="10.00">GridX2d&lt; real_type &gt;</text>
</a>
</g>
</g>
<!-- Node1&#45;&gt;Node2 -->
<g id="edge2" class="edge">
<title>Node1&#45;&gt;Node2</title>
<path fill="none" stroke="midnightblue" d="M280.13,-49.9C292.16,-51.72 304.6,-53.61 316.38,-55.39"/>
<polygon fill="midnightblue" stroke="midnightblue" points="280.55,-46.42 270.14,-48.38 279.5,-53.34 280.55,-46.42"/>
</g>
<!-- Node3 -->
<g id="node4" class="node">
<title>Node3</title>
<g id="a_node4"><a xlink:href="structdg_1_1geo_1_1_real_curvilinear_refined_grid_x2d.html" target="_top" xlink:title="A two&#45;dimensional grid based on curvilinear coordinates.">
<polygon fill="none" stroke="black" points="306,-0.5 306,-30.5 449,-30.5 449,-0.5 306,-0.5"/>
<text text-anchor="start" x="314" y="-18.5" font-family="Helvetica,sans-Serif" font-size="10.00">dg::geo::RealCurvilinear</text>
<text text-anchor="middle" x="377.5" y="-7.5" font-family="Helvetica,sans-Serif" font-size="10.00">RefinedGridX2d&lt; real_type &gt;</text>
</a>
</g>
</g>
<!-- Node1&#45;&gt;Node3 -->
<g id="edge3" class="edge">
<title>Node1&#45;&gt;Node3</title>
<path fill="none" stroke="midnightblue" d="M280.05,-29.53C288.59,-28.29 297.33,-27.01 305.91,-25.77"/>
<polygon fill="midnightblue" stroke="midnightblue" points="279.53,-26.07 270.14,-30.97 280.54,-32.99 279.53,-26.07"/>
</g>
</g>
</svg>
