<?xml version="1.0" encoding="UTF-8" standalone="no"?>
<!DOCTYPE svg PUBLIC "-//W3C//DTD SVG 1.1//EN"
 "http://www.w3.org/Graphics/SVG/1.1/DTD/svg11.dtd">
<!-- Generated by graphviz version 2.43.0 (0)
 -->
<!-- Title: Graphical Class Hierarchy Pages: 1 -->
<svg width="325pt" height="306pt"
 viewBox="0.00 0.00 325.00 306.00" xmlns="http://www.w3.org/2000/svg" xmlns:xlink="http://www.w3.org/1999/xlink">
<g id="graph0" class="graph" transform="scale(1 1) rotate(0) translate(4 302)">
<title>Graphical Class Hierarchy</title>
<!-- Node0 -->
<g id="node1" class="node">
<title>Node0</title>
<g id="a_node1"><a xlink:href="structdg_1_1geo_1_1a_real_generator2d.html" target="_top" xlink:title="The abstract generator base class.">
<polygon fill="none" stroke="black" points="0,-128 0,-158 134,-158 134,-128 0,-128"/>
<text text-anchor="start" x="8" y="-146" font-family="Helvetica,sans-Serif" font-size="10.00">dg::geo::aRealGenerator2d</text>
<text text-anchor="middle" x="67" y="-135" font-family="Helvetica,sans-Serif" font-size="10.00">&lt; real_type &gt;</text>
</a>
</g>
</g>
<!-- Node1 -->
<g id="node2" class="node">
<title>Node1</title>
<g id="a_node2"><a xlink:href="structdg_1_1geo_1_1_d_s_p_generator.html" target="_top" xlink:title="A transformed field grid generator.">
<polygon fill="none" stroke="black" points="184,-278.5 184,-297.5 303,-297.5 303,-278.5 184,-278.5"/>
<text text-anchor="middle" x="243.5" y="-285.5" font-family="Helvetica,sans-Serif" font-size="10.00">dg::geo::DSPGenerator</text>
</a>
</g>
</g>
<!-- Node0&#45;&gt;Node1 -->
<g id="edge1" class="edge">
<title>Node0&#45;&gt;Node1</title>
<path fill="none" stroke="midnightblue" d="M80.98,-166.96C97.75,-195.61 129.64,-242.94 170,-269 176.01,-272.88 182.79,-275.97 189.72,-278.43"/>
<polygon fill="midnightblue" stroke="midnightblue" points="83.88,-164.98 75.89,-158.02 77.8,-168.44 83.88,-164.98"/>
</g>
<!-- Node2 -->
<g id="node3" class="node">
<title>Node2</title>
<g id="a_node3"><a xlink:href="structdg_1_1geo_1_1_flux_generator.html" target="_top" xlink:title="A symmetry flux generator.">
<polygon fill="none" stroke="black" points="185.5,-240.5 185.5,-259.5 301.5,-259.5 301.5,-240.5 185.5,-240.5"/>
<text text-anchor="middle" x="243.5" y="-247.5" font-family="Helvetica,sans-Serif" font-size="10.00">dg::geo::FluxGenerator</text>
</a>
</g>
</g>
<!-- Node0&#45;&gt;Node2 -->
<g id="edge2" class="edge">
<title>Node0&#45;&gt;Node2</title>
<path fill="none" stroke="midnightblue" d="M88.31,-165.6C107.49,-185.62 138.02,-214.18 170,-231 177.26,-234.82 185.33,-237.9 193.38,-240.39"/>
<polygon fill="midnightblue" stroke="midnightblue" points="90.69,-163.03 81.29,-158.13 85.59,-167.82 90.69,-163.03"/>
</g>
<!-- Node3 -->
<g id="node4" class="node">
<title>Node3</title>
<g id="a_node4"><a xlink:href="structdg_1_1geo_1_1_hector.html" target="_top" xlink:title="The High PrEcision Conformal grid generaTOR.">
<polygon fill="none" stroke="black" points="180.5,-191 180.5,-221 306.5,-221 306.5,-191 180.5,-191"/>
<text text-anchor="start" x="188.5" y="-209" font-family="Helvetica,sans-Serif" font-size="10.00">dg::geo::Hector&lt; IMatrix,</text>
<text text-anchor="middle" x="243.5" y="-198" font-family="Helvetica,sans-Serif" font-size="10.00"> Matrix, container &gt;</text>
</a>
</g>
</g>
<!-- Node0&#45;&gt;Node3 -->
<g id="edge3" class="edge">
<title>Node0&#45;&gt;Node3</title>
<path fill="none" stroke="midnightblue" d="M117.21,-161.61C133.93,-167.86 152.75,-174.81 170,-181 179.15,-184.28 188.98,-187.72 198.35,-190.97"/>
<polygon fill="midnightblue" stroke="midnightblue" points="118.23,-158.26 107.64,-158.02 115.77,-164.81 118.23,-158.26"/>
</g>
<!-- Node4 -->
<g id="node5" class="node">
<title>Node4</title>
<g id="a_node5"><a xlink:href="structdg_1_1geo_1_1_log_polar_generator.html" target="_top" xlink:title="Log Polar coordinates (conformal)">
<polygon fill="none" stroke="black" points="175.5,-152.5 175.5,-171.5 311.5,-171.5 311.5,-152.5 175.5,-152.5"/>
<text text-anchor="middle" x="243.5" y="-159.5" font-family="Helvetica,sans-Serif" font-size="10.00">dg::geo::LogPolarGenerator</text>
</a>
</g>
</g>
<!-- Node0&#45;&gt;Node4 -->
<g id="edge4" class="edge">
<title>Node0&#45;&gt;Node4</title>
<path fill="none" stroke="midnightblue" d="M144.62,-151.34C154.86,-152.46 165.29,-153.59 175.35,-154.69"/>
<polygon fill="midnightblue" stroke="midnightblue" points="144.79,-147.84 134.47,-150.24 144.03,-154.8 144.79,-147.84"/>
</g>
<!-- Node5 -->
<g id="node6" class="node">
<title>Node5</title>
<g id="a_node6"><a xlink:href="structdg_1_1geo_1_1_polar_generator.html" target="_top" xlink:title="Polar coordinates.">
<polygon fill="none" stroke="black" points="183.5,-114.5 183.5,-133.5 303.5,-133.5 303.5,-114.5 183.5,-114.5"/>
<text text-anchor="middle" x="243.5" y="-121.5" font-family="Helvetica,sans-Serif" font-size="10.00">dg::geo::PolarGenerator</text>
</a>
</g>
</g>
<!-- Node0&#45;&gt;Node5 -->
<g id="edge5" class="edge">
<title>Node0&#45;&gt;Node5</title>
<path fill="none" stroke="midnightblue" d="M144.76,-134.64C157.7,-133.23 170.95,-131.79 183.36,-130.44"/>
<polygon fill="midnightblue" stroke="midnightblue" points="144.03,-131.2 134.47,-135.76 144.79,-138.16 144.03,-131.2"/>
</g>
<!-- Node6 -->
<g id="node7" class="node">
<title>Node6</title>
<g id="a_node7"><a xlink:href="structdg_1_1geo_1_1_ribeiro.html" target="_top" xlink:title="A two&#45;dimensional grid based on &quot;almost&#45;conformal&quot; coordinates by Ribeiro and Scott 2010.">
<polygon fill="none" stroke="black" points="200.5,-76.5 200.5,-95.5 286.5,-95.5 286.5,-76.5 200.5,-76.5"/>
<text text-anchor="middle" x="243.5" y="-83.5" font-family="Helvetica,sans-Serif" font-size="10.00">dg::geo::Ribeiro</text>
</a>
</g>
</g>
<!-- Node0&#45;&gt;Node6 -->
<g id="edge6" class="edge">
<title>Node0&#45;&gt;Node6</title>
<path fill="none" stroke="midnightblue" d="M115.66,-124.11C132.68,-117.67 152.08,-110.67 170,-105 180.67,-101.62 192.35,-98.37 203.16,-95.54"/>
<polygon fill="midnightblue" stroke="midnightblue" points="114.04,-120.99 105.95,-127.83 116.54,-127.53 114.04,-120.99"/>
</g>
<!-- Node7 -->
<g id="node8" class="node">
<title>Node7</title>
<g id="a_node8"><a xlink:href="structdg_1_1geo_1_1_ribeiro_flux_generator.html" target="_top" xlink:title="Same as the Ribeiro class just but uses psi as a flux label directly.">
<polygon fill="none" stroke="black" points="170,-38.5 170,-57.5 317,-57.5 317,-38.5 170,-38.5"/>
<text text-anchor="middle" x="243.5" y="-45.5" font-family="Helvetica,sans-Serif" font-size="10.00">dg::geo::RibeiroFluxGenerator</text>
</a>
</g>
</g>
<!-- Node0&#45;&gt;Node7 -->
<g id="edge7" class="edge">
<title>Node0&#45;&gt;Node7</title>
<path fill="none" stroke="midnightblue" d="M91.55,-121.28C111.19,-104.25 140.61,-81.13 170,-67 177.86,-63.22 186.57,-60.12 195.15,-57.6"/>
<polygon fill="midnightblue" stroke="midnightblue" points="89.2,-118.69 84.02,-127.93 93.83,-123.94 89.2,-118.69"/>
</g>
<!-- Node8 -->
<g id="node9" class="node">
<title>Node8</title>
<g id="a_node9"><a xlink:href="structdg_1_1geo_1_1_simple_orthogonal.html" target="_top" xlink:title="Generate a simple orthogonal grid.">
<polygon fill="none" stroke="black" points="177.5,-0.5 177.5,-19.5 309.5,-19.5 309.5,-0.5 177.5,-0.5"/>
<text text-anchor="middle" x="243.5" y="-7.5" font-family="Helvetica,sans-Serif" font-size="10.00">dg::geo::SimpleOrthogonal</text>
</a>
</g>
</g>
<!-- Node0&#45;&gt;Node8 -->
<g id="edge8" class="edge">
<title>Node0&#45;&gt;Node8</title>
<path fill="none" stroke="midnightblue" d="M82.89,-119.34C100.52,-93.29 132.3,-52.04 170,-29 176.33,-25.13 183.43,-22.04 190.65,-19.58"/>
<polygon fill="midnightblue" stroke="midnightblue" points="79.85,-117.6 77.25,-127.87 85.69,-121.45 79.85,-117.6"/>
</g>
</g>
</svg>
