<?xml version="1.0" encoding="UTF-8" standalone="no"?>
<!DOCTYPE svg PUBLIC "-//W3C//DTD SVG 1.1//EN"
 "http://www.w3.org/Graphics/SVG/1.1/DTD/svg11.dtd">
<!-- Generated by graphviz version 2.43.0 (0)
 -->
<!-- Title: Graphical Class Hierarchy Pages: 1 -->
<svg width="303pt" height="253pt"
 viewBox="0.00 0.00 303.00 252.50" xmlns="http://www.w3.org/2000/svg" xmlns:xlink="http://www.w3.org/1999/xlink">
<g id="graph0" class="graph" transform="scale(1 1) rotate(0) translate(4 248.5)">
<title>Graphical Class Hierarchy</title>
<!-- Node0 -->
<g id="node1" class="node">
<title>Node0</title>
<g id="a_node1"><a xlink:href="structdg_1_1geo_1_1a_cylindrical_functor.html" target="_top" xlink:title=" ">
<polygon fill="none" stroke="black" points="0,-99 0,-129 139,-129 139,-99 0,-99"/>
<text text-anchor="start" x="8" y="-117" font-family="Helvetica,sans-Serif" font-size="10.00">dg::geo::aCylindricalFunctor</text>
<text text-anchor="middle" x="69.5" y="-106" font-family="Helvetica,sans-Serif" font-size="10.00">&lt; PsipZ &gt;</text>
</a>
</g>
</g>
<!-- Node1 -->
<g id="node2" class="node">
<title>Node1</title>
<g id="a_node2"><a xlink:href="structdg_1_1geo_1_1circular_1_1_psip_z.html" target="_top" xlink:title=" ">
<polygon fill="none" stroke="black" points="189,-214 189,-244 281,-244 281,-214 189,-214"/>
<text text-anchor="start" x="197" y="-232" font-family="Helvetica,sans-Serif" font-size="10.00">dg::geo::circular::</text>
<text text-anchor="middle" x="235" y="-221" font-family="Helvetica,sans-Serif" font-size="10.00">PsipZ</text>
</a>
</g>
</g>
<!-- Node0&#45;&gt;Node1 -->
<g id="edge1" class="edge">
<title>Node0&#45;&gt;Node1</title>
<path fill="none" stroke="midnightblue" d="M91.91,-136.47C111.92,-156.49 143.38,-185.56 175,-205 180.27,-208.24 186.07,-211.22 191.89,-213.88"/>
<polygon fill="midnightblue" stroke="midnightblue" points="94.33,-133.95 84.82,-129.28 89.35,-138.86 94.33,-133.95"/>
</g>
<!-- Node2 -->
<g id="node3" class="node">
<title>Node2</title>
<g id="a_node3"><a xlink:href="structdg_1_1geo_1_1guenther_1_1_psip_z.html" target="_top" xlink:title=" ">
<polygon fill="none" stroke="black" points="186,-165 186,-195 284,-195 284,-165 186,-165"/>
<text text-anchor="start" x="194" y="-183" font-family="Helvetica,sans-Serif" font-size="10.00">dg::geo::guenther::</text>
<text text-anchor="middle" x="235" y="-172" font-family="Helvetica,sans-Serif" font-size="10.00">PsipZ</text>
</a>
</g>
</g>
<!-- Node0&#45;&gt;Node2 -->
<g id="edge2" class="edge">
<title>Node0&#45;&gt;Node2</title>
<path fill="none" stroke="midnightblue" d="M117.36,-132.92C142.53,-143.08 173.12,-155.43 196.66,-164.93"/>
<polygon fill="midnightblue" stroke="midnightblue" points="118.59,-129.64 108.01,-129.14 115.97,-136.13 118.59,-129.64"/>
</g>
<!-- Node3 -->
<g id="node4" class="node">
<title>Node3</title>
<g id="a_node4"><a xlink:href="structdg_1_1geo_1_1mod_1_1_psip_z.html" target="_top" xlink:title=" ">
<polygon fill="none" stroke="black" points="182.5,-126.5 182.5,-145.5 287.5,-145.5 287.5,-126.5 182.5,-126.5"/>
<text text-anchor="middle" x="235" y="-133.5" font-family="Helvetica,sans-Serif" font-size="10.00">dg::geo::mod::PsipZ</text>
</a>
</g>
</g>
<!-- Node0&#45;&gt;Node3 -->
<g id="edge3" class="edge">
<title>Node0&#45;&gt;Node3</title>
<path fill="none" stroke="midnightblue" d="M149.49,-124.63C160.57,-126.12 171.71,-127.62 182.11,-129.02"/>
<polygon fill="midnightblue" stroke="midnightblue" points="149.74,-121.13 139.36,-123.27 148.81,-128.07 149.74,-121.13"/>
</g>
<!-- Node4 -->
<g id="node5" class="node">
<title>Node4</title>
<g id="a_node5"><a xlink:href="structdg_1_1geo_1_1polynomial_1_1_psip_z.html" target="_top" xlink:title=" ">
<polygon fill="none" stroke="black" points="184.5,-77 184.5,-107 285.5,-107 285.5,-77 184.5,-77"/>
<text text-anchor="start" x="192.5" y="-95" font-family="Helvetica,sans-Serif" font-size="10.00">dg::geo::polynomial</text>
<text text-anchor="middle" x="235" y="-84" font-family="Helvetica,sans-Serif" font-size="10.00">::PsipZ</text>
</a>
</g>
</g>
<!-- Node0&#45;&gt;Node4 -->
<g id="edge4" class="edge">
<title>Node0&#45;&gt;Node4</title>
<path fill="none" stroke="midnightblue" d="M149.28,-103.4C161.13,-101.8 173.07,-100.2 184.09,-98.72"/>
<polygon fill="midnightblue" stroke="midnightblue" points="148.81,-99.93 139.36,-104.73 149.74,-106.87 148.81,-99.93"/>
</g>
<!-- Node5 -->
<g id="node6" class="node">
<title>Node5</title>
<g id="a_node6"><a xlink:href="structdg_1_1geo_1_1solovev_1_1_psip_z.html" target="_top" xlink:title=" ">
<polygon fill="none" stroke="black" points="175,-38.5 175,-57.5 295,-57.5 295,-38.5 175,-38.5"/>
<text text-anchor="middle" x="235" y="-45.5" font-family="Helvetica,sans-Serif" font-size="10.00">dg::geo::solovev::PsipZ</text>
</a>
</g>
</g>
<!-- Node0&#45;&gt;Node5 -->
<g id="edge5" class="edge">
<title>Node0&#45;&gt;Node5</title>
<path fill="none" stroke="midnightblue" d="M111.96,-94.75C131,-86.17 153.98,-76.17 175,-68 184.38,-64.36 194.72,-60.72 204.1,-57.57"/>
<polygon fill="midnightblue" stroke="midnightblue" points="110.33,-91.64 102.67,-98.96 113.23,-98.02 110.33,-91.64"/>
</g>
<!-- Node6 -->
<g id="node7" class="node">
<title>Node6</title>
<g id="a_node7"><a xlink:href="structdg_1_1geo_1_1taylor_1_1_psip_z.html" target="_top" xlink:title=" ">
<polygon fill="none" stroke="black" points="180,-0.5 180,-19.5 290,-19.5 290,-0.5 180,-0.5"/>
<text text-anchor="middle" x="235" y="-7.5" font-family="Helvetica,sans-Serif" font-size="10.00">dg::geo::taylor::PsipZ</text>
</a>
</g>
</g>
<!-- Node0&#45;&gt;Node6 -->
<g id="edge6" class="edge">
<title>Node0&#45;&gt;Node6</title>
<path fill="none" stroke="midnightblue" d="M92.82,-91.65C112.84,-72.69 143.79,-45.94 175,-29 181.9,-25.25 189.67,-22.1 197.24,-19.5"/>
<polygon fill="midnightblue" stroke="midnightblue" points="90.22,-89.29 85.45,-98.75 95.08,-94.33 90.22,-89.29"/>
</g>
</g>
</svg>
