<?xml version="1.0" encoding="UTF-8" standalone="no"?>
<!DOCTYPE svg PUBLIC "-//W3C//DTD SVG 1.1//EN"
 "http://www.w3.org/Graphics/SVG/1.1/DTD/svg11.dtd">
<!-- Generated by graphviz version 2.43.0 (0)
 -->
<!-- Title: Graphical Class Hierarchy Pages: 1 -->
<svg width="309pt" height="204pt"
 viewBox="0.00 0.00 309.00 203.50" xmlns="http://www.w3.org/2000/svg" xmlns:xlink="http://www.w3.org/1999/xlink">
<g id="graph0" class="graph" transform="scale(1 1) rotate(0) translate(4 199.5)">
<title>Graphical Class Hierarchy</title>
<!-- Node0 -->
<g id="node1" class="node">
<title>Node0</title>
<g id="a_node1"><a xlink:href="structdg_1_1geo_1_1a_cylindrical_functor.html" target="_top" xlink:title=" ">
<polygon fill="none" stroke="black" points="0,-77 0,-107 139,-107 139,-77 0,-77"/>
<text text-anchor="start" x="8" y="-95" font-family="Helvetica,sans-Serif" font-size="10.00">dg::geo::aCylindricalFunctor</text>
<text text-anchor="middle" x="69.5" y="-84" font-family="Helvetica,sans-Serif" font-size="10.00">&lt; PsipZZ &gt;</text>
</a>
</g>
</g>
<!-- Node1 -->
<g id="node2" class="node">
<title>Node1</title>
<g id="a_node2"><a xlink:href="structdg_1_1geo_1_1guenther_1_1_psip_z_z.html" target="_top" xlink:title=" ">
<polygon fill="none" stroke="black" points="189,-165 189,-195 287,-195 287,-165 189,-165"/>
<text text-anchor="start" x="197" y="-183" font-family="Helvetica,sans-Serif" font-size="10.00">dg::geo::guenther::</text>
<text text-anchor="middle" x="238" y="-172" font-family="Helvetica,sans-Serif" font-size="10.00">PsipZZ</text>
</a>
</g>
</g>
<!-- Node0&#45;&gt;Node1 -->
<g id="edge1" class="edge">
<title>Node0&#45;&gt;Node1</title>
<path fill="none" stroke="midnightblue" d="M101.71,-112.61C122.1,-125.62 149.57,-142.31 175,-155 181.96,-158.47 189.52,-161.84 196.89,-164.92"/>
<polygon fill="midnightblue" stroke="midnightblue" points="103.45,-109.57 93.15,-107.1 99.66,-115.45 103.45,-109.57"/>
</g>
<!-- Node2 -->
<g id="node3" class="node">
<title>Node2</title>
<g id="a_node3"><a xlink:href="structdg_1_1geo_1_1mod_1_1_psip_z_z.html" target="_top" xlink:title=" ">
<polygon fill="none" stroke="black" points="182.5,-126.5 182.5,-145.5 293.5,-145.5 293.5,-126.5 182.5,-126.5"/>
<text text-anchor="middle" x="238" y="-133.5" font-family="Helvetica,sans-Serif" font-size="10.00">dg::geo::mod::PsipZZ</text>
</a>
</g>
</g>
<!-- Node0&#45;&gt;Node2 -->
<g id="edge2" class="edge">
<title>Node0&#45;&gt;Node2</title>
<path fill="none" stroke="midnightblue" d="M137.17,-109.62C158.88,-115.35 182.15,-121.5 200.75,-126.42"/>
<polygon fill="midnightblue" stroke="midnightblue" points="137.9,-106.19 127.33,-107.02 136.11,-112.96 137.9,-106.19"/>
</g>
<!-- Node3 -->
<g id="node4" class="node">
<title>Node3</title>
<g id="a_node4"><a xlink:href="structdg_1_1geo_1_1polynomial_1_1_psip_z_z.html" target="_top" xlink:title=" ">
<polygon fill="none" stroke="black" points="187.5,-77 187.5,-107 288.5,-107 288.5,-77 187.5,-77"/>
<text text-anchor="start" x="195.5" y="-95" font-family="Helvetica,sans-Serif" font-size="10.00">dg::geo::polynomial</text>
<text text-anchor="middle" x="238" y="-84" font-family="Helvetica,sans-Serif" font-size="10.00">::PsipZZ</text>
</a>
</g>
</g>
<!-- Node0&#45;&gt;Node3 -->
<g id="edge3" class="edge">
<title>Node0&#45;&gt;Node3</title>
<path fill="none" stroke="midnightblue" d="M149.46,-92C162.35,-92 175.37,-92 187.29,-92"/>
<polygon fill="midnightblue" stroke="midnightblue" points="149.18,-88.5 139.18,-92 149.18,-95.5 149.18,-88.5"/>
</g>
<!-- Node4 -->
<g id="node5" class="node">
<title>Node4</title>
<g id="a_node5"><a xlink:href="structdg_1_1geo_1_1solovev_1_1_psip_z_z.html" target="_top" xlink:title=" ">
<polygon fill="none" stroke="black" points="175,-38.5 175,-57.5 301,-57.5 301,-38.5 175,-38.5"/>
<text text-anchor="middle" x="238" y="-45.5" font-family="Helvetica,sans-Serif" font-size="10.00">dg::geo::solovev::PsipZZ</text>
</a>
</g>
</g>
<!-- Node0&#45;&gt;Node4 -->
<g id="edge4" class="edge">
<title>Node0&#45;&gt;Node4</title>
<path fill="none" stroke="midnightblue" d="M137.17,-74.38C158.88,-68.65 182.15,-62.5 200.75,-57.58"/>
<polygon fill="midnightblue" stroke="midnightblue" points="136.11,-71.04 127.33,-76.98 137.9,-77.81 136.11,-71.04"/>
</g>
<!-- Node5 -->
<g id="node6" class="node">
<title>Node5</title>
<g id="a_node6"><a xlink:href="structdg_1_1geo_1_1taylor_1_1_psip_z_z.html" target="_top" xlink:title=" ">
<polygon fill="none" stroke="black" points="180,-0.5 180,-19.5 296,-19.5 296,-0.5 180,-0.5"/>
<text text-anchor="middle" x="238" y="-7.5" font-family="Helvetica,sans-Serif" font-size="10.00">dg::geo::taylor::PsipZZ</text>
</a>
</g>
</g>
<!-- Node0&#45;&gt;Node5 -->
<g id="edge5" class="edge">
<title>Node0&#45;&gt;Node5</title>
<path fill="none" stroke="midnightblue" d="M100.57,-71.16C120.89,-57.77 148.71,-40.74 175,-29 183.02,-25.42 191.91,-22.26 200.39,-19.59"/>
<polygon fill="midnightblue" stroke="midnightblue" points="98.44,-68.37 92.07,-76.84 102.32,-74.19 98.44,-68.37"/>
</g>
</g>
</svg>
