<?xml version="1.0" encoding="UTF-8" standalone="no"?>
<!DOCTYPE svg PUBLIC "-//W3C//DTD SVG 1.1//EN"
 "http://www.w3.org/Graphics/SVG/1.1/DTD/svg11.dtd">
<!-- Generated by graphviz version 2.43.0 (0)
 -->
<!-- Title: Graphical Class Hierarchy Pages: 1 -->
<svg width="619pt" height="39pt"
 viewBox="0.00 0.00 619.00 39.00" xmlns="http://www.w3.org/2000/svg" xmlns:xlink="http://www.w3.org/1999/xlink">
<g id="graph0" class="graph" transform="scale(1 1) rotate(0) translate(4 35)">
<title>Graphical Class Hierarchy</title>
<!-- Node0 -->
<g id="node1" class="node">
<title>Node0</title>
<g id="a_node1"><a target="_parent" xlink:href="../../dg/html/structdg_1_1a_real_topology3d" xlink:title=" ">
<polygon fill="none" stroke="black" points="0,-0.5 0,-30.5 108,-30.5 108,-0.5 0,-0.5"/>
<text text-anchor="start" x="8" y="-18.5" font-family="Helvetica,sans-Serif" font-size="10.00">dg::aRealTopology3d</text>
<text text-anchor="middle" x="54" y="-7.5" font-family="Helvetica,sans-Serif" font-size="10.00">&lt; class real_type &gt;</text>
</a>
</g>
</g>
<!-- Node1 -->
<g id="node2" class="node">
<title>Node1</title>
<g id="a_node2"><a target="_parent" xlink:href="../../dg/html/structdg_1_1a_real_geometry3d" xlink:title=" ">
<polygon fill="none" stroke="black" points="144,-0.5 144,-30.5 256,-30.5 256,-0.5 144,-0.5"/>
<text text-anchor="start" x="152" y="-18.5" font-family="Helvetica,sans-Serif" font-size="10.00">dg::aRealGeometry3d</text>
<text text-anchor="middle" x="200" y="-7.5" font-family="Helvetica,sans-Serif" font-size="10.00">&lt; class real_type &gt;</text>
</a>
</g>
</g>
<!-- Node0&#45;&gt;Node1 -->
<g id="edge1" class="edge">
<title>Node0&#45;&gt;Node1</title>
<path fill="none" stroke="midnightblue" d="M118.36,-15.5C126.77,-15.5 135.34,-15.5 143.6,-15.5"/>
<polygon fill="midnightblue" stroke="midnightblue" points="118.21,-12 108.21,-15.5 118.21,-19 118.21,-12"/>
</g>
<!-- Node2 -->
<g id="node3" class="node">
<title>Node2</title>
<g id="a_node3"><a target="_parent" xlink:href="../../dg/html/structdg_1_1a_real_product_geometry3d" xlink:title=" ">
<polygon fill="none" stroke="black" points="292,-0.5 292,-30.5 438,-30.5 438,-0.5 292,-0.5"/>
<text text-anchor="start" x="300" y="-18.5" font-family="Helvetica,sans-Serif" font-size="10.00">dg::aRealProductGeometry3d</text>
<text text-anchor="middle" x="365" y="-7.5" font-family="Helvetica,sans-Serif" font-size="10.00">&lt; real_type &gt;</text>
</a>
</g>
</g>
<!-- Node1&#45;&gt;Node2 -->
<g id="edge2" class="edge">
<title>Node1&#45;&gt;Node2</title>
<path fill="none" stroke="midnightblue" d="M266.29,-15.5C274.68,-15.5 283.32,-15.5 291.82,-15.5"/>
<polygon fill="midnightblue" stroke="midnightblue" points="266.18,-12 256.18,-15.5 266.18,-19 266.18,-12"/>
</g>
<!-- Node3 -->
<g id="node4" class="node">
<title>Node3</title>
<g id="a_node4"><a xlink:href="structdg_1_1geo_1_1_real_curvilinear_product_grid3d.html" target="_top" xlink:title="A 2x1 curvilinear product space grid.">
<polygon fill="none" stroke="black" points="474,-0.5 474,-30.5 611,-30.5 611,-0.5 474,-0.5"/>
<text text-anchor="start" x="482" y="-18.5" font-family="Helvetica,sans-Serif" font-size="10.00">dg::geo::RealCurvilinear</text>
<text text-anchor="middle" x="542.5" y="-7.5" font-family="Helvetica,sans-Serif" font-size="10.00">ProductGrid3d&lt; real_type &gt;</text>
</a>
</g>
</g>
<!-- Node2&#45;&gt;Node3 -->
<g id="edge3" class="edge">
<title>Node2&#45;&gt;Node3</title>
<path fill="none" stroke="midnightblue" d="M448.19,-15.5C456.79,-15.5 465.46,-15.5 473.87,-15.5"/>
<polygon fill="midnightblue" stroke="midnightblue" points="448.14,-12 438.14,-15.5 448.14,-19 448.14,-12"/>
</g>
</g>
</svg>
