<?xml version="1.0" encoding="UTF-8" standalone="no"?>
<!DOCTYPE svg PUBLIC "-//W3C//DTD SVG 1.1//EN"
 "http://www.w3.org/Graphics/SVG/1.1/DTD/svg11.dtd">
<!-- Generated by graphviz version 2.43.0 (0)
 -->
<!-- Title: Graphical Class Hierarchy Pages: 1 -->
<svg width="330pt" height="66pt"
 viewBox="0.00 0.00 330.00 66.00" xmlns="http://www.w3.org/2000/svg" xmlns:xlink="http://www.w3.org/1999/xlink">
<g id="graph0" class="graph" transform="scale(1 1) rotate(0) translate(4 62)">
<title>Graphical Class Hierarchy</title>
<!-- Node0 -->
<g id="node1" class="node">
<title>Node0</title>
<g id="a_node1"><a xlink:href="structdg_1_1geo_1_1a_real_generator_x2d.html" target="_top" xlink:title="The abstract generator base class.">
<polygon fill="none" stroke="black" points="0,-14 0,-44 140,-44 140,-14 0,-14"/>
<text text-anchor="start" x="8" y="-32" font-family="Helvetica,sans-Serif" font-size="10.00">dg::geo::aRealGeneratorX2d</text>
<text text-anchor="middle" x="70" y="-21" font-family="Helvetica,sans-Serif" font-size="10.00">&lt; real_type &gt;</text>
</a>
</g>
</g>
<!-- Node1 -->
<g id="node2" class="node">
<title>Node1</title>
<g id="a_node2"><a xlink:href="structdg_1_1geo_1_1_ribeiro_x.html" target="_top" xlink:title="A two&#45;dimensional grid based on &quot;almost&#45;conformal&quot; coordinates by Ribeiro and Scott 2010.">
<polygon fill="none" stroke="black" points="203,-38.5 203,-57.5 295,-57.5 295,-38.5 203,-38.5"/>
<text text-anchor="middle" x="249" y="-45.5" font-family="Helvetica,sans-Serif" font-size="10.00">dg::geo::RibeiroX</text>
</a>
</g>
</g>
<!-- Node0&#45;&gt;Node1 -->
<g id="edge1" class="edge">
<title>Node0&#45;&gt;Node1</title>
<path fill="none" stroke="midnightblue" d="M150.15,-37.5C168.2,-39.43 186.78,-41.43 202.83,-43.15"/>
<polygon fill="midnightblue" stroke="midnightblue" points="150.51,-34.01 140.19,-36.43 149.76,-40.97 150.51,-34.01"/>
</g>
<!-- Node2 -->
<g id="node3" class="node">
<title>Node2</title>
<g id="a_node3"><a xlink:href="structdg_1_1geo_1_1_separatrix_orthogonal.html" target="_top" xlink:title="Choose points on separatrix and construct grid from there.">
<polygon fill="none" stroke="black" points="176,-0.5 176,-19.5 322,-19.5 322,-0.5 176,-0.5"/>
<text text-anchor="middle" x="249" y="-7.5" font-family="Helvetica,sans-Serif" font-size="10.00">dg::geo::SeparatrixOrthogonal</text>
</a>
</g>
</g>
<!-- Node0&#45;&gt;Node2 -->
<g id="edge2" class="edge">
<title>Node0&#45;&gt;Node2</title>
<path fill="none" stroke="midnightblue" d="M150.19,-20.5C158.76,-19.58 167.45,-18.65 175.94,-17.74"/>
<polygon fill="midnightblue" stroke="midnightblue" points="149.76,-17.03 140.19,-21.57 150.51,-23.99 149.76,-17.03"/>
</g>
</g>
</svg>
