<?xml version="1.0" encoding="UTF-8" standalone="no"?>
<!DOCTYPE svg PUBLIC "-//W3C//DTD SVG 1.1//EN"
 "http://www.w3.org/Graphics/SVG/1.1/DTD/svg11.dtd">
<!-- Generated by graphviz version 2.43.0 (0)
 -->
<!-- Title: Graphical Class Hierarchy Pages: 1 -->
<svg width="301pt" height="116pt"
 viewBox="0.00 0.00 301.00 115.50" xmlns="http://www.w3.org/2000/svg" xmlns:xlink="http://www.w3.org/1999/xlink">
<g id="graph0" class="graph" transform="scale(1 1) rotate(0) translate(4 111.5)">
<title>Graphical Class Hierarchy</title>
<!-- Node0 -->
<g id="node1" class="node">
<title>Node0</title>
<g id="a_node1"><a xlink:href="structdg_1_1geo_1_1a_cylindrical_functor.html" target="_top" xlink:title=" ">
<polygon fill="none" stroke="black" points="0,-33 0,-63 139,-63 139,-33 0,-33"/>
<text text-anchor="start" x="8" y="-51" font-family="Helvetica,sans-Serif" font-size="10.00">dg::geo::aCylindricalFunctor</text>
<text text-anchor="middle" x="69.5" y="-40" font-family="Helvetica,sans-Serif" font-size="10.00">&lt; IpolR &gt;</text>
</a>
</g>
</g>
<!-- Node1 -->
<g id="node2" class="node">
<title>Node1</title>
<g id="a_node2"><a xlink:href="structdg_1_1geo_1_1guenther_1_1_ipol_r.html" target="_top" xlink:title=" ">
<polygon fill="none" stroke="black" points="185,-77 185,-107 283,-107 283,-77 185,-77"/>
<text text-anchor="start" x="193" y="-95" font-family="Helvetica,sans-Serif" font-size="10.00">dg::geo::guenther::</text>
<text text-anchor="middle" x="234" y="-84" font-family="Helvetica,sans-Serif" font-size="10.00">IpolR</text>
</a>
</g>
</g>
<!-- Node0&#45;&gt;Node1 -->
<g id="edge1" class="edge">
<title>Node0&#45;&gt;Node1</title>
<path fill="none" stroke="midnightblue" d="M135.99,-65.73C152.32,-70.15 169.52,-74.81 184.84,-78.96"/>
<polygon fill="midnightblue" stroke="midnightblue" points="136.54,-62.25 125.97,-63.02 134.71,-69.01 136.54,-62.25"/>
</g>
<!-- Node2 -->
<g id="node3" class="node">
<title>Node2</title>
<g id="a_node3"><a xlink:href="structdg_1_1geo_1_1solovev_1_1_ipol_r.html" target="_top" xlink:title=" ">
<polygon fill="none" stroke="black" points="175,-38.5 175,-57.5 293,-57.5 293,-38.5 175,-38.5"/>
<text text-anchor="middle" x="234" y="-45.5" font-family="Helvetica,sans-Serif" font-size="10.00">dg::geo::solovev::IpolR</text>
</a>
</g>
</g>
<!-- Node0&#45;&gt;Node2 -->
<g id="edge2" class="edge">
<title>Node0&#45;&gt;Node2</title>
<path fill="none" stroke="midnightblue" d="M149.68,-48C158.13,-48 166.61,-48 174.75,-48"/>
<polygon fill="midnightblue" stroke="midnightblue" points="149.41,-44.5 139.41,-48 149.41,-51.5 149.41,-44.5"/>
</g>
<!-- Node3 -->
<g id="node4" class="node">
<title>Node3</title>
<g id="a_node4"><a xlink:href="structdg_1_1geo_1_1taylor_1_1_ipol_r.html" target="_top" xlink:title=" ">
<polygon fill="none" stroke="black" points="180,-0.5 180,-19.5 288,-19.5 288,-0.5 180,-0.5"/>
<text text-anchor="middle" x="234" y="-7.5" font-family="Helvetica,sans-Serif" font-size="10.00">dg::geo::taylor::IpolR</text>
</a>
</g>
</g>
<!-- Node0&#45;&gt;Node3 -->
<g id="edge3" class="edge">
<title>Node0&#45;&gt;Node3</title>
<path fill="none" stroke="midnightblue" d="M144.79,-30.63C161.08,-26.82 177.74,-22.92 192.13,-19.56"/>
<polygon fill="midnightblue" stroke="midnightblue" points="143.66,-27.3 134.72,-32.98 145.26,-34.11 143.66,-27.3"/>
</g>
</g>
</svg>
