<?xml version="1.0" encoding="UTF-8" standalone="no"?>
<!DOCTYPE svg PUBLIC "-//W3C//DTD SVG 1.1//EN"
 "http://www.w3.org/Graphics/SVG/1.1/DTD/svg11.dtd">
<!-- Generated by graphviz version 2.43.0 (0)
 -->
<!-- Title: Graphical Class Hierarchy Pages: 1 -->
<svg width="305pt" height="253pt"
 viewBox="0.00 0.00 305.00 252.50" xmlns="http://www.w3.org/2000/svg" xmlns:xlink="http://www.w3.org/1999/xlink">
<g id="graph0" class="graph" transform="scale(1 1) rotate(0) translate(4 248.5)">
<title>Graphical Class Hierarchy</title>
<!-- Node0 -->
<g id="node1" class="node">
<title>Node0</title>
<g id="a_node1"><a xlink:href="structdg_1_1geo_1_1a_cylindrical_functor.html" target="_top" xlink:title=" ">
<polygon fill="none" stroke="black" points="0,-99 0,-129 139,-129 139,-99 0,-99"/>
<text text-anchor="start" x="8" y="-117" font-family="Helvetica,sans-Serif" font-size="10.00">dg::geo::aCylindricalFunctor</text>
<text text-anchor="middle" x="69.5" y="-106" font-family="Helvetica,sans-Serif" font-size="10.00">&lt; PsipR &gt;</text>
</a>
</g>
</g>
<!-- Node1 -->
<g id="node2" class="node">
<title>Node1</title>
<g id="a_node2"><a xlink:href="structdg_1_1geo_1_1circular_1_1_psip_r.html" target="_top" xlink:title=" ">
<polygon fill="none" stroke="black" points="190,-214 190,-244 282,-244 282,-214 190,-214"/>
<text text-anchor="start" x="198" y="-232" font-family="Helvetica,sans-Serif" font-size="10.00">dg::geo::circular::</text>
<text text-anchor="middle" x="236" y="-221" font-family="Helvetica,sans-Serif" font-size="10.00">PsipR</text>
</a>
</g>
</g>
<!-- Node0&#45;&gt;Node1 -->
<g id="edge1" class="edge">
<title>Node0&#45;&gt;Node1</title>
<path fill="none" stroke="midnightblue" d="M91.88,-136.52C111.87,-156.57 143.33,-185.65 175,-205 180.36,-208.28 186.25,-211.27 192.17,-213.94"/>
<polygon fill="midnightblue" stroke="midnightblue" points="94.31,-133.99 84.8,-129.31 89.31,-138.9 94.31,-133.99"/>
</g>
<!-- Node2 -->
<g id="node3" class="node">
<title>Node2</title>
<g id="a_node3"><a xlink:href="structdg_1_1geo_1_1guenther_1_1_psip_r.html" target="_top" xlink:title=" ">
<polygon fill="none" stroke="black" points="187,-165 187,-195 285,-195 285,-165 187,-165"/>
<text text-anchor="start" x="195" y="-183" font-family="Helvetica,sans-Serif" font-size="10.00">dg::geo::guenther::</text>
<text text-anchor="middle" x="236" y="-172" font-family="Helvetica,sans-Serif" font-size="10.00">PsipR</text>
</a>
</g>
</g>
<!-- Node0&#45;&gt;Node2 -->
<g id="edge2" class="edge">
<title>Node0&#45;&gt;Node2</title>
<path fill="none" stroke="midnightblue" d="M117.65,-132.92C142.97,-143.08 173.75,-155.43 197.44,-164.93"/>
<polygon fill="midnightblue" stroke="midnightblue" points="118.82,-129.62 108.24,-129.14 116.22,-136.11 118.82,-129.62"/>
</g>
<!-- Node3 -->
<g id="node4" class="node">
<title>Node3</title>
<g id="a_node4"><a xlink:href="structdg_1_1geo_1_1mod_1_1_psip_r.html" target="_top" xlink:title=" ">
<polygon fill="none" stroke="black" points="182.5,-126.5 182.5,-145.5 289.5,-145.5 289.5,-126.5 182.5,-126.5"/>
<text text-anchor="middle" x="236" y="-133.5" font-family="Helvetica,sans-Serif" font-size="10.00">dg::geo::mod::PsipR</text>
</a>
</g>
</g>
<!-- Node0&#45;&gt;Node3 -->
<g id="edge3" class="edge">
<title>Node0&#45;&gt;Node3</title>
<path fill="none" stroke="midnightblue" d="M149.53,-124.57C160.71,-126.06 171.97,-127.57 182.48,-128.98"/>
<polygon fill="midnightblue" stroke="midnightblue" points="149.69,-121.06 139.31,-123.2 148.76,-128 149.69,-121.06"/>
</g>
<!-- Node4 -->
<g id="node5" class="node">
<title>Node4</title>
<g id="a_node5"><a xlink:href="structdg_1_1geo_1_1polynomial_1_1_psip_r.html" target="_top" xlink:title=" ">
<polygon fill="none" stroke="black" points="185.5,-77 185.5,-107 286.5,-107 286.5,-77 185.5,-77"/>
<text text-anchor="start" x="193.5" y="-95" font-family="Helvetica,sans-Serif" font-size="10.00">dg::geo::polynomial</text>
<text text-anchor="middle" x="236" y="-84" font-family="Helvetica,sans-Serif" font-size="10.00">::PsipR</text>
</a>
</g>
</g>
<!-- Node0&#45;&gt;Node4 -->
<g id="edge4" class="edge">
<title>Node0&#45;&gt;Node4</title>
<path fill="none" stroke="midnightblue" d="M149.55,-103.43C161.79,-101.79 174.13,-100.14 185.48,-98.62"/>
<polygon fill="midnightblue" stroke="midnightblue" points="148.76,-100 139.31,-104.8 149.69,-106.94 148.76,-100"/>
</g>
<!-- Node5 -->
<g id="node6" class="node">
<title>Node5</title>
<g id="a_node6"><a xlink:href="structdg_1_1geo_1_1solovev_1_1_psip_r.html" target="_top" xlink:title=" ">
<polygon fill="none" stroke="black" points="175,-38.5 175,-57.5 297,-57.5 297,-38.5 175,-38.5"/>
<text text-anchor="middle" x="236" y="-45.5" font-family="Helvetica,sans-Serif" font-size="10.00">dg::geo::solovev::PsipR</text>
</a>
</g>
</g>
<!-- Node0&#45;&gt;Node5 -->
<g id="edge5" class="edge">
<title>Node0&#45;&gt;Node5</title>
<path fill="none" stroke="midnightblue" d="M111.94,-94.7C130.98,-86.11 153.96,-76.12 175,-68 184.53,-64.32 195.05,-60.68 204.59,-57.53"/>
<polygon fill="midnightblue" stroke="midnightblue" points="110.31,-91.59 102.66,-98.92 113.21,-97.97 110.31,-91.59"/>
</g>
<!-- Node6 -->
<g id="node7" class="node">
<title>Node6</title>
<g id="a_node7"><a xlink:href="structdg_1_1geo_1_1taylor_1_1_psip_r.html" target="_top" xlink:title=" ">
<polygon fill="none" stroke="black" points="180,-0.5 180,-19.5 292,-19.5 292,-0.5 180,-0.5"/>
<text text-anchor="middle" x="236" y="-7.5" font-family="Helvetica,sans-Serif" font-size="10.00">dg::geo::taylor::PsipR</text>
</a>
</g>
</g>
<!-- Node0&#45;&gt;Node6 -->
<g id="edge6" class="edge">
<title>Node0&#45;&gt;Node6</title>
<path fill="none" stroke="midnightblue" d="M92.8,-91.61C112.8,-72.62 143.75,-45.86 175,-29 181.92,-25.26 189.7,-22.13 197.3,-19.55"/>
<polygon fill="midnightblue" stroke="midnightblue" points="90.2,-89.26 85.44,-98.72 95.06,-94.29 90.2,-89.26"/>
</g>
</g>
</svg>
