<?xml version="1.0" encoding="UTF-8" standalone="no"?>
<!DOCTYPE svg PUBLIC "-//W3C//DTD SVG 1.1//EN"
 "http://www.w3.org/Graphics/SVG/1.1/DTD/svg11.dtd">
<!-- Generated by graphviz version 2.43.0 (0)
 -->
<!-- Title: dg::geo::RealCurvilinearProductMPIGrid3d&lt; real_type &gt; Pages: 1 -->
<svg width="172pt" height="251pt"
 viewBox="0.00 0.00 172.00 251.00" xmlns="http://www.w3.org/2000/svg" xmlns:xlink="http://www.w3.org/1999/xlink">
<g id="graph0" class="graph" transform="scale(1 1) rotate(0) translate(4 247)">
<title>dg::geo::RealCurvilinearProductMPIGrid3d&lt; real_type &gt;</title>
<!-- Node1 -->
<g id="node1" class="node">
<title>Node1</title>
<g id="a_node1"><a xlink:title="A 2x1 curvilinear product space MPI grid.">
<polygon fill="#bfbfbf" stroke="black" points="21,-0.5 21,-41.5 143,-41.5 143,-0.5 21,-0.5"/>
<text text-anchor="start" x="29" y="-29.5" font-family="Helvetica,sans-Serif" font-size="10.00">dg::geo::RealCurvilinear</text>
<text text-anchor="start" x="29" y="-18.5" font-family="Helvetica,sans-Serif" font-size="10.00">ProductMPIGrid3d&lt; real</text>
<text text-anchor="middle" x="82" y="-7.5" font-family="Helvetica,sans-Serif" font-size="10.00">_type &gt;</text>
</a>
</g>
</g>
<!-- Node2 -->
<g id="node2" class="node">
<title>Node2</title>
<g id="a_node2"><a target="_parent" xlink:href="../../dg/html/structdg_1_1a_real_product_m_p_i_geometry3d" xlink:title=" ">
<polygon fill="none" stroke="black" points="0,-78.5 0,-108.5 164,-108.5 164,-78.5 0,-78.5"/>
<text text-anchor="start" x="8" y="-96.5" font-family="Helvetica,sans-Serif" font-size="10.00">dg::aRealProductMPIGeometry3d</text>
<text text-anchor="middle" x="82" y="-85.5" font-family="Helvetica,sans-Serif" font-size="10.00">&lt; real_type &gt;</text>
</a>
</g>
</g>
<!-- Node2&#45;&gt;Node1 -->
<g id="edge1" class="edge">
<title>Node2&#45;&gt;Node1</title>
<path fill="none" stroke="midnightblue" d="M82,-67.98C82,-59.35 82,-49.76 82,-41.59"/>
<polygon fill="midnightblue" stroke="midnightblue" points="78.5,-68.23 82,-78.23 85.5,-68.23 78.5,-68.23"/>
</g>
<!-- Node3 -->
<g id="node3" class="node">
<title>Node3</title>
<g id="a_node3"><a target="_parent" xlink:href="../../dg/html/structdg_1_1a_real_m_p_i_geometry3d" xlink:title=" ">
<polygon fill="none" stroke="black" points="17,-145.5 17,-175.5 147,-175.5 147,-145.5 17,-145.5"/>
<text text-anchor="start" x="25" y="-163.5" font-family="Helvetica,sans-Serif" font-size="10.00">dg::aRealMPIGeometry3d</text>
<text text-anchor="middle" x="82" y="-152.5" font-family="Helvetica,sans-Serif" font-size="10.00">&lt; class real_type &gt;</text>
</a>
</g>
</g>
<!-- Node3&#45;&gt;Node2 -->
<g id="edge2" class="edge">
<title>Node3&#45;&gt;Node2</title>
<path fill="none" stroke="midnightblue" d="M82,-135.11C82,-126.15 82,-116.32 82,-108.58"/>
<polygon fill="midnightblue" stroke="midnightblue" points="78.5,-135.4 82,-145.4 85.5,-135.4 78.5,-135.4"/>
</g>
<!-- Node4 -->
<g id="node4" class="node">
<title>Node4</title>
<g id="a_node4"><a target="_parent" xlink:href="../../dg/html/structdg_1_1a_real_m_p_i_topology3d" xlink:title=" ">
<polygon fill="none" stroke="black" points="19,-212.5 19,-242.5 145,-242.5 145,-212.5 19,-212.5"/>
<text text-anchor="start" x="27" y="-230.5" font-family="Helvetica,sans-Serif" font-size="10.00">dg::aRealMPITopology3d</text>
<text text-anchor="middle" x="82" y="-219.5" font-family="Helvetica,sans-Serif" font-size="10.00">&lt; class real_type &gt;</text>
</a>
</g>
</g>
<!-- Node4&#45;&gt;Node3 -->
<g id="edge3" class="edge">
<title>Node4&#45;&gt;Node3</title>
<path fill="none" stroke="midnightblue" d="M82,-202.11C82,-193.15 82,-183.32 82,-175.58"/>
<polygon fill="midnightblue" stroke="midnightblue" points="78.5,-202.4 82,-212.4 85.5,-202.4 78.5,-202.4"/>
</g>
</g>
</svg>
