<?xml version="1.0" encoding="UTF-8" standalone="no"?>
<!DOCTYPE svg PUBLIC "-//W3C//DTD SVG 1.1//EN"
 "http://www.w3.org/Graphics/SVG/1.1/DTD/svg11.dtd">
<!-- Generated by graphviz version 2.43.0 (0)
 -->
<!-- Title: dg::geo::aRealGenerator2d&lt; real_type &gt; Pages: 1 -->
<svg width="325pt" height="372pt"
 viewBox="0.00 0.00 325.00 372.00" xmlns="http://www.w3.org/2000/svg" xmlns:xlink="http://www.w3.org/1999/xlink">
<g id="graph0" class="graph" transform="scale(1 1) rotate(0) translate(4 368)">
<title>dg::geo::aRealGenerator2d&lt; real_type &gt;</title>
<!-- Node1 -->
<g id="node1" class="node">
<title>Node1</title>
<g id="a_node1"><a xlink:title="The abstract generator base class.">
<polygon fill="#bfbfbf" stroke="black" points="0,-161.5 0,-191.5 134,-191.5 134,-161.5 0,-161.5"/>
<text text-anchor="start" x="8" y="-179.5" font-family="Helvetica,sans-Serif" font-size="10.00">dg::geo::aRealGenerator2d</text>
<text text-anchor="middle" x="67" y="-168.5" font-family="Helvetica,sans-Serif" font-size="10.00">&lt; real_type &gt;</text>
</a>
</g>
</g>
<!-- Node2 -->
<g id="node2" class="node">
<title>Node2</title>
<g id="a_node2"><a xlink:href="structdg_1_1geo_1_1_d_s_p_generator.html" target="_top" xlink:title="A transformed field grid generator.">
<polygon fill="none" stroke="black" points="184,-333.5 184,-363.5 303,-363.5 303,-333.5 184,-333.5"/>
<text text-anchor="start" x="192" y="-351.5" font-family="Helvetica,sans-Serif" font-size="10.00">dg::geo::DSPGenerator</text>
<text text-anchor="middle" x="243.5" y="-340.5" font-family="Helvetica,sans-Serif" font-size="10.00">&lt; double &gt;</text>
</a>
</g>
</g>
<!-- Node1&#45;&gt;Node2 -->
<g id="edge1" class="edge">
<title>Node1&#45;&gt;Node2</title>
<path fill="none" stroke="midnightblue" d="M78.83,-201.28C94.4,-234.07 126.11,-291.58 170,-324.5 174.56,-327.92 179.64,-330.87 184.92,-333.41"/>
<polygon fill="midnightblue" stroke="midnightblue" points="81.9,-199.56 74.53,-191.95 75.54,-202.49 81.9,-199.56"/>
</g>
<!-- Node3 -->
<g id="node3" class="node">
<title>Node3</title>
<g id="a_node3"><a xlink:href="structdg_1_1geo_1_1_flux_generator.html" target="_top" xlink:title="A symmetry flux generator.">
<polygon fill="none" stroke="black" points="185.5,-284.5 185.5,-314.5 301.5,-314.5 301.5,-284.5 185.5,-284.5"/>
<text text-anchor="start" x="193.5" y="-302.5" font-family="Helvetica,sans-Serif" font-size="10.00">dg::geo::FluxGenerator</text>
<text text-anchor="middle" x="243.5" y="-291.5" font-family="Helvetica,sans-Serif" font-size="10.00">&lt; double &gt;</text>
</a>
</g>
</g>
<!-- Node1&#45;&gt;Node3 -->
<g id="edge2" class="edge">
<title>Node1&#45;&gt;Node3</title>
<path fill="none" stroke="midnightblue" d="M86.48,-199.72C105.34,-222.01 136.51,-255.19 170,-275.5 175.56,-278.87 181.64,-281.83 187.85,-284.41"/>
<polygon fill="midnightblue" stroke="midnightblue" points="88.96,-197.23 79.88,-191.77 83.57,-201.7 88.96,-197.23"/>
</g>
<!-- Node4 -->
<g id="node4" class="node">
<title>Node4</title>
<g id="a_node4"><a xlink:href="structdg_1_1geo_1_1_hector.html" target="_top" xlink:title="The High PrEcision Conformal grid generaTOR.">
<polygon fill="none" stroke="black" points="180.5,-235.5 180.5,-265.5 306.5,-265.5 306.5,-235.5 180.5,-235.5"/>
<text text-anchor="start" x="188.5" y="-253.5" font-family="Helvetica,sans-Serif" font-size="10.00">dg::geo::Hector&lt; IMatrix,</text>
<text text-anchor="middle" x="243.5" y="-242.5" font-family="Helvetica,sans-Serif" font-size="10.00"> Matrix, container &gt;</text>
</a>
</g>
</g>
<!-- Node1&#45;&gt;Node4 -->
<g id="edge3" class="edge">
<title>Node1&#45;&gt;Node4</title>
<path fill="none" stroke="midnightblue" d="M105.08,-196.19C124.19,-205.95 148.03,-217.53 170,-226.5 177.61,-229.61 185.79,-232.62 193.81,-235.4"/>
<polygon fill="midnightblue" stroke="midnightblue" points="106.6,-193.04 96.1,-191.56 103.39,-199.26 106.6,-193.04"/>
</g>
<!-- Node5 -->
<g id="node5" class="node">
<title>Node5</title>
<g id="a_node5"><a xlink:href="structdg_1_1geo_1_1_log_polar_generator.html" target="_top" xlink:title="Log Polar coordinates (conformal)">
<polygon fill="none" stroke="black" points="175.5,-186.5 175.5,-216.5 311.5,-216.5 311.5,-186.5 175.5,-186.5"/>
<text text-anchor="start" x="183.5" y="-204.5" font-family="Helvetica,sans-Serif" font-size="10.00">dg::geo::LogPolarGenerator</text>
<text text-anchor="middle" x="243.5" y="-193.5" font-family="Helvetica,sans-Serif" font-size="10.00">&lt; double &gt;</text>
</a>
</g>
</g>
<!-- Node1&#45;&gt;Node5 -->
<g id="edge4" class="edge">
<title>Node1&#45;&gt;Node5</title>
<path fill="none" stroke="midnightblue" d="M144.62,-187.48C154.86,-188.94 165.29,-190.44 175.35,-191.88"/>
<polygon fill="midnightblue" stroke="midnightblue" points="144.86,-183.98 134.47,-186.02 143.87,-190.91 144.86,-183.98"/>
</g>
<!-- Node6 -->
<g id="node6" class="node">
<title>Node6</title>
<g id="a_node6"><a xlink:href="structdg_1_1geo_1_1_polar_generator.html" target="_top" xlink:title="Polar coordinates.">
<polygon fill="none" stroke="black" points="183.5,-137.5 183.5,-167.5 303.5,-167.5 303.5,-137.5 183.5,-137.5"/>
<text text-anchor="start" x="191.5" y="-155.5" font-family="Helvetica,sans-Serif" font-size="10.00">dg::geo::PolarGenerator</text>
<text text-anchor="middle" x="243.5" y="-144.5" font-family="Helvetica,sans-Serif" font-size="10.00">&lt; double &gt;</text>
</a>
</g>
</g>
<!-- Node1&#45;&gt;Node6 -->
<g id="edge5" class="edge">
<title>Node1&#45;&gt;Node6</title>
<path fill="none" stroke="midnightblue" d="M144.76,-165.94C157.7,-164.16 170.95,-162.34 183.36,-160.63"/>
<polygon fill="midnightblue" stroke="midnightblue" points="143.9,-162.53 134.47,-167.36 144.85,-169.46 143.9,-162.53"/>
</g>
<!-- Node7 -->
<g id="node7" class="node">
<title>Node7</title>
<g id="a_node7"><a xlink:href="structdg_1_1geo_1_1_ribeiro.html" target="_top" xlink:title="A two&#45;dimensional grid based on &quot;almost&#45;conformal&quot; coordinates by Ribeiro and Scott 2010.">
<polygon fill="none" stroke="black" points="177.5,-99 177.5,-118 309.5,-118 309.5,-99 177.5,-99"/>
<text text-anchor="middle" x="243.5" y="-106" font-family="Helvetica,sans-Serif" font-size="10.00">dg::geo::Ribeiro&lt; double &gt;</text>
</a>
</g>
</g>
<!-- Node1&#45;&gt;Node7 -->
<g id="edge6" class="edge">
<title>Node1&#45;&gt;Node7</title>
<path fill="none" stroke="midnightblue" d="M106.06,-156.69C124.96,-147.35 148.33,-136.52 170,-128.5 180.53,-124.6 192.17,-121.07 202.98,-118.09"/>
<polygon fill="midnightblue" stroke="midnightblue" points="104.27,-153.68 96.89,-161.28 107.4,-159.94 104.27,-153.68"/>
</g>
<!-- Node8 -->
<g id="node8" class="node">
<title>Node8</title>
<g id="a_node8"><a xlink:href="structdg_1_1geo_1_1_ribeiro_flux_generator.html" target="_top" xlink:title="Same as the Ribeiro class just but uses psi as a flux label directly.">
<polygon fill="none" stroke="black" points="170,-49.5 170,-79.5 317,-79.5 317,-49.5 170,-49.5"/>
<text text-anchor="start" x="178" y="-67.5" font-family="Helvetica,sans-Serif" font-size="10.00">dg::geo::RibeiroFluxGenerator</text>
<text text-anchor="middle" x="243.5" y="-56.5" font-family="Helvetica,sans-Serif" font-size="10.00">&lt; double &gt;</text>
</a>
</g>
</g>
<!-- Node1&#45;&gt;Node8 -->
<g id="edge7" class="edge">
<title>Node1&#45;&gt;Node8</title>
<path fill="none" stroke="midnightblue" d="M89.34,-154.06C108.79,-134.69 139.14,-107.14 170,-89.5 176.59,-85.73 183.84,-82.41 191.13,-79.51"/>
<polygon fill="midnightblue" stroke="midnightblue" points="86.73,-151.72 82.19,-161.29 91.71,-156.64 86.73,-151.72"/>
</g>
<!-- Node9 -->
<g id="node9" class="node">
<title>Node9</title>
<g id="a_node9"><a xlink:href="structdg_1_1geo_1_1_simple_orthogonal.html" target="_top" xlink:title="Generate a simple orthogonal grid.">
<polygon fill="none" stroke="black" points="177.5,-0.5 177.5,-30.5 309.5,-30.5 309.5,-0.5 177.5,-0.5"/>
<text text-anchor="start" x="185.5" y="-18.5" font-family="Helvetica,sans-Serif" font-size="10.00">dg::geo::SimpleOrthogonal</text>
<text text-anchor="middle" x="243.5" y="-7.5" font-family="Helvetica,sans-Serif" font-size="10.00">&lt; double &gt;</text>
</a>
</g>
</g>
<!-- Node1&#45;&gt;Node9 -->
<g id="edge8" class="edge">
<title>Node1&#45;&gt;Node9</title>
<path fill="none" stroke="midnightblue" d="M80.39,-152.02C96.9,-121.72 128.89,-70.45 170,-40.5 175.27,-36.66 181.18,-33.37 187.29,-30.57"/>
<polygon fill="midnightblue" stroke="midnightblue" points="77.18,-150.6 75.58,-161.07 83.36,-153.88 77.18,-150.6"/>
</g>
</g>
</svg>
