<?xml version="1.0" encoding="UTF-8" standalone="no"?>
<!DOCTYPE svg PUBLIC "-//W3C//DTD SVG 1.1//EN"
 "http://www.w3.org/Graphics/SVG/1.1/DTD/svg11.dtd">
<!-- Generated by graphviz version 2.43.0 (0)
 -->
<!-- Title: dg::geo::RealCurvilinearRefinedProductGridX3d&lt; real_type &gt; Pages: 1 -->
<svg width="130pt" height="184pt"
 viewBox="0.00 0.00 130.00 184.00" xmlns="http://www.w3.org/2000/svg" xmlns:xlink="http://www.w3.org/1999/xlink">
<g id="graph0" class="graph" transform="scale(1 1) rotate(0) translate(4 180)">
<title>dg::geo::RealCurvilinearRefinedProductGridX3d&lt; real_type &gt;</title>
<!-- Node1 -->
<g id="node1" class="node">
<title>Node1</title>
<g id="a_node1"><a xlink:title="A three&#45;dimensional grid based on curvilinear coordinates.">
<polygon fill="#bfbfbf" stroke="black" points="0,-0.5 0,-41.5 122,-41.5 122,-0.5 0,-0.5"/>
<text text-anchor="start" x="8" y="-29.5" font-family="Helvetica,sans-Serif" font-size="10.00">dg::geo::RealCurvilinear</text>
<text text-anchor="start" x="8" y="-18.5" font-family="Helvetica,sans-Serif" font-size="10.00">RefinedProductGridX3d</text>
<text text-anchor="middle" x="61" y="-7.5" font-family="Helvetica,sans-Serif" font-size="10.00">&lt; real_type &gt;</text>
</a>
</g>
</g>
<!-- Node2 -->
<g id="node2" class="node">
<title>Node2</title>
<g id="a_node2"><a target="_parent" xlink:href="../../dg/html/structdg_1_1a_real_geometry_x3d" xlink:title=" ">
<polygon fill="none" stroke="black" points="1.5,-78.5 1.5,-108.5 120.5,-108.5 120.5,-78.5 1.5,-78.5"/>
<text text-anchor="start" x="9.5" y="-96.5" font-family="Helvetica,sans-Serif" font-size="10.00">dg::aRealGeometryX3d</text>
<text text-anchor="middle" x="61" y="-85.5" font-family="Helvetica,sans-Serif" font-size="10.00">&lt; real_type &gt;</text>
</a>
</g>
</g>
<!-- Node2&#45;&gt;Node1 -->
<g id="edge1" class="edge">
<title>Node2&#45;&gt;Node1</title>
<path fill="none" stroke="midnightblue" d="M61,-67.98C61,-59.35 61,-49.76 61,-41.59"/>
<polygon fill="midnightblue" stroke="midnightblue" points="57.5,-68.23 61,-78.23 64.5,-68.23 57.5,-68.23"/>
</g>
<!-- Node3 -->
<g id="node3" class="node">
<title>Node3</title>
<g id="a_node3"><a target="_parent" xlink:href="../../dg/html/structdg_1_1a_real_topology_x3d" xlink:title=" ">
<polygon fill="none" stroke="black" points="3.5,-145.5 3.5,-175.5 118.5,-175.5 118.5,-145.5 3.5,-145.5"/>
<text text-anchor="start" x="11.5" y="-163.5" font-family="Helvetica,sans-Serif" font-size="10.00">dg::aRealTopologyX3d</text>
<text text-anchor="middle" x="61" y="-152.5" font-family="Helvetica,sans-Serif" font-size="10.00">&lt; class real_type &gt;</text>
</a>
</g>
</g>
<!-- Node3&#45;&gt;Node2 -->
<g id="edge2" class="edge">
<title>Node3&#45;&gt;Node2</title>
<path fill="none" stroke="midnightblue" d="M61,-135.11C61,-126.15 61,-116.32 61,-108.58"/>
<polygon fill="midnightblue" stroke="midnightblue" points="57.5,-135.4 61,-145.4 64.5,-135.4 57.5,-135.4"/>
</g>
</g>
</svg>
