<?xml version="1.0" encoding="UTF-8" standalone="no"?>
<!DOCTYPE svg PUBLIC "-//W3C//DTD SVG 1.1//EN"
 "http://www.w3.org/Graphics/SVG/1.1/DTD/svg11.dtd">
<!-- Generated by graphviz version 2.43.0 (0)
 -->
<!-- Title: blas1::evaluate binary operators Pages: 1 -->
<svg width="526pt" height="45pt"
 viewBox="0.00 0.00 526.00 45.00" xmlns="http://www.w3.org/2000/svg" xmlns:xlink="http://www.w3.org/1999/xlink">
<g id="graph0" class="graph" transform="scale(1 1) rotate(0) translate(4 41)">
<title>blas1::evaluate binary operators</title>
<!-- Node1 -->
<g id="node1" class="node">
<title>Node1</title>
<g id="a_node1"><a xlink:title="Binary subroutines for the dg::blas1::evaluate function.">
<polygon fill="#bfbfbf" stroke="black" points="286,-30 174,-30 174,0 286,0 286,-30"/>
<text text-anchor="start" x="182" y="-18" font-family="Helvetica,sans-Serif" font-size="10.00">blas1::evaluate binary</text>
<text text-anchor="middle" x="230" y="-7" font-family="Helvetica,sans-Serif" font-size="10.00"> operators</text>
</a>
</g>
</g>
<!-- Node3 -->
<g id="node3" class="node">
<title>Node3</title>
<g id="a_node3"><a xlink:href="group__variadic__subroutines.html" target="_top" xlink:title="Functors to use in the dg::blas1::subroutine functions.">
<polygon fill="none" stroke="black" points="518,-24.5 374,-24.5 374,-5.5 518,-5.5 518,-24.5"/>
<text text-anchor="middle" x="446" y="-12.5" font-family="Helvetica,sans-Serif" font-size="10.00">blas1::subroutine subroutines</text>
</a>
</g>
</g>
<!-- Node1&#45;&gt;Node3 -->
<g id="edge2" class="edge">
<title>Node1&#45;&gt;Node3</title>
<path fill="none" stroke="orange" stroke-dasharray="5,2" d="M286.11,-15C312.86,-15 345.32,-15 373.91,-15"/>
<text text-anchor="middle" x="330" y="-29" font-family="Helvetica,sans-Serif" font-size="10.00">dg::Axpby</text>
<text text-anchor="middle" x="330" y="-18" font-family="Helvetica,sans-Serif" font-size="10.00">dg::AxyPby</text>
</g>
<!-- Node2 -->
<g id="node2" class="node">
<title>Node2</title>
<g id="a_node2"><a xlink:href="group__blas1__helpers.html" target="_top" xlink:title=" ">
<polygon fill="none" stroke="black" points="137,-30 0,-30 0,0 137,0 137,-30"/>
<text text-anchor="start" x="8" y="-18" font-family="Helvetica,sans-Serif" font-size="10.00">Functions and functors</text>
<text text-anchor="middle" x="68.5" y="-7" font-family="Helvetica,sans-Serif" font-size="10.00"> for subroutine and evaluate</text>
</a>
</g>
</g>
<!-- Node2&#45;&gt;Node1 -->
<g id="edge1" class="edge">
<title>Node2&#45;&gt;Node1</title>
<path fill="none" stroke="black" d="M147.23,-15C156.21,-15 165.22,-15 173.8,-15"/>
<polygon fill="black" stroke="black" points="147.14,-11.5 137.14,-15 147.14,-18.5 147.14,-11.5"/>
</g>
</g>
</svg>
