<?xml version="1.0" encoding="UTF-8" standalone="no"?>
<!DOCTYPE svg PUBLIC "-//W3C//DTD SVG 1.1//EN"
 "http://www.w3.org/Graphics/SVG/1.1/DTD/svg11.dtd">
<!-- Generated by graphviz version 2.43.0 (0)
 -->
<!-- Title: Level 4: Advanced numerical schemes Pages: 1 -->
<svg width="311pt" height="101pt"
 viewBox="0.00 0.00 311.00 101.00" xmlns="http://www.w3.org/2000/svg" xmlns:xlink="http://www.w3.org/1999/xlink">
<g id="graph0" class="graph" transform="scale(1 1) rotate(0) translate(4 97)">
<title>Level 4: Advanced numerical schemes</title>
<!-- Node2 -->
<g id="node1" class="node">
<title>Node2</title>
<g id="a_node1"><a xlink:href="group__arakawa.html" target="_top" xlink:title="and">
<polygon fill="none" stroke="black" points="284.5,-93 196.5,-93 196.5,-74 284.5,-74 284.5,-93"/>
<text text-anchor="middle" x="240.5" y="-81" font-family="Helvetica,sans-Serif" font-size="10.00">Advection terms</text>
</a>
</g>
</g>
<!-- Node3 -->
<g id="node2" class="node">
<title>Node3</title>
<g id="a_node2"><a xlink:href="group__matrixoperators.html" target="_top" xlink:title="Elliptic &#160;and Helmholtz .">
<polygon fill="none" stroke="black" points="284,-56 197,-56 197,-37 284,-37 284,-56"/>
<text text-anchor="middle" x="240.5" y="-44" font-family="Helvetica,sans-Serif" font-size="10.00">Matrix operators</text>
</a>
</g>
</g>
<!-- Node4 -->
<g id="node3" class="node">
<title>Node4</title>
<g id="a_node3"><a xlink:href="group__multigrid.html" target="_top" xlink:title=" ">
<polygon fill="none" stroke="black" points="303,-19 178,-19 178,0 303,0 303,-19"/>
<text text-anchor="middle" x="240.5" y="-7" font-family="Helvetica,sans-Serif" font-size="10.00">Multigrid matrix inversion</text>
</a>
</g>
</g>
<!-- Node1 -->
<g id="node4" class="node">
<title>Node1</title>
<g id="a_node4"><a xlink:title=" ">
<polygon fill="#bfbfbf" stroke="black" points="142,-61.5 0,-61.5 0,-31.5 142,-31.5 142,-61.5"/>
<text text-anchor="start" x="8" y="-49.5" font-family="Helvetica,sans-Serif" font-size="10.00">Level 4: Advanced numerical</text>
<text text-anchor="middle" x="71" y="-38.5" font-family="Helvetica,sans-Serif" font-size="10.00"> schemes</text>
</a>
</g>
</g>
<!-- Node1&#45;&gt;Node2 -->
<g id="edge1" class="edge">
<title>Node1&#45;&gt;Node2</title>
<path fill="none" stroke="black" d="M150.01,-63.73C165.98,-67.26 182.23,-70.85 196.42,-73.98"/>
<polygon fill="black" stroke="black" points="150.65,-60.29 140.13,-61.55 149.14,-67.12 150.65,-60.29"/>
</g>
<!-- Node1&#45;&gt;Node3 -->
<g id="edge2" class="edge">
<title>Node1&#45;&gt;Node3</title>
<path fill="none" stroke="black" d="M152.18,-46.5C167.65,-46.5 183.28,-46.5 196.96,-46.5"/>
<polygon fill="black" stroke="black" points="152.06,-43 142.06,-46.5 152.06,-50 152.06,-43"/>
</g>
<!-- Node1&#45;&gt;Node4 -->
<g id="edge3" class="edge">
<title>Node1&#45;&gt;Node4</title>
<path fill="none" stroke="black" d="M150.01,-29.27C165.98,-25.74 182.23,-22.15 196.42,-19.02"/>
<polygon fill="black" stroke="black" points="149.14,-25.88 140.13,-31.45 150.65,-32.71 149.14,-25.88"/>
</g>
</g>
</svg>
