<?xml version="1.0" encoding="UTF-8" standalone="no"?>
<!DOCTYPE svg PUBLIC "-//W3C//DTD SVG 1.1//EN"
 "http://www.w3.org/Graphics/SVG/1.1/DTD/svg11.dtd">
<!-- Generated by graphviz version 2.43.0 (0)
 -->
<!-- Title: Functions and functors for subroutine and evaluate Pages: 1 -->
<svg width="477pt" height="247pt"
 viewBox="0.00 0.00 477.00 247.00" xmlns="http://www.w3.org/2000/svg" xmlns:xlink="http://www.w3.org/1999/xlink">
<g id="graph0" class="graph" transform="scale(1 1) rotate(0) translate(4 243)">
<title>Functions and functors for subroutine and evaluate</title>
<!-- Node3 -->
<g id="node1" class="node">
<title>Node3</title>
<g id="a_node1"><a xlink:href="group__basics.html" target="_top" xlink:title="For the dg::evaluate and dg::blas1::evaluate functions.">
<polygon fill="none" stroke="black" points="420.5,-239 373.5,-239 373.5,-220 420.5,-220 420.5,-239"/>
<text text-anchor="middle" x="397" y="-227" font-family="Helvetica,sans-Serif" font-size="10.00">Simple</text>
</a>
</g>
</g>
<!-- Node6 -->
<g id="node2" class="node">
<title>Node6</title>
<g id="a_node2"><a xlink:href="group__binary__operators.html" target="_top" xlink:title="Binary subroutines for the dg::blas1::evaluate function.">
<polygon fill="none" stroke="black" points="453,-201.5 341,-201.5 341,-171.5 453,-171.5 453,-201.5"/>
<text text-anchor="start" x="349" y="-189.5" font-family="Helvetica,sans-Serif" font-size="10.00">blas1::evaluate binary</text>
<text text-anchor="middle" x="397" y="-178.5" font-family="Helvetica,sans-Serif" font-size="10.00"> operators</text>
</a>
</g>
</g>
<!-- Node1 -->
<g id="node3" class="node">
<title>Node1</title>
<g id="a_node3"><a xlink:title=" ">
<polygon fill="#bfbfbf" stroke="black" points="289,-131.5 152,-131.5 152,-101.5 289,-101.5 289,-131.5"/>
<text text-anchor="start" x="160" y="-119.5" font-family="Helvetica,sans-Serif" font-size="10.00">Functions and functors</text>
<text text-anchor="middle" x="220.5" y="-108.5" font-family="Helvetica,sans-Serif" font-size="10.00"> for subroutine and evaluate</text>
</a>
</g>
</g>
<!-- Node1&#45;&gt;Node3 -->
<g id="edge2" class="edge">
<title>Node1&#45;&gt;Node3</title>
<path fill="none" stroke="black" d="M240.65,-139.27C259.86,-160.7 291.37,-192.15 325,-210.5 340.01,-218.69 358.76,-223.51 373.22,-226.25"/>
<polygon fill="black" stroke="black" points="243.14,-136.8 233.91,-131.6 237.88,-141.42 243.14,-136.8"/>
</g>
<!-- Node1&#45;&gt;Node6 -->
<g id="edge5" class="edge">
<title>Node1&#45;&gt;Node6</title>
<path fill="none" stroke="black" d="M262.54,-135.79C281.4,-144.38 304.16,-154.37 325,-162.5 332.88,-165.57 341.33,-168.64 349.56,-171.49"/>
<polygon fill="black" stroke="black" points="263.9,-132.56 253.35,-131.57 260.98,-138.92 263.9,-132.56"/>
</g>
<!-- Node5 -->
<g id="node4" class="node">
<title>Node5</title>
<g id="a_node4"><a xlink:href="group__composition.html" target="_top" xlink:title=" ">
<polygon fill="none" stroke="black" points="447.5,-153.5 346.5,-153.5 346.5,-123.5 447.5,-123.5 447.5,-153.5"/>
<text text-anchor="start" x="354.5" y="-141.5" font-family="Helvetica,sans-Serif" font-size="10.00">Composition of two</text>
<text text-anchor="middle" x="397" y="-130.5" font-family="Helvetica,sans-Serif" font-size="10.00"> or more functors</text>
</a>
</g>
</g>
<!-- Node1&#45;&gt;Node5 -->
<g id="edge4" class="edge">
<title>Node1&#45;&gt;Node5</title>
<path fill="none" stroke="black" d="M299.78,-126.37C315.6,-128.36 331.82,-130.41 346.32,-132.24"/>
<polygon fill="black" stroke="black" points="299.83,-122.85 289.47,-125.07 298.95,-129.79 299.83,-122.85"/>
</g>
<!-- Node4 -->
<g id="node5" class="node">
<title>Node4</title>
<g id="a_node5"><a xlink:href="group__functions.html" target="_top" xlink:title="For the dg::evaluate and dg::blas1::evaluate functions.">
<polygon fill="none" stroke="black" points="442.5,-105 351.5,-105 351.5,-86 442.5,-86 442.5,-105"/>
<text text-anchor="middle" x="397" y="-93" font-family="Helvetica,sans-Serif" font-size="10.00">A large collection</text>
</a>
</g>
</g>
<!-- Node1&#45;&gt;Node4 -->
<g id="edge3" class="edge">
<title>Node1&#45;&gt;Node4</title>
<path fill="none" stroke="black" d="M299.79,-107.08C317.46,-104.95 335.62,-102.77 351.34,-100.88"/>
<polygon fill="black" stroke="black" points="298.98,-103.65 289.47,-108.32 299.81,-110.6 298.98,-103.65"/>
</g>
<!-- Node7 -->
<g id="node7" class="node">
<title>Node7</title>
<g id="a_node7"><a xlink:href="group__variadic__evaluates.html" target="_top" xlink:title="Functors to use in the dg::blas1::evaluate function.">
<polygon fill="none" stroke="black" points="456.5,-67.5 337.5,-67.5 337.5,-37.5 456.5,-37.5 456.5,-67.5"/>
<text text-anchor="start" x="345.5" y="-55.5" font-family="Helvetica,sans-Serif" font-size="10.00">blas1::evaluate variadic</text>
<text text-anchor="middle" x="397" y="-44.5" font-family="Helvetica,sans-Serif" font-size="10.00"> functors</text>
</a>
</g>
</g>
<!-- Node1&#45;&gt;Node7 -->
<g id="edge6" class="edge">
<title>Node1&#45;&gt;Node7</title>
<path fill="none" stroke="black" d="M268.69,-97.77C286.3,-90.91 306.51,-83.2 325,-76.5 333.2,-73.53 341.97,-70.47 350.45,-67.58"/>
<polygon fill="black" stroke="black" points="267.24,-94.58 259.21,-101.48 269.79,-101.1 267.24,-94.58"/>
</g>
<!-- Node8 -->
<g id="node8" class="node">
<title>Node8</title>
<g id="a_node8"><a xlink:href="group__variadic__subroutines.html" target="_top" xlink:title="Functors to use in the dg::blas1::subroutine functions.">
<polygon fill="none" stroke="black" points="469,-19 325,-19 325,0 469,0 469,-19"/>
<text text-anchor="middle" x="397" y="-7" font-family="Helvetica,sans-Serif" font-size="10.00">blas1::subroutine subroutines</text>
</a>
</g>
</g>
<!-- Node1&#45;&gt;Node8 -->
<g id="edge7" class="edge">
<title>Node1&#45;&gt;Node8</title>
<path fill="none" stroke="black" d="M242.19,-93.95C261.72,-73.97 292.73,-45.43 325,-28.5 332.35,-24.65 340.54,-21.53 348.67,-19.01"/>
<polygon fill="black" stroke="black" points="239.44,-91.76 235.05,-101.4 244.5,-96.6 239.44,-91.76"/>
</g>
<!-- Node2 -->
<g id="node6" class="node">
<title>Node2</title>
<g id="a_node6"><a xlink:href="group__misc.html" target="_top" xlink:title=" ">
<polygon fill="none" stroke="black" points="116,-131.5 0,-131.5 0,-101.5 116,-101.5 116,-131.5"/>
<text text-anchor="start" x="8" y="-119.5" font-family="Helvetica,sans-Serif" font-size="10.00">Level 0: Miscellaneous</text>
<text text-anchor="middle" x="58" y="-108.5" font-family="Helvetica,sans-Serif" font-size="10.00"> additions</text>
</a>
</g>
</g>
<!-- Node2&#45;&gt;Node1 -->
<g id="edge1" class="edge">
<title>Node2&#45;&gt;Node1</title>
<path fill="none" stroke="black" d="M126.27,-116.5C134.76,-116.5 143.45,-116.5 151.94,-116.5"/>
<polygon fill="black" stroke="black" points="126.04,-113 116.04,-116.5 126.04,-120 126.04,-113"/>
</g>
</g>
</svg>
