<?xml version="1.0" encoding="UTF-8" standalone="no"?>
<!DOCTYPE svg PUBLIC "-//W3C//DTD SVG 1.1//EN"
 "http://www.w3.org/Graphics/SVG/1.1/DTD/svg11.dtd">
<!-- Generated by graphviz version 2.43.0 (0)
 -->
<!-- Title: Level 2: Basic numerical algorithms Pages: 1 -->
<svg width="291pt" height="187pt"
 viewBox="0.00 0.00 291.00 187.00" xmlns="http://www.w3.org/2000/svg" xmlns:xlink="http://www.w3.org/1999/xlink">
<g id="graph0" class="graph" transform="scale(1 1) rotate(0) translate(4 183)">
<title>Level 2: Basic numerical algorithms</title>
<!-- Node5 -->
<g id="node1" class="node">
<title>Node5</title>
<g id="a_node1"><a xlink:href="group__extrapolation.html" target="_top" xlink:title=" ">
<polygon fill="none" stroke="black" points="258.5,-179 184.5,-179 184.5,-160 258.5,-160 258.5,-179"/>
<text text-anchor="middle" x="221.5" y="-167" font-family="Helvetica,sans-Serif" font-size="10.00">Extrapolation</text>
</a>
</g>
</g>
<!-- Node4 -->
<g id="node2" class="node">
<title>Node4</title>
<g id="a_node2"><a xlink:href="group__integration.html" target="_top" xlink:title=" ">
<polygon fill="none" stroke="black" points="254,-142 189,-142 189,-123 254,-123 254,-142"/>
<text text-anchor="middle" x="221.5" y="-130" font-family="Helvetica,sans-Serif" font-size="10.00">Quadrature</text>
</a>
</g>
</g>
<!-- Node6 -->
<g id="node3" class="node">
<title>Node6</title>
<g id="a_node3"><a xlink:href="group__invert.html" target="_top" xlink:title="Linear &#160;and non&#45;linear .">
<polygon fill="none" stroke="black" points="273.5,-104.5 169.5,-104.5 169.5,-74.5 273.5,-74.5 273.5,-104.5"/>
<text text-anchor="start" x="177.5" y="-92.5" font-family="Helvetica,sans-Serif" font-size="10.00">Linear and nonlinear</text>
<text text-anchor="middle" x="221.5" y="-81.5" font-family="Helvetica,sans-Serif" font-size="10.00"> solvers</text>
</a>
</g>
</g>
<!-- Node1 -->
<g id="node4" class="node">
<title>Node1</title>
<g id="a_node4"><a xlink:title=" ">
<polygon fill="#bfbfbf" stroke="black" points="124,-104.5 0,-104.5 0,-74.5 124,-74.5 124,-104.5"/>
<text text-anchor="start" x="8" y="-92.5" font-family="Helvetica,sans-Serif" font-size="10.00">Level 2: Basic numerical</text>
<text text-anchor="middle" x="62" y="-81.5" font-family="Helvetica,sans-Serif" font-size="10.00"> algorithms</text>
</a>
</g>
</g>
<!-- Node1&#45;&gt;Node5 -->
<g id="edge4" class="edge">
<title>Node1&#45;&gt;Node5</title>
<path fill="none" stroke="black" d="M91.22,-110.53C109.95,-123.73 135.52,-140.31 160,-151.5 167.67,-155.01 176.2,-158.04 184.38,-160.55"/>
<polygon fill="black" stroke="black" points="93.03,-107.53 82.86,-104.55 88.96,-113.22 93.03,-107.53"/>
</g>
<!-- Node1&#45;&gt;Node4 -->
<g id="edge3" class="edge">
<title>Node1&#45;&gt;Node4</title>
<path fill="none" stroke="black" d="M127.91,-107.22C148.87,-112.94 171.17,-119.03 188.63,-123.8"/>
<polygon fill="black" stroke="black" points="128.65,-103.8 118.09,-104.54 126.81,-110.55 128.65,-103.8"/>
</g>
<!-- Node1&#45;&gt;Node6 -->
<g id="edge5" class="edge">
<title>Node1&#45;&gt;Node6</title>
<path fill="none" stroke="black" d="M134.55,-89.5C146.26,-89.5 158.17,-89.5 169.26,-89.5"/>
<polygon fill="black" stroke="black" points="134.34,-86 124.34,-89.5 134.34,-93 134.34,-86"/>
</g>
<!-- Node2 -->
<g id="node5" class="node">
<title>Node2</title>
<g id="a_node5"><a xlink:href="group__time.html" target="_top" xlink:title=" ">
<polygon fill="none" stroke="black" points="264.5,-56 178.5,-56 178.5,-37 264.5,-37 264.5,-56"/>
<text text-anchor="middle" x="221.5" y="-44" font-family="Helvetica,sans-Serif" font-size="10.00">Time integration</text>
</a>
</g>
</g>
<!-- Node1&#45;&gt;Node2 -->
<g id="edge1" class="edge">
<title>Node1&#45;&gt;Node2</title>
<path fill="none" stroke="black" d="M127.93,-71.77C147.6,-66.4 168.46,-60.71 185.39,-56.09"/>
<polygon fill="black" stroke="black" points="126.81,-68.45 118.09,-74.46 128.65,-75.2 126.81,-68.45"/>
</g>
<!-- Node3 -->
<g id="node6" class="node">
<title>Node3</title>
<g id="a_node6"><a xlink:href="group__time__utils.html" target="_top" xlink:title=" ">
<polygon fill="none" stroke="black" points="283,-19 160,-19 160,0 283,0 283,-19"/>
<text text-anchor="middle" x="221.5" y="-7" font-family="Helvetica,sans-Serif" font-size="10.00">Utilities for ODE solvers</text>
</a>
</g>
</g>
<!-- Node1&#45;&gt;Node3 -->
<g id="edge2" class="edge">
<title>Node1&#45;&gt;Node3</title>
<path fill="none" stroke="black" d="M92.05,-68.46C110.76,-55.62 135.99,-39.59 160,-28.5 167.8,-24.9 176.46,-21.73 184.73,-19.06"/>
<polygon fill="black" stroke="black" points="89.89,-65.7 83.68,-74.29 93.89,-71.44 89.89,-65.7"/>
</g>
</g>
</svg>
