<?xml version="1.0" encoding="UTF-8" standalone="no"?>
<!DOCTYPE svg PUBLIC "-//W3C//DTD SVG 1.1//EN"
 "http://www.w3.org/Graphics/SVG/1.1/DTD/svg11.dtd">
<!-- Generated by graphviz version 2.43.0 (0)
 -->
<!-- Title: blas1::subroutine subroutines Pages: 1 -->
<svg width="526pt" height="45pt"
 viewBox="0.00 0.00 526.00 45.00" xmlns="http://www.w3.org/2000/svg" xmlns:xlink="http://www.w3.org/1999/xlink">
<g id="graph0" class="graph" transform="scale(1 1) rotate(0) translate(4 41)">
<title>blas1::subroutine subroutines</title>
<!-- Node3 -->
<g id="node1" class="node">
<title>Node3</title>
<g id="a_node1"><a xlink:href="group__binary__operators.html" target="_top" xlink:title="Binary subroutines for the dg::blas1::evaluate function.">
<polygon fill="none" stroke="black" points="518,-30 406,-30 406,0 518,0 518,-30"/>
<text text-anchor="start" x="414" y="-18" font-family="Helvetica,sans-Serif" font-size="10.00">blas1::evaluate binary</text>
<text text-anchor="middle" x="462" y="-7" font-family="Helvetica,sans-Serif" font-size="10.00"> operators</text>
</a>
</g>
</g>
<!-- Node2 -->
<g id="node2" class="node">
<title>Node2</title>
<g id="a_node2"><a xlink:href="group__blas1__helpers.html" target="_top" xlink:title=" ">
<polygon fill="none" stroke="black" points="137,-30 0,-30 0,0 137,0 137,-30"/>
<text text-anchor="start" x="8" y="-18" font-family="Helvetica,sans-Serif" font-size="10.00">Functions and functors</text>
<text text-anchor="middle" x="68.5" y="-7" font-family="Helvetica,sans-Serif" font-size="10.00"> for subroutine and evaluate</text>
</a>
</g>
</g>
<!-- Node1 -->
<g id="node3" class="node">
<title>Node1</title>
<g id="a_node3"><a xlink:title="Functors to use in the dg::blas1::subroutine functions.">
<polygon fill="#bfbfbf" stroke="black" points="318,-24.5 174,-24.5 174,-5.5 318,-5.5 318,-24.5"/>
<text text-anchor="middle" x="246" y="-12.5" font-family="Helvetica,sans-Serif" font-size="10.00">blas1::subroutine subroutines</text>
</a>
</g>
</g>
<!-- Node2&#45;&gt;Node1 -->
<g id="edge1" class="edge">
<title>Node2&#45;&gt;Node1</title>
<path fill="none" stroke="black" d="M147.1,-15C156.03,-15 165.11,-15 173.94,-15"/>
<polygon fill="black" stroke="black" points="147.1,-11.5 137.1,-15 147.1,-18.5 147.1,-11.5"/>
</g>
<!-- Node1&#45;&gt;Node3 -->
<g id="edge2" class="edge">
<title>Node1&#45;&gt;Node3</title>
<path fill="none" stroke="orange" stroke-dasharray="5,2" d="M318.26,-15C346.83,-15 379.25,-15 405.96,-15"/>
<text text-anchor="middle" x="362" y="-29" font-family="Helvetica,sans-Serif" font-size="10.00">dg::Axpby</text>
<text text-anchor="middle" x="362" y="-18" font-family="Helvetica,sans-Serif" font-size="10.00">dg::AxyPby</text>
</g>
</g>
</svg>
