<?xml version="1.0" encoding="UTF-8" standalone="no"?>
<!DOCTYPE svg PUBLIC "-//W3C//DTD SVG 1.1//EN"
 "http://www.w3.org/Graphics/SVG/1.1/DTD/svg11.dtd">
<!-- Generated by graphviz version 2.43.0 (0)
 -->
<!-- Title: Topological grids and operations Pages: 1 -->
<svg width="434pt" height="249pt"
 viewBox="0.00 0.00 434.00 249.00" xmlns="http://www.w3.org/2000/svg" xmlns:xlink="http://www.w3.org/1999/xlink">
<g id="graph0" class="graph" transform="scale(1 1) rotate(0) translate(4 245)">
<title>Topological grids and operations</title>
<!-- Node3 -->
<g id="node1" class="node">
<title>Node3</title>
<g id="a_node1"><a xlink:href="group__basictopology.html" target="_top" xlink:title=" ">
<polygon fill="none" stroke="black" points="417,-241 301,-241 301,-222 417,-222 417,-241"/>
<text text-anchor="middle" x="359" y="-229" font-family="Helvetica,sans-Serif" font-size="10.00">Topology base classes</text>
</a>
</g>
</g>
<!-- Node6 -->
<g id="node2" class="node">
<title>Node6</title>
<g id="a_node2"><a xlink:href="group__creation.html" target="_top" xlink:title=", &#160;and">
<polygon fill="none" stroke="black" points="406,-204 312,-204 312,-185 406,-185 406,-204"/>
<text text-anchor="middle" x="359" y="-192" font-family="Helvetica,sans-Serif" font-size="10.00">create derivatives</text>
</a>
</g>
</g>
<!-- Node4 -->
<g id="node3" class="node">
<title>Node4</title>
<g id="a_node3"><a xlink:href="group__evaluation.html" target="_top" xlink:title=" ">
<polygon fill="none" stroke="black" points="385.5,-167 332.5,-167 332.5,-148 385.5,-148 385.5,-167"/>
<text text-anchor="middle" x="359" y="-155" font-family="Helvetica,sans-Serif" font-size="10.00">evaluate</text>
</a>
</g>
</g>
<!-- Node2 -->
<g id="node4" class="node">
<title>Node2</title>
<g id="a_node4"><a xlink:href="group__geo.html" target="_top" xlink:title=" ">
<polygon fill="none" stroke="black" points="112,-135.5 0,-135.5 0,-105.5 112,-105.5 112,-135.5"/>
<text text-anchor="start" x="8" y="-123.5" font-family="Helvetica,sans-Serif" font-size="10.00">Level 3: Topology and</text>
<text text-anchor="middle" x="56" y="-112.5" font-family="Helvetica,sans-Serif" font-size="10.00"> Geometry</text>
</a>
</g>
</g>
<!-- Node1 -->
<g id="node5" class="node">
<title>Node1</title>
<g id="a_node5"><a xlink:title=" ">
<polygon fill="#bfbfbf" stroke="black" points="256,-135.5 148,-135.5 148,-105.5 256,-105.5 256,-135.5"/>
<text text-anchor="start" x="156" y="-123.5" font-family="Helvetica,sans-Serif" font-size="10.00">Topological grids and</text>
<text text-anchor="middle" x="202" y="-112.5" font-family="Helvetica,sans-Serif" font-size="10.00"> operations</text>
</a>
</g>
</g>
<!-- Node2&#45;&gt;Node1 -->
<g id="edge1" class="edge">
<title>Node2&#45;&gt;Node1</title>
<path fill="none" stroke="black" d="M122.43,-120.5C130.83,-120.5 139.36,-120.5 147.55,-120.5"/>
<polygon fill="black" stroke="black" points="122.26,-117 112.26,-120.5 122.26,-124 122.26,-117"/>
</g>
<!-- Node1&#45;&gt;Node3 -->
<g id="edge2" class="edge">
<title>Node1&#45;&gt;Node3</title>
<path fill="none" stroke="black" d="M219.55,-144C235.69,-165.21 262.12,-195.72 292,-213.5 297.72,-216.9 304.09,-219.68 310.56,-221.94"/>
<polygon fill="black" stroke="black" points="222.25,-141.77 213.48,-135.82 216.63,-145.94 222.25,-141.77"/>
</g>
<!-- Node1&#45;&gt;Node6 -->
<g id="edge5" class="edge">
<title>Node1&#45;&gt;Node6</title>
<path fill="none" stroke="black" d="M231.56,-141.52C248.45,-153.16 270.65,-167.12 292,-176.5 299.5,-179.8 307.76,-182.62 315.81,-184.99"/>
<polygon fill="black" stroke="black" points="233.44,-138.57 223.25,-135.69 229.42,-144.3 233.44,-138.57"/>
</g>
<!-- Node1&#45;&gt;Node4 -->
<g id="edge3" class="edge">
<title>Node1&#45;&gt;Node4</title>
<path fill="none" stroke="black" d="M266.16,-135.58C289.37,-141.12 314.36,-147.08 332.41,-151.39"/>
<polygon fill="black" stroke="black" points="266.88,-132.15 256.34,-133.23 265.26,-138.96 266.88,-132.15"/>
</g>
<!-- Node5 -->
<g id="node6" class="node">
<title>Node5</title>
<g id="a_node6"><a xlink:href="group__highlevel.html" target="_top" xlink:title=" ">
<polygon fill="none" stroke="black" points="399,-130 319,-130 319,-111 399,-111 399,-130"/>
<text text-anchor="middle" x="359" y="-118" font-family="Helvetica,sans-Serif" font-size="10.00">create weights</text>
</a>
</g>
</g>
<!-- Node1&#45;&gt;Node5 -->
<g id="edge4" class="edge">
<title>Node1&#45;&gt;Node5</title>
<path fill="none" stroke="black" d="M266.6,-120.5C284.27,-120.5 302.93,-120.5 318.76,-120.5"/>
<polygon fill="black" stroke="black" points="266.34,-117 256.34,-120.5 266.34,-124 266.34,-117"/>
</g>
<!-- Node7 -->
<g id="node7" class="node">
<title>Node7</title>
<g id="a_node7"><a xlink:href="group__interpolation.html" target="_top" xlink:title="and">
<polygon fill="none" stroke="black" points="426,-93 292,-93 292,-74 426,-74 426,-93"/>
<text text-anchor="middle" x="359" y="-81" font-family="Helvetica,sans-Serif" font-size="10.00">Interpolation and projection</text>
</a>
</g>
</g>
<!-- Node1&#45;&gt;Node7 -->
<g id="edge6" class="edge">
<title>Node1&#45;&gt;Node7</title>
<path fill="none" stroke="black" d="M266.42,-105.36C283.78,-101.22 302.12,-96.84 317.78,-93.1"/>
<polygon fill="black" stroke="black" points="265.26,-102.04 256.34,-107.77 266.88,-108.85 265.26,-102.04"/>
</g>
<!-- Node9 -->
<g id="node8" class="node">
<title>Node9</title>
<g id="a_node8"><a xlink:href="group__scatter.html" target="_top" xlink:title=" ">
<polygon fill="none" stroke="black" points="408.5,-56 309.5,-56 309.5,-37 408.5,-37 408.5,-56"/>
<text text-anchor="middle" x="359" y="-44" font-family="Helvetica,sans-Serif" font-size="10.00">Scatter and Gather</text>
</a>
</g>
</g>
<!-- Node1&#45;&gt;Node9 -->
<g id="edge8" class="edge">
<title>Node1&#45;&gt;Node9</title>
<path fill="none" stroke="black" d="M231.56,-99.48C248.45,-87.84 270.65,-73.88 292,-64.5 299.5,-61.2 307.76,-58.38 315.81,-56.01"/>
<polygon fill="black" stroke="black" points="229.42,-96.7 223.25,-105.31 233.44,-102.43 229.42,-96.7"/>
</g>
<!-- Node8 -->
<g id="node9" class="node">
<title>Node8</title>
<g id="a_node9"><a xlink:href="group__utilities.html" target="_top" xlink:title=" ">
<polygon fill="none" stroke="black" points="389,-19 329,-19 329,0 389,0 389,-19"/>
<text text-anchor="middle" x="359" y="-7" font-family="Helvetica,sans-Serif" font-size="10.00">Averaging</text>
</a>
</g>
</g>
<!-- Node1&#45;&gt;Node8 -->
<g id="edge7" class="edge">
<title>Node1&#45;&gt;Node8</title>
<path fill="none" stroke="black" d="M219.55,-97C235.69,-75.79 262.12,-45.28 292,-27.5 303.12,-20.88 316.74,-16.63 328.71,-13.94"/>
<polygon fill="black" stroke="black" points="216.63,-95.06 213.48,-105.18 222.25,-99.23 216.63,-95.06"/>
</g>
</g>
</svg>
