<?xml version="1.0" encoding="UTF-8" standalone="no"?>
<!DOCTYPE svg PUBLIC "-//W3C//DTD SVG 1.1//EN"
 "http://www.w3.org/Graphics/SVG/1.1/DTD/svg11.dtd">
<!-- Generated by graphviz version 2.43.0 (0)
 -->
<!-- Title: Basic container independent subroutines Pages: 1 -->
<svg width="476pt" height="124pt"
 viewBox="0.00 0.00 476.00 123.50" xmlns="http://www.w3.org/2000/svg" xmlns:xlink="http://www.w3.org/1999/xlink">
<g id="graph0" class="graph" transform="scale(1 1) rotate(0) translate(4 119.5)">
<title>Basic container independent subroutines</title>
<!-- Node2 -->
<g id="node1" class="node">
<title>Node2</title>
<g id="a_node1"><a xlink:href="group__backend.html" target="_top" xlink:title=" ">
<polygon fill="none" stroke="black" points="131,-67.5 0,-67.5 0,-37.5 131,-37.5 131,-67.5"/>
<text text-anchor="start" x="8" y="-55.5" font-family="Helvetica,sans-Serif" font-size="10.00">Level 1: Vectors, Matrices</text>
<text text-anchor="middle" x="65.5" y="-44.5" font-family="Helvetica,sans-Serif" font-size="10.00"> and basic operations</text>
</a>
</g>
</g>
<!-- Node1 -->
<g id="node2" class="node">
<title>Node1</title>
<g id="a_node2"><a xlink:title=" ">
<polygon fill="#bfbfbf" stroke="black" points="307,-67.5 167,-67.5 167,-37.5 307,-37.5 307,-67.5"/>
<text text-anchor="start" x="175" y="-55.5" font-family="Helvetica,sans-Serif" font-size="10.00">Basic container independent</text>
<text text-anchor="middle" x="237" y="-44.5" font-family="Helvetica,sans-Serif" font-size="10.00"> subroutines</text>
</a>
</g>
</g>
<!-- Node2&#45;&gt;Node1 -->
<g id="edge1" class="edge">
<title>Node2&#45;&gt;Node1</title>
<path fill="none" stroke="black" d="M141.32,-52.5C149.8,-52.5 158.41,-52.5 166.82,-52.5"/>
<polygon fill="black" stroke="black" points="141.06,-49 131.06,-52.5 141.06,-56 141.06,-49"/>
</g>
<!-- Node3 -->
<g id="node3" class="node">
<title>Node3</title>
<g id="a_node3"><a xlink:href="group__blas1.html" target="_top" xlink:title="and">
<polygon fill="none" stroke="black" points="461,-115.5 350,-115.5 350,-85.5 461,-85.5 461,-115.5"/>
<text text-anchor="start" x="358" y="-103.5" font-family="Helvetica,sans-Serif" font-size="10.00">BLAS level 1 routines</text>
<text text-anchor="middle" x="405.5" y="-92.5" font-family="Helvetica,sans-Serif" font-size="10.00">: Vector&#45;Vector</text>
</a>
</g>
</g>
<!-- Node1&#45;&gt;Node3 -->
<g id="edge2" class="edge">
<title>Node1&#45;&gt;Node3</title>
<path fill="none" stroke="black" d="M300.19,-70.43C317.4,-75.39 335.89,-80.72 352.46,-85.5"/>
<polygon fill="black" stroke="black" points="300.8,-66.96 290.22,-67.56 298.86,-73.69 300.8,-66.96"/>
</g>
<!-- Node4 -->
<g id="node4" class="node">
<title>Node4</title>
<g id="a_node4"><a xlink:href="group__blas2.html" target="_top" xlink:title="and">
<polygon fill="none" stroke="black" points="461,-67.5 350,-67.5 350,-37.5 461,-37.5 461,-67.5"/>
<text text-anchor="start" x="358" y="-55.5" font-family="Helvetica,sans-Serif" font-size="10.00">BLAS level 2 routines</text>
<text text-anchor="middle" x="405.5" y="-44.5" font-family="Helvetica,sans-Serif" font-size="10.00">: Matrix&#45;Vector</text>
</a>
</g>
</g>
<!-- Node1&#45;&gt;Node4 -->
<g id="edge3" class="edge">
<title>Node1&#45;&gt;Node4</title>
<path fill="none" stroke="black" d="M317.22,-52.5C328.23,-52.5 339.33,-52.5 349.75,-52.5"/>
<polygon fill="black" stroke="black" points="317.16,-49 307.16,-52.5 317.16,-56 317.16,-49"/>
</g>
<!-- Node5 -->
<g id="node5" class="node">
<title>Node5</title>
<g id="a_node5"><a xlink:href="group__tensor.html" target="_top" xlink:title=" ">
<polygon fill="none" stroke="black" points="468,-19 343,-19 343,0 468,0 468,-19"/>
<text text-anchor="middle" x="405.5" y="-7" font-family="Helvetica,sans-Serif" font-size="10.00">Tensor&#45;Vector operations</text>
</a>
</g>
</g>
<!-- Node1&#45;&gt;Node5 -->
<g id="edge4" class="edge">
<title>Node1&#45;&gt;Node5</title>
<path fill="none" stroke="black" d="M306.07,-34.92C327.03,-29.51 349.32,-23.75 367.38,-19.09"/>
<polygon fill="black" stroke="black" points="305.04,-31.57 296.23,-37.46 306.79,-38.35 305.04,-31.57"/>
</g>
</g>
</svg>
