<?xml version="1.0" encoding="UTF-8" standalone="no"?>
<!DOCTYPE svg PUBLIC "-//W3C//DTD SVG 1.1//EN"
 "http://www.w3.org/Graphics/SVG/1.1/DTD/svg11.dtd">
<!-- Generated by graphviz version 2.43.0 (0)
 -->
<!-- Title: Geometric grids and tensor operations Pages: 1 -->
<svg width="424pt" height="138pt"
 viewBox="0.00 0.00 424.00 138.00" xmlns="http://www.w3.org/2000/svg" xmlns:xlink="http://www.w3.org/1999/xlink">
<g id="graph0" class="graph" transform="scale(1 1) rotate(0) translate(4 134)">
<title>Geometric grids and tensor operations</title>
<!-- Node3 -->
<g id="node1" class="node">
<title>Node3</title>
<g id="a_node1"><a xlink:href="group__basicgeometry.html" target="_top" xlink:title=" ">
<polygon fill="none" stroke="black" points="412,-130 292,-130 292,-111 412,-111 412,-130"/>
<text text-anchor="middle" x="352" y="-118" font-family="Helvetica,sans-Serif" font-size="10.00">Geometry base classes</text>
</a>
</g>
</g>
<!-- Node6 -->
<g id="node2" class="node">
<title>Node6</title>
<g id="a_node2"><a xlink:href="group__generators.html" target="_top" xlink:title=" ">
<polygon fill="none" stroke="black" points="410.5,-93 293.5,-93 293.5,-74 410.5,-74 410.5,-93"/>
<text text-anchor="middle" x="352" y="-81" font-family="Helvetica,sans-Serif" font-size="10.00">Grid Generator classes</text>
</a>
</g>
</g>
<!-- Node2 -->
<g id="node3" class="node">
<title>Node2</title>
<g id="a_node3"><a xlink:href="group__geo.html" target="_top" xlink:title=" ">
<polygon fill="none" stroke="black" points="112,-79.5 0,-79.5 0,-49.5 112,-49.5 112,-79.5"/>
<text text-anchor="start" x="8" y="-67.5" font-family="Helvetica,sans-Serif" font-size="10.00">Level 3: Topology and</text>
<text text-anchor="middle" x="56" y="-56.5" font-family="Helvetica,sans-Serif" font-size="10.00"> Geometry</text>
</a>
</g>
</g>
<!-- Node1 -->
<g id="node4" class="node">
<title>Node1</title>
<g id="a_node4"><a xlink:title=" ">
<polygon fill="#bfbfbf" stroke="black" points="252,-79.5 148,-79.5 148,-49.5 252,-49.5 252,-79.5"/>
<text text-anchor="start" x="156" y="-67.5" font-family="Helvetica,sans-Serif" font-size="10.00">Geometric grids and</text>
<text text-anchor="middle" x="200" y="-56.5" font-family="Helvetica,sans-Serif" font-size="10.00"> tensor operations</text>
</a>
</g>
</g>
<!-- Node2&#45;&gt;Node1 -->
<g id="edge1" class="edge">
<title>Node2&#45;&gt;Node1</title>
<path fill="none" stroke="black" d="M122.55,-64.5C131.02,-64.5 139.6,-64.5 147.79,-64.5"/>
<polygon fill="black" stroke="black" points="122.31,-61 112.31,-64.5 122.31,-68 122.31,-61"/>
</g>
<!-- Node1&#45;&gt;Node3 -->
<g id="edge2" class="edge">
<title>Node1&#45;&gt;Node3</title>
<path fill="none" stroke="black" d="M241.95,-83.73C256.34,-90.13 272.73,-97.01 288,-102.5 296.46,-105.54 305.69,-108.42 314.42,-110.94"/>
<polygon fill="black" stroke="black" points="243.37,-80.53 232.81,-79.61 240.5,-86.91 243.37,-80.53"/>
</g>
<!-- Node1&#45;&gt;Node6 -->
<g id="edge5" class="edge">
<title>Node1&#45;&gt;Node6</title>
<path fill="none" stroke="black" d="M262.31,-72.27C272.56,-73.56 283.17,-74.91 293.33,-76.2"/>
<polygon fill="black" stroke="black" points="262.56,-68.77 252.2,-70.99 261.68,-75.71 262.56,-68.77"/>
</g>
<!-- Node5 -->
<g id="node5" class="node">
<title>Node5</title>
<g id="a_node5"><a xlink:href="group__metric.html" target="_top" xlink:title=" ">
<polygon fill="none" stroke="black" points="391,-56 313,-56 313,-37 391,-37 391,-56"/>
<text text-anchor="middle" x="352" y="-44" font-family="Helvetica,sans-Serif" font-size="10.00">create volume</text>
</a>
</g>
</g>
<!-- Node1&#45;&gt;Node5 -->
<g id="edge4" class="edge">
<title>Node1&#45;&gt;Node5</title>
<path fill="none" stroke="black" d="M262.15,-57.16C279.29,-55.11 297.43,-52.93 312.81,-51.08"/>
<polygon fill="black" stroke="black" points="261.71,-53.69 252.2,-58.36 262.55,-60.64 261.71,-53.69"/>
</g>
<!-- Node4 -->
<g id="node6" class="node">
<title>Node4</title>
<g id="a_node6"><a xlink:href="group__pullback.html" target="_top" xlink:title=" ">
<polygon fill="none" stroke="black" points="416,-19 288,-19 288,0 416,0 416,-19"/>
<text text-anchor="middle" x="352" y="-7" font-family="Helvetica,sans-Serif" font-size="10.00">pullback and pushforward</text>
</a>
</g>
</g>
<!-- Node1&#45;&gt;Node4 -->
<g id="edge3" class="edge">
<title>Node1&#45;&gt;Node4</title>
<path fill="none" stroke="black" d="M243.12,-45.34C257.24,-39.26 273.17,-32.75 288,-27.5 296.58,-24.46 305.95,-21.57 314.78,-19.02"/>
<polygon fill="black" stroke="black" points="241.44,-42.26 233.67,-49.47 244.24,-48.68 241.44,-42.26"/>
</g>
</g>
</svg>
