<?xml version="1.0" encoding="UTF-8" standalone="no"?>
<!DOCTYPE svg PUBLIC "-//W3C//DTD SVG 1.1//EN"
 "http://www.w3.org/Graphics/SVG/1.1/DTD/svg11.dtd">
<!-- Generated by graphviz version 2.43.0 (0)
 -->
<!-- Title: Time integration Pages: 1 -->
<svg width="517pt" height="67pt"
 viewBox="0.00 0.00 517.00 67.00" xmlns="http://www.w3.org/2000/svg" xmlns:xlink="http://www.w3.org/1999/xlink">
<g id="graph0" class="graph" transform="scale(1 1) rotate(0) translate(4 63)">
<title>Time integration</title>
<!-- Node2 -->
<g id="node1" class="node">
<title>Node2</title>
<g id="a_node1"><a xlink:href="group__numerical0.html" target="_top" xlink:title=" ">
<polygon fill="none" stroke="black" points="124,-30 0,-30 0,0 124,0 124,-30"/>
<text text-anchor="start" x="8" y="-18" font-family="Helvetica,sans-Serif" font-size="10.00">Level 2: Basic numerical</text>
<text text-anchor="middle" x="62" y="-7" font-family="Helvetica,sans-Serif" font-size="10.00"> algorithms</text>
</a>
</g>
</g>
<!-- Node1 -->
<g id="node2" class="node">
<title>Node1</title>
<g id="a_node2"><a xlink:title=" ">
<polygon fill="#bfbfbf" stroke="black" points="247,-24.5 161,-24.5 161,-5.5 247,-5.5 247,-24.5"/>
<text text-anchor="middle" x="204" y="-12.5" font-family="Helvetica,sans-Serif" font-size="10.00">Time integration</text>
</a>
</g>
</g>
<!-- Node2&#45;&gt;Node1 -->
<g id="edge1" class="edge">
<title>Node2&#45;&gt;Node1</title>
<path fill="none" stroke="black" d="M134.58,-15C143.61,-15 152.6,-15 160.95,-15"/>
<polygon fill="black" stroke="black" points="134.41,-11.5 124.41,-15 134.41,-18.5 134.41,-11.5"/>
</g>
<!-- Node3 -->
<g id="node3" class="node">
<title>Node3</title>
<g id="a_node3"><a xlink:href="group__time__utils.html" target="_top" xlink:title=" ">
<polygon fill="none" stroke="black" points="509,-24.5 386,-24.5 386,-5.5 509,-5.5 509,-24.5"/>
<text text-anchor="middle" x="447.5" y="-12.5" font-family="Helvetica,sans-Serif" font-size="10.00">Utilities for ODE solvers</text>
</a>
</g>
</g>
<!-- Node1&#45;&gt;Node3 -->
<g id="edge2" class="edge">
<title>Node1&#45;&gt;Node3</title>
<path fill="none" stroke="orange" stroke-dasharray="5,2" d="M247.07,-15C285.45,-15 342.61,-15 385.91,-15"/>
<text text-anchor="middle" x="316.5" y="-51" font-family="Helvetica,sans-Serif" font-size="10.00">dg::AdaptiveTimeloop</text>
<text text-anchor="middle" x="316.5" y="-40" font-family="Helvetica,sans-Serif" font-size="10.00">dg::MultistepTimeloop</text>
<text text-anchor="middle" x="316.5" y="-29" font-family="Helvetica,sans-Serif" font-size="10.00">dg::aTimeloop</text>
<text text-anchor="middle" x="316.5" y="-18" font-family="Helvetica,sans-Serif" font-size="10.00">dg::SinglestepTimeloop</text>
</g>
</g>
</svg>
