<?xml version="1.0" encoding="UTF-8" standalone="no"?>
<!DOCTYPE svg PUBLIC "-//W3C//DTD SVG 1.1//EN"
 "http://www.w3.org/Graphics/SVG/1.1/DTD/svg11.dtd">
<!-- Generated by graphviz version 2.43.0 (0)
 -->
<!-- Title: Level 1: Vectors, Matrices and basic operations Pages: 1 -->
<svg width="315pt" height="261pt"
 viewBox="0.00 0.00 315.00 260.50" xmlns="http://www.w3.org/2000/svg" xmlns:xlink="http://www.w3.org/1999/xlink">
<g id="graph0" class="graph" transform="scale(1 1) rotate(0) translate(4 256.5)">
<title>Level 1: Vectors, Matrices and basic operations</title>
<!-- Node1 -->
<g id="node1" class="node">
<title>Node1</title>
<g id="a_node1"><a xlink:title=" ">
<polygon fill="#bfbfbf" stroke="black" points="131,-135.5 0,-135.5 0,-105.5 131,-105.5 131,-135.5"/>
<text text-anchor="start" x="8" y="-123.5" font-family="Helvetica,sans-Serif" font-size="10.00">Level 1: Vectors, Matrices</text>
<text text-anchor="middle" x="65.5" y="-112.5" font-family="Helvetica,sans-Serif" font-size="10.00"> and basic operations</text>
</a>
</g>
</g>
<!-- Node2 -->
<g id="node2" class="node">
<title>Node2</title>
<g id="a_node2"><a xlink:href="group__blas.html" target="_top" xlink:title=" ">
<polygon fill="none" stroke="black" points="307,-252.5 167,-252.5 167,-222.5 307,-222.5 307,-252.5"/>
<text text-anchor="start" x="175" y="-240.5" font-family="Helvetica,sans-Serif" font-size="10.00">Basic container independent</text>
<text text-anchor="middle" x="237" y="-229.5" font-family="Helvetica,sans-Serif" font-size="10.00"> subroutines</text>
</a>
</g>
</g>
<!-- Node1&#45;&gt;Node2 -->
<g id="edge1" class="edge">
<title>Node1&#45;&gt;Node2</title>
<path fill="none" stroke="black" d="M86.2,-143.5C105.08,-164.3 135.33,-194.49 167,-213.5 172.55,-216.83 178.62,-219.78 184.79,-222.38"/>
<polygon fill="black" stroke="black" points="88.57,-140.9 79.3,-135.76 83.34,-145.55 88.57,-140.9"/>
</g>
<!-- Node5 -->
<g id="node3" class="node">
<title>Node5</title>
<g id="a_node3"><a xlink:href="group__densematrix.html" target="_top" xlink:title=" ">
<polygon fill="none" stroke="black" points="292.5,-204 181.5,-204 181.5,-185 292.5,-185 292.5,-204"/>
<text text-anchor="middle" x="237" y="-192" font-family="Helvetica,sans-Serif" font-size="10.00">Dense matrix formats</text>
</a>
</g>
</g>
<!-- Node1&#45;&gt;Node5 -->
<g id="edge4" class="edge">
<title>Node1&#45;&gt;Node5</title>
<path fill="none" stroke="black" d="M98.29,-140.95C117.56,-152.65 143,-166.86 167,-176.5 175.04,-179.73 183.85,-182.54 192.39,-184.91"/>
<polygon fill="black" stroke="black" points="99.97,-137.88 89.62,-135.61 96.3,-143.84 99.97,-137.88"/>
</g>
<!-- Node8 -->
<g id="node4" class="node">
<title>Node8</title>
<g id="a_node4"><a xlink:href="group__dispatch.html" target="_top" xlink:title=" ">
<polygon fill="none" stroke="black" points="299.5,-167 174.5,-167 174.5,-148 299.5,-148 299.5,-167"/>
<text text-anchor="middle" x="237" y="-155" font-family="Helvetica,sans-Serif" font-size="10.00">The tag dispatch system</text>
</a>
</g>
</g>
<!-- Node1&#45;&gt;Node8 -->
<g id="edge7" class="edge">
<title>Node1&#45;&gt;Node8</title>
<path fill="none" stroke="black" d="M141.26,-136.82C158.73,-140.63 176.77,-144.57 192.37,-147.98"/>
<polygon fill="black" stroke="black" points="141.58,-133.31 131.06,-134.59 140.09,-140.15 141.58,-133.31"/>
</g>
<!-- Node7 -->
<g id="node5" class="node">
<title>Node7</title>
<g id="a_node5"><a xlink:href="group__mpi__structures.html" target="_top" xlink:title=" ">
<polygon fill="none" stroke="black" points="274,-130 200,-130 200,-111 274,-111 274,-130"/>
<text text-anchor="middle" x="237" y="-118" font-family="Helvetica,sans-Serif" font-size="10.00">MPI backend</text>
</a>
</g>
</g>
<!-- Node1&#45;&gt;Node7 -->
<g id="edge6" class="edge">
<title>Node1&#45;&gt;Node7</title>
<path fill="none" stroke="black" d="M141.24,-120.5C161.48,-120.5 182.5,-120.5 199.58,-120.5"/>
<polygon fill="black" stroke="black" points="141.06,-117 131.06,-120.5 141.06,-124 141.06,-117"/>
</g>
<!-- Node4 -->
<g id="node6" class="node">
<title>Node4</title>
<g id="a_node6"><a xlink:href="group__sparsematrix.html" target="_top" xlink:title=" ">
<polygon fill="none" stroke="black" points="293.5,-93 180.5,-93 180.5,-74 293.5,-74 293.5,-93"/>
<text text-anchor="middle" x="237" y="-81" font-family="Helvetica,sans-Serif" font-size="10.00">Sparse matrix formats</text>
</a>
</g>
</g>
<!-- Node1&#45;&gt;Node4 -->
<g id="edge3" class="edge">
<title>Node1&#45;&gt;Node4</title>
<path fill="none" stroke="black" d="M141.26,-104.18C158.73,-100.37 176.77,-96.43 192.37,-93.02"/>
<polygon fill="black" stroke="black" points="140.09,-100.85 131.06,-106.41 141.58,-107.69 140.09,-100.85"/>
</g>
<!-- Node3 -->
<g id="node7" class="node">
<title>Node3</title>
<g id="a_node7"><a xlink:href="group__typedefs.html" target="_top" xlink:title=" ">
<polygon fill="none" stroke="black" points="281,-56 193,-56 193,-37 281,-37 281,-56"/>
<text text-anchor="middle" x="237" y="-44" font-family="Helvetica,sans-Serif" font-size="10.00">Useful Typedefs</text>
</a>
</g>
</g>
<!-- Node1&#45;&gt;Node3 -->
<g id="edge2" class="edge">
<title>Node1&#45;&gt;Node3</title>
<path fill="none" stroke="black" d="M99.16,-100.1C118.37,-88.75 143.45,-75.04 167,-65.5 175.98,-61.86 185.9,-58.68 195.34,-56.01"/>
<polygon fill="black" stroke="black" points="97.28,-97.15 90.5,-105.29 100.88,-103.15 97.28,-97.15"/>
</g>
<!-- Node6 -->
<g id="node8" class="node">
<title>Node6</title>
<g id="a_node8"><a xlink:href="group__view.html" target="_top" xlink:title=" ">
<polygon fill="none" stroke="black" points="271,-19 203,-19 203,0 271,0 271,-19"/>
<text text-anchor="middle" x="237" y="-7" font-family="Helvetica,sans-Serif" font-size="10.00">Vector view</text>
</a>
</g>
</g>
<!-- Node1&#45;&gt;Node6 -->
<g id="edge5" class="edge">
<title>Node1&#45;&gt;Node6</title>
<path fill="none" stroke="black" d="M85.65,-97.63C104.35,-76.71 134.65,-46.38 167,-28.5 177.98,-22.43 191.04,-18.19 202.82,-15.28"/>
<polygon fill="black" stroke="black" points="82.79,-95.58 78.84,-105.41 88.06,-100.19 82.79,-95.58"/>
</g>
</g>
</svg>
