<?xml version="1.0" encoding="UTF-8" standalone="no"?>
<!DOCTYPE svg PUBLIC "-//W3C//DTD SVG 1.1//EN"
 "http://www.w3.org/Graphics/SVG/1.1/DTD/svg11.dtd">
<!-- Generated by graphviz version 2.43.0 (0)
 -->
<!-- Title: Level 0: Miscellaneous additions Pages: 1 -->
<svg width="297pt" height="124pt"
 viewBox="0.00 0.00 297.00 123.50" xmlns="http://www.w3.org/2000/svg" xmlns:xlink="http://www.w3.org/1999/xlink">
<g id="graph0" class="graph" transform="scale(1 1) rotate(0) translate(4 119.5)">
<title>Level 0: Miscellaneous additions</title>
<!-- Node3 -->
<g id="node1" class="node">
<title>Node3</title>
<g id="a_node1"><a xlink:href="group__blas1__helpers.html" target="_top" xlink:title=" ">
<polygon fill="none" stroke="black" points="289,-115.5 152,-115.5 152,-85.5 289,-85.5 289,-115.5"/>
<text text-anchor="start" x="160" y="-103.5" font-family="Helvetica,sans-Serif" font-size="10.00">Functions and functors</text>
<text text-anchor="middle" x="220.5" y="-92.5" font-family="Helvetica,sans-Serif" font-size="10.00"> for subroutine and evaluate</text>
</a>
</g>
</g>
<!-- Node4 -->
<g id="node2" class="node">
<title>Node4</title>
<g id="a_node2"><a xlink:href="group__lowlevel.html" target="_top" xlink:title=" ">
<polygon fill="none" stroke="black" points="284,-67.5 157,-67.5 157,-37.5 284,-37.5 284,-67.5"/>
<text text-anchor="start" x="165" y="-55.5" font-family="Helvetica,sans-Serif" font-size="10.00">Lowlevel helper functions</text>
<text text-anchor="middle" x="220.5" y="-44.5" font-family="Helvetica,sans-Serif" font-size="10.00"> and classes</text>
</a>
</g>
</g>
<!-- Node1 -->
<g id="node3" class="node">
<title>Node1</title>
<g id="a_node3"><a xlink:title=" ">
<polygon fill="#bfbfbf" stroke="black" points="116,-67.5 0,-67.5 0,-37.5 116,-37.5 116,-67.5"/>
<text text-anchor="start" x="8" y="-55.5" font-family="Helvetica,sans-Serif" font-size="10.00">Level 0: Miscellaneous</text>
<text text-anchor="middle" x="58" y="-44.5" font-family="Helvetica,sans-Serif" font-size="10.00"> additions</text>
</a>
</g>
</g>
<!-- Node1&#45;&gt;Node3 -->
<g id="edge2" class="edge">
<title>Node1&#45;&gt;Node3</title>
<path fill="none" stroke="black" d="M118.94,-70.43C135.54,-75.39 153.36,-80.72 169.34,-85.5"/>
<polygon fill="black" stroke="black" points="119.93,-67.07 109.34,-67.56 117.92,-73.77 119.93,-67.07"/>
</g>
<!-- Node1&#45;&gt;Node4 -->
<g id="edge3" class="edge">
<title>Node1&#45;&gt;Node4</title>
<path fill="none" stroke="black" d="M126.12,-52.5C136.32,-52.5 146.82,-52.5 156.92,-52.5"/>
<polygon fill="black" stroke="black" points="126.04,-49 116.04,-52.5 126.04,-56 126.04,-49"/>
</g>
<!-- Node2 -->
<g id="node4" class="node">
<title>Node2</title>
<g id="a_node4"><a xlink:href="group__timer.html" target="_top" xlink:title="t.tic(); t.toc(); t.diff();">
<polygon fill="none" stroke="black" points="254.5,-19 186.5,-19 186.5,0 254.5,0 254.5,-19"/>
<text text-anchor="middle" x="220.5" y="-7" font-family="Helvetica,sans-Serif" font-size="10.00">Timer class</text>
</a>
</g>
</g>
<!-- Node1&#45;&gt;Node2 -->
<g id="edge1" class="edge">
<title>Node1&#45;&gt;Node2</title>
<path fill="none" stroke="black" d="M125,-34.82C146.02,-29.19 168.4,-23.19 186.09,-18.45"/>
<polygon fill="black" stroke="black" points="123.89,-31.49 115.14,-37.46 125.7,-38.25 123.89,-31.49"/>
</g>
</g>
</svg>
