<?xml version="1.0" encoding="UTF-8" standalone="no"?>
<!DOCTYPE svg PUBLIC "-//W3C//DTD SVG 1.1//EN"
 "http://www.w3.org/Graphics/SVG/1.1/DTD/svg11.dtd">
<!-- Generated by graphviz version 2.43.0 (0)
 -->
<!-- Title: Level 3: Topology and Geometry Pages: 1 -->
<svg width="271pt" height="161pt"
 viewBox="0.00 0.00 271.00 161.00" xmlns="http://www.w3.org/2000/svg" xmlns:xlink="http://www.w3.org/1999/xlink">
<g id="graph0" class="graph" transform="scale(1 1) rotate(0) translate(4 157)">
<title>Level 3: Topology and Geometry</title>
<!-- Node4 -->
<g id="node1" class="node">
<title>Node4</title>
<g id="a_node1"><a xlink:href="group__fem.html" target="_top" xlink:title=" ">
<polygon fill="none" stroke="black" points="263,-153 148,-153 148,-134 263,-134 263,-153"/>
<text text-anchor="middle" x="205.5" y="-141" font-family="Helvetica,sans-Serif" font-size="10.00">Finite Element Method</text>
</a>
</g>
</g>
<!-- Node1 -->
<g id="node2" class="node">
<title>Node1</title>
<g id="a_node2"><a xlink:title=" ">
<polygon fill="#bfbfbf" stroke="black" points="112,-91.5 0,-91.5 0,-61.5 112,-61.5 112,-91.5"/>
<text text-anchor="start" x="8" y="-79.5" font-family="Helvetica,sans-Serif" font-size="10.00">Level 3: Topology and</text>
<text text-anchor="middle" x="56" y="-68.5" font-family="Helvetica,sans-Serif" font-size="10.00"> Geometry</text>
</a>
</g>
</g>
<!-- Node1&#45;&gt;Node4 -->
<g id="edge3" class="edge">
<title>Node1&#45;&gt;Node4</title>
<path fill="none" stroke="black" d="M91.6,-96.44C108.33,-105.64 128.88,-116.31 148,-124.5 155.99,-127.92 164.82,-131.15 173.08,-133.93"/>
<polygon fill="black" stroke="black" points="93.18,-93.31 82.74,-91.5 89.77,-99.43 93.18,-93.31"/>
</g>
<!-- Node3 -->
<g id="node3" class="node">
<title>Node3</title>
<g id="a_node3"><a xlink:href="group__geometry.html" target="_top" xlink:title=" ">
<polygon fill="none" stroke="black" points="257.5,-115.5 153.5,-115.5 153.5,-85.5 257.5,-85.5 257.5,-115.5"/>
<text text-anchor="start" x="161.5" y="-103.5" font-family="Helvetica,sans-Serif" font-size="10.00">Geometric grids and</text>
<text text-anchor="middle" x="205.5" y="-92.5" font-family="Helvetica,sans-Serif" font-size="10.00"> tensor operations</text>
</a>
</g>
</g>
<!-- Node1&#45;&gt;Node3 -->
<g id="edge2" class="edge">
<title>Node1&#45;&gt;Node3</title>
<path fill="none" stroke="black" d="M122.53,-87.16C132.82,-88.84 143.32,-90.55 153.23,-92.16"/>
<polygon fill="black" stroke="black" points="122.78,-83.66 112.34,-85.5 121.65,-90.57 122.78,-83.66"/>
</g>
<!-- Node2 -->
<g id="node4" class="node">
<title>Node2</title>
<g id="a_node4"><a xlink:href="group__grid.html" target="_top" xlink:title=" ">
<polygon fill="none" stroke="black" points="259.5,-67.5 151.5,-67.5 151.5,-37.5 259.5,-37.5 259.5,-67.5"/>
<text text-anchor="start" x="159.5" y="-55.5" font-family="Helvetica,sans-Serif" font-size="10.00">Topological grids and</text>
<text text-anchor="middle" x="205.5" y="-44.5" font-family="Helvetica,sans-Serif" font-size="10.00"> operations</text>
</a>
</g>
</g>
<!-- Node1&#45;&gt;Node2 -->
<g id="edge1" class="edge">
<title>Node1&#45;&gt;Node2</title>
<path fill="none" stroke="black" d="M122.33,-65.87C132.02,-64.29 141.9,-62.69 151.29,-61.16"/>
<polygon fill="black" stroke="black" points="121.65,-62.43 112.34,-67.5 122.78,-69.34 121.65,-62.43"/>
</g>
<!-- Node5 -->
<g id="node5" class="node">
<title>Node5</title>
<g id="a_node5"><a xlink:href="group__gridtypes.html" target="_top" xlink:title=" ">
<polygon fill="none" stroke="black" points="249.5,-19 161.5,-19 161.5,0 249.5,0 249.5,-19"/>
<text text-anchor="middle" x="205.5" y="-7" font-family="Helvetica,sans-Serif" font-size="10.00">Useful Typedefs</text>
</a>
</g>
</g>
<!-- Node1&#45;&gt;Node5 -->
<g id="edge4" class="edge">
<title>Node1&#45;&gt;Node5</title>
<path fill="none" stroke="black" d="M91.6,-56.56C108.33,-47.36 128.88,-36.69 148,-28.5 155.99,-25.08 164.82,-21.85 173.08,-19.07"/>
<polygon fill="black" stroke="black" points="89.77,-53.57 82.74,-61.5 93.18,-59.69 89.77,-53.57"/>
</g>
</g>
</svg>
