<?xml version="1.0" encoding="UTF-8" standalone="no"?>
<!DOCTYPE svg PUBLIC "-//W3C//DTD SVG 1.1//EN"
 "http://www.w3.org/Graphics/SVG/1.1/DTD/svg11.dtd">
<!-- Generated by graphviz version 2.43.0 (0)
 -->
<!-- Title: Graphical Class Hierarchy Pages: 1 -->
<svg width="429pt" height="112pt"
 viewBox="0.00 0.00 429.00 112.00" xmlns="http://www.w3.org/2000/svg" xmlns:xlink="http://www.w3.org/1999/xlink">
<g id="graph0" class="graph" transform="scale(1 1) rotate(0) translate(4 108)">
<title>Graphical Class Hierarchy</title>
<!-- Node0 -->
<g id="node1" class="node">
<title>Node0</title>
<g id="a_node1"><a xlink:href="structdg_1_1a_real_topology2d.html" target="_top" xlink:title="An abstract base class for two&#45;dimensional grids.">
<polygon fill="none" stroke="black" points="0,-48.5 0,-78.5 108,-78.5 108,-48.5 0,-48.5"/>
<text text-anchor="start" x="8" y="-66.5" font-family="Helvetica,sans-Serif" font-size="10.00">dg::aRealTopology2d</text>
<text text-anchor="middle" x="54" y="-55.5" font-family="Helvetica,sans-Serif" font-size="10.00">&lt; real_type &gt;</text>
</a>
</g>
</g>
<!-- Node1 -->
<g id="node2" class="node">
<title>Node1</title>
<g id="a_node2"><a xlink:href="structdg_1_1_real_grid2d.html" target="_top" xlink:title="The simplest implementation of aRealTopology2d.">
<polygon fill="none" stroke="black" points="146.5,-73.5 146.5,-103.5 253.5,-103.5 253.5,-73.5 146.5,-73.5"/>
<text text-anchor="start" x="154.5" y="-91.5" font-family="Helvetica,sans-Serif" font-size="10.00">dg::RealGrid2d&lt; real</text>
<text text-anchor="middle" x="200" y="-80.5" font-family="Helvetica,sans-Serif" font-size="10.00">_type &gt;</text>
</a>
</g>
</g>
<!-- Node0&#45;&gt;Node1 -->
<g id="edge1" class="edge">
<title>Node0&#45;&gt;Node1</title>
<path fill="none" stroke="midnightblue" d="M118.31,-74.49C127.72,-76.13 137.33,-77.79 146.49,-79.38"/>
<polygon fill="midnightblue" stroke="midnightblue" points="118.66,-71 108.21,-72.74 117.47,-77.9 118.66,-71"/>
</g>
<!-- Node2 -->
<g id="node3" class="node">
<title>Node2</title>
<g id="a_node3"><a xlink:href="structdg_1_1a_real_geometry2d.html" target="_top" xlink:title="This is the abstract interface class for a two&#45;dimensional Geometry.">
<polygon fill="none" stroke="black" points="144,-24.5 144,-54.5 256,-54.5 256,-24.5 144,-24.5"/>
<text text-anchor="start" x="152" y="-42.5" font-family="Helvetica,sans-Serif" font-size="10.00">dg::aRealGeometry2d</text>
<text text-anchor="middle" x="200" y="-31.5" font-family="Helvetica,sans-Serif" font-size="10.00">&lt; real_type &gt;</text>
</a>
</g>
</g>
<!-- Node0&#45;&gt;Node2 -->
<g id="edge2" class="edge">
<title>Node0&#45;&gt;Node2</title>
<path fill="none" stroke="midnightblue" d="M118.08,-52.99C126.58,-51.57 135.24,-50.13 143.6,-48.73"/>
<polygon fill="midnightblue" stroke="midnightblue" points="117.5,-49.54 108.21,-54.63 118.65,-56.44 117.5,-49.54"/>
</g>
<!-- Node3 -->
<g id="node4" class="node">
<title>Node3</title>
<g id="a_node4"><a xlink:href="structdg_1_1_real_cartesian_grid2d.html" target="_top" xlink:title="two&#45;dimensional Grid with Cartesian metric">
<polygon fill="none" stroke="black" points="294.5,-49.5 294.5,-79.5 418.5,-79.5 418.5,-49.5 294.5,-49.5"/>
<text text-anchor="start" x="302.5" y="-67.5" font-family="Helvetica,sans-Serif" font-size="10.00">dg::RealCartesianGrid2d</text>
<text text-anchor="middle" x="356.5" y="-56.5" font-family="Helvetica,sans-Serif" font-size="10.00">&lt; real_type &gt;</text>
</a>
</g>
</g>
<!-- Node2&#45;&gt;Node3 -->
<g id="edge3" class="edge">
<title>Node2&#45;&gt;Node3</title>
<path fill="none" stroke="midnightblue" d="M266.28,-50.06C275.56,-51.56 285.06,-53.1 294.26,-54.59"/>
<polygon fill="midnightblue" stroke="midnightblue" points="266.77,-46.6 256.34,-48.45 265.65,-53.51 266.77,-46.6"/>
</g>
<!-- Node4 -->
<g id="node5" class="node">
<title>Node4</title>
<g id="a_node5"><a xlink:href="structdg_1_1_real_cartesian_refined_grid2d.html" target="_top" xlink:title="Refined RealCartesian grid.">
<polygon fill="none" stroke="black" points="292,-0.5 292,-30.5 421,-30.5 421,-0.5 292,-0.5"/>
<text text-anchor="start" x="300" y="-18.5" font-family="Helvetica,sans-Serif" font-size="10.00">dg::RealCartesianRefined</text>
<text text-anchor="middle" x="356.5" y="-7.5" font-family="Helvetica,sans-Serif" font-size="10.00">Grid2d&lt; real_type &gt;</text>
</a>
</g>
</g>
<!-- Node2&#45;&gt;Node4 -->
<g id="edge4" class="edge">
<title>Node2&#45;&gt;Node4</title>
<path fill="none" stroke="midnightblue" d="M266.48,-29.33C274.89,-28.02 283.49,-26.69 291.87,-25.38"/>
<polygon fill="midnightblue" stroke="midnightblue" points="265.69,-25.91 256.34,-30.9 266.76,-32.83 265.69,-25.91"/>
</g>
</g>
</svg>
