<?xml version="1.0" encoding="UTF-8" standalone="no"?>
<!DOCTYPE svg PUBLIC "-//W3C//DTD SVG 1.1//EN"
 "http://www.w3.org/Graphics/SVG/1.1/DTD/svg11.dtd">
<!-- Generated by graphviz version 2.43.0 (0)
 -->
<!-- Title: Graphical Class Hierarchy Pages: 1 -->
<svg width="478pt" height="88pt"
 viewBox="0.00 0.00 478.00 88.00" xmlns="http://www.w3.org/2000/svg" xmlns:xlink="http://www.w3.org/1999/xlink">
<g id="graph0" class="graph" transform="scale(1 1) rotate(0) translate(4 84)">
<title>Graphical Class Hierarchy</title>
<!-- Node0 -->
<g id="node1" class="node">
<title>Node0</title>
<g id="a_node1"><a xlink:href="structdg_1_1a_real_m_p_i_topology2d.html" target="_top" xlink:title="2D MPI abstract grid class">
<polygon fill="none" stroke="black" points="0,-24.5 0,-54.5 126,-54.5 126,-24.5 0,-24.5"/>
<text text-anchor="start" x="8" y="-42.5" font-family="Helvetica,sans-Serif" font-size="10.00">dg::aRealMPITopology2d</text>
<text text-anchor="middle" x="63" y="-31.5" font-family="Helvetica,sans-Serif" font-size="10.00">&lt; real_type &gt;</text>
</a>
</g>
</g>
<!-- Node1 -->
<g id="node2" class="node">
<title>Node1</title>
<g id="a_node2"><a xlink:href="structdg_1_1_real_m_p_i_grid2d.html" target="_top" xlink:title="The simplest implementation of aRealMPITopology2d.">
<polygon fill="none" stroke="black" points="174,-49.5 174,-79.5 280,-79.5 280,-49.5 174,-49.5"/>
<text text-anchor="start" x="182" y="-67.5" font-family="Helvetica,sans-Serif" font-size="10.00">dg::RealMPIGrid2d&lt;</text>
<text text-anchor="middle" x="227" y="-56.5" font-family="Helvetica,sans-Serif" font-size="10.00"> real_type &gt;</text>
</a>
</g>
</g>
<!-- Node0&#45;&gt;Node1 -->
<g id="edge1" class="edge">
<title>Node0&#45;&gt;Node1</title>
<path fill="none" stroke="midnightblue" d="M136.28,-50.65C148.98,-52.61 161.98,-54.62 174,-56.47"/>
<polygon fill="midnightblue" stroke="midnightblue" points="136.59,-47.16 126.17,-49.09 135.52,-54.08 136.59,-47.16"/>
</g>
<!-- Node2 -->
<g id="node3" class="node">
<title>Node2</title>
<g id="a_node3"><a xlink:href="structdg_1_1a_real_m_p_i_geometry2d.html" target="_top" xlink:title="This is the abstract interface class for a two&#45;dimensional Geometry.">
<polygon fill="none" stroke="black" points="162,-0.5 162,-30.5 292,-30.5 292,-0.5 162,-0.5"/>
<text text-anchor="start" x="170" y="-18.5" font-family="Helvetica,sans-Serif" font-size="10.00">dg::aRealMPIGeometry2d</text>
<text text-anchor="middle" x="227" y="-7.5" font-family="Helvetica,sans-Serif" font-size="10.00">&lt; real_type &gt;</text>
</a>
</g>
</g>
<!-- Node0&#45;&gt;Node2 -->
<g id="edge2" class="edge">
<title>Node0&#45;&gt;Node2</title>
<path fill="none" stroke="midnightblue" d="M136.14,-28.81C144.71,-27.54 153.41,-26.25 161.85,-25"/>
<polygon fill="midnightblue" stroke="midnightblue" points="135.55,-25.36 126.17,-30.29 136.58,-32.29 135.55,-25.36"/>
</g>
<!-- Node3 -->
<g id="node4" class="node">
<title>Node3</title>
<g id="a_node4"><a xlink:href="structdg_1_1_real_cartesian_m_p_i_grid2d.html" target="_top" xlink:title="The mpi version of RealCartesianGrid2d.">
<polygon fill="none" stroke="black" points="328,-0.5 328,-30.5 470,-30.5 470,-0.5 328,-0.5"/>
<text text-anchor="start" x="336" y="-18.5" font-family="Helvetica,sans-Serif" font-size="10.00">dg::RealCartesianMPIGrid2d</text>
<text text-anchor="middle" x="399" y="-7.5" font-family="Helvetica,sans-Serif" font-size="10.00">&lt; real_type &gt;</text>
</a>
</g>
</g>
<!-- Node2&#45;&gt;Node3 -->
<g id="edge3" class="edge">
<title>Node2&#45;&gt;Node3</title>
<path fill="none" stroke="midnightblue" d="M302.5,-15.5C310.96,-15.5 319.56,-15.5 327.96,-15.5"/>
<polygon fill="midnightblue" stroke="midnightblue" points="302.27,-12 292.27,-15.5 302.27,-19 302.27,-12"/>
</g>
</g>
</svg>
