<?xml version="1.0" encoding="UTF-8" standalone="no"?>
<!DOCTYPE svg PUBLIC "-//W3C//DTD SVG 1.1//EN"
 "http://www.w3.org/Graphics/SVG/1.1/DTD/svg11.dtd">
<!-- Generated by graphviz version 2.43.0 (0)
 -->
<!-- Title: Graphical Class Hierarchy Pages: 1 -->
<svg width="682pt" height="112pt"
 viewBox="0.00 0.00 682.00 112.00" xmlns="http://www.w3.org/2000/svg" xmlns:xlink="http://www.w3.org/1999/xlink">
<g id="graph0" class="graph" transform="scale(1 1) rotate(0) translate(4 108)">
<title>Graphical Class Hierarchy</title>
<!-- Node0 -->
<g id="node1" class="node">
<title>Node0</title>
<g id="a_node1"><a xlink:href="structdg_1_1a_real_m_p_i_topology3d.html" target="_top" xlink:title="3D MPI Grid class">
<polygon fill="none" stroke="black" points="0,-48.5 0,-78.5 126,-78.5 126,-48.5 0,-48.5"/>
<text text-anchor="start" x="8" y="-66.5" font-family="Helvetica,sans-Serif" font-size="10.00">dg::aRealMPITopology3d</text>
<text text-anchor="middle" x="63" y="-55.5" font-family="Helvetica,sans-Serif" font-size="10.00">&lt; real_type &gt;</text>
</a>
</g>
</g>
<!-- Node1 -->
<g id="node2" class="node">
<title>Node1</title>
<g id="a_node2"><a xlink:href="structdg_1_1_real_m_p_i_grid3d.html" target="_top" xlink:title="The simplest implementation of aRealMPITopology3d.">
<polygon fill="none" stroke="black" points="174,-73.5 174,-103.5 280,-103.5 280,-73.5 174,-73.5"/>
<text text-anchor="start" x="182" y="-91.5" font-family="Helvetica,sans-Serif" font-size="10.00">dg::RealMPIGrid3d&lt;</text>
<text text-anchor="middle" x="227" y="-80.5" font-family="Helvetica,sans-Serif" font-size="10.00"> real_type &gt;</text>
</a>
</g>
</g>
<!-- Node0&#45;&gt;Node1 -->
<g id="edge1" class="edge">
<title>Node0&#45;&gt;Node1</title>
<path fill="none" stroke="midnightblue" d="M136.28,-74.65C148.98,-76.61 161.98,-78.62 174,-80.47"/>
<polygon fill="midnightblue" stroke="midnightblue" points="136.59,-71.16 126.17,-73.09 135.52,-78.08 136.59,-71.16"/>
</g>
<!-- Node2 -->
<g id="node3" class="node">
<title>Node2</title>
<g id="a_node3"><a xlink:href="structdg_1_1a_real_m_p_i_geometry3d.html" target="_top" xlink:title="This is the abstract interface class for a three&#45;dimensional MPIGeometry.">
<polygon fill="none" stroke="black" points="162,-24.5 162,-54.5 292,-54.5 292,-24.5 162,-24.5"/>
<text text-anchor="start" x="170" y="-42.5" font-family="Helvetica,sans-Serif" font-size="10.00">dg::aRealMPIGeometry3d</text>
<text text-anchor="middle" x="227" y="-31.5" font-family="Helvetica,sans-Serif" font-size="10.00">&lt; real_type &gt;</text>
</a>
</g>
</g>
<!-- Node0&#45;&gt;Node2 -->
<g id="edge2" class="edge">
<title>Node0&#45;&gt;Node2</title>
<path fill="none" stroke="midnightblue" d="M136.14,-52.81C144.71,-51.54 153.41,-50.25 161.85,-49"/>
<polygon fill="midnightblue" stroke="midnightblue" points="135.55,-49.36 126.17,-54.29 136.58,-56.29 135.55,-49.36"/>
</g>
<!-- Node3 -->
<g id="node4" class="node">
<title>Node3</title>
<g id="a_node4"><a xlink:href="structdg_1_1a_real_product_m_p_i_geometry3d.html" target="_top" xlink:title="A 3d product space Geometry .">
<polygon fill="none" stroke="black" points="328,-24.5 328,-54.5 492,-54.5 492,-24.5 328,-24.5"/>
<text text-anchor="start" x="336" y="-42.5" font-family="Helvetica,sans-Serif" font-size="10.00">dg::aRealProductMPIGeometry3d</text>
<text text-anchor="middle" x="410" y="-31.5" font-family="Helvetica,sans-Serif" font-size="10.00">&lt; real_type &gt;</text>
</a>
</g>
</g>
<!-- Node2&#45;&gt;Node3 -->
<g id="edge3" class="edge">
<title>Node2&#45;&gt;Node3</title>
<path fill="none" stroke="midnightblue" d="M302.26,-39.5C310.71,-39.5 319.36,-39.5 327.89,-39.5"/>
<polygon fill="midnightblue" stroke="midnightblue" points="302.07,-36 292.07,-39.5 302.07,-43 302.07,-36"/>
</g>
<!-- Node4 -->
<g id="node5" class="node">
<title>Node4</title>
<g id="a_node5"><a xlink:href="structdg_1_1_real_cartesian_m_p_i_grid3d.html" target="_top" xlink:title="The mpi version of RealCartesianGrid3d.">
<polygon fill="none" stroke="black" points="530,-49.5 530,-79.5 672,-79.5 672,-49.5 530,-49.5"/>
<text text-anchor="start" x="538" y="-67.5" font-family="Helvetica,sans-Serif" font-size="10.00">dg::RealCartesianMPIGrid3d</text>
<text text-anchor="middle" x="601" y="-56.5" font-family="Helvetica,sans-Serif" font-size="10.00">&lt; real_type &gt;</text>
</a>
</g>
</g>
<!-- Node3&#45;&gt;Node4 -->
<g id="edge4" class="edge">
<title>Node3&#45;&gt;Node4</title>
<path fill="none" stroke="midnightblue" d="M502.27,-51.57C511.53,-52.8 520.83,-54.03 529.82,-55.22"/>
<polygon fill="midnightblue" stroke="midnightblue" points="502.62,-48.09 492.25,-50.25 501.7,-55.03 502.62,-48.09"/>
</g>
<!-- Node5 -->
<g id="node6" class="node">
<title>Node5</title>
<g id="a_node6"><a xlink:href="structdg_1_1_real_cylindrical_m_p_i_grid3d.html" target="_top" xlink:title="the mpi version of RealCylindricalGrid3d">
<polygon fill="none" stroke="black" points="528,-0.5 528,-30.5 674,-30.5 674,-0.5 528,-0.5"/>
<text text-anchor="start" x="536" y="-18.5" font-family="Helvetica,sans-Serif" font-size="10.00">dg::RealCylindricalMPIGrid3d</text>
<text text-anchor="middle" x="601" y="-7.5" font-family="Helvetica,sans-Serif" font-size="10.00">&lt; real_type &gt;</text>
</a>
</g>
</g>
<!-- Node3&#45;&gt;Node5 -->
<g id="edge5" class="edge">
<title>Node3&#45;&gt;Node5</title>
<path fill="none" stroke="midnightblue" d="M502.26,-27.91C510.82,-26.82 519.41,-25.73 527.76,-24.67"/>
<polygon fill="midnightblue" stroke="midnightblue" points="501.73,-24.45 492.25,-29.18 502.61,-31.39 501.73,-24.45"/>
</g>
</g>
</svg>
