<?xml version="1.0" encoding="UTF-8" standalone="no"?>
<!DOCTYPE svg PUBLIC "-//W3C//DTD SVG 1.1//EN"
 "http://www.w3.org/Graphics/SVG/1.1/DTD/svg11.dtd">
<!-- Generated by graphviz version 2.43.0 (0)
 -->
<!-- Title: Graphical Class Hierarchy Pages: 1 -->
<svg width="284pt" height="66pt"
 viewBox="0.00 0.00 284.00 66.00" xmlns="http://www.w3.org/2000/svg" xmlns:xlink="http://www.w3.org/1999/xlink">
<g id="graph0" class="graph" transform="scale(1 1) rotate(0) translate(4 62)">
<title>Graphical Class Hierarchy</title>
<!-- Node0 -->
<g id="node1" class="node">
<title>Node0</title>
<g id="a_node1"><a xlink:title=" ">
<polygon fill="none" stroke="#bfbfbf" points="0,-19.5 0,-38.5 78,-38.5 78,-19.5 0,-19.5"/>
<text text-anchor="middle" x="39" y="-26.5" font-family="Helvetica,sans-Serif" font-size="10.00">std::exception</text>
</a>
</g>
</g>
<!-- Node1 -->
<g id="node2" class="node">
<title>Node1</title>
<g id="a_node2"><a xlink:href="classdg_1_1_error.html" target="_top" xlink:title="class intended for the use in throw statements">
<polygon fill="none" stroke="black" points="125.5,-38.5 125.5,-57.5 179.5,-57.5 179.5,-38.5 125.5,-38.5"/>
<text text-anchor="middle" x="152.5" y="-45.5" font-family="Helvetica,sans-Serif" font-size="10.00">dg::Error</text>
</a>
</g>
</g>
<!-- Node0&#45;&gt;Node1 -->
<g id="edge1" class="edge">
<title>Node0&#45;&gt;Node1</title>
<path fill="none" stroke="midnightblue" d="M88.1,-37.2C100.83,-39.37 114.1,-41.63 125.2,-43.52"/>
<polygon fill="midnightblue" stroke="midnightblue" points="88.51,-33.72 78.06,-35.49 87.33,-40.62 88.51,-33.72"/>
</g>
<!-- Node3 -->
<g id="node4" class="node">
<title>Node3</title>
<g id="a_node4"><a xlink:href="classdg_1_1_no_root1d.html" target="_top" xlink:title="Exception class, that stores boundaries for 1D root finding.">
<polygon fill="none" stroke="black" points="114,-0.5 114,-19.5 191,-19.5 191,-0.5 114,-0.5"/>
<text text-anchor="middle" x="152.5" y="-7.5" font-family="Helvetica,sans-Serif" font-size="10.00">dg::NoRoot1d</text>
</a>
</g>
</g>
<!-- Node0&#45;&gt;Node3 -->
<g id="edge3" class="edge">
<title>Node0&#45;&gt;Node3</title>
<path fill="none" stroke="midnightblue" d="M88.07,-20.81C96.75,-19.33 105.67,-17.81 113.99,-16.39"/>
<polygon fill="midnightblue" stroke="midnightblue" points="87.33,-17.38 78.06,-22.51 88.51,-24.28 87.33,-17.38"/>
</g>
<!-- Node2 -->
<g id="node3" class="node">
<title>Node2</title>
<g id="a_node3"><a xlink:href="structdg_1_1_fail.html" target="_top" xlink:title="Indicate failure to converge.">
<polygon fill="none" stroke="black" points="227,-38.5 227,-57.5 276,-57.5 276,-38.5 227,-38.5"/>
<text text-anchor="middle" x="251.5" y="-45.5" font-family="Helvetica,sans-Serif" font-size="10.00">dg::Fail</text>
</a>
</g>
</g>
<!-- Node1&#45;&gt;Node2 -->
<g id="edge2" class="edge">
<title>Node1&#45;&gt;Node2</title>
<path fill="none" stroke="midnightblue" d="M189.82,-48C202.22,-48 215.75,-48 226.88,-48"/>
<polygon fill="midnightblue" stroke="midnightblue" points="189.75,-44.5 179.75,-48 189.75,-51.5 189.75,-44.5"/>
</g>
</g>
</svg>
