<?xml version="1.0" encoding="UTF-8" standalone="no"?>
<!DOCTYPE svg PUBLIC "-//W3C//DTD SVG 1.1//EN"
 "http://www.w3.org/Graphics/SVG/1.1/DTD/svg11.dtd">
<!-- Generated by graphviz version 2.43.0 (0)
 -->
<!-- Title: Graphical Class Hierarchy Pages: 1 -->
<svg width="284pt" height="137pt"
 viewBox="0.00 0.00 284.00 137.00" xmlns="http://www.w3.org/2000/svg" xmlns:xlink="http://www.w3.org/1999/xlink">
<g id="graph0" class="graph" transform="scale(1 1) rotate(0) translate(4 133)">
<title>Graphical Class Hierarchy</title>
<!-- Node0 -->
<g id="node1" class="node">
<title>Node0</title>
<g id="a_node1"><a xlink:href="structdg_1_1a_communicator.html" target="_top" xlink:title=" ">
<polygon fill="none" stroke="black" points="0,-49.5 0,-79.5 108,-79.5 108,-49.5 0,-49.5"/>
<text text-anchor="start" x="8" y="-67.5" font-family="Helvetica,sans-Serif" font-size="10.00">dg::aCommunicator&lt;</text>
<text text-anchor="middle" x="54" y="-56.5" font-family="Helvetica,sans-Serif" font-size="10.00"> Vector &gt;</text>
</a>
</g>
</g>
<!-- Node1 -->
<g id="node2" class="node">
<title>Node1</title>
<g id="a_node2"><a xlink:href="structdg_1_1_bijective_comm.html" target="_top" xlink:title="Perform bijective gather and its transpose (scatter) operation across processes on distributed vector...">
<polygon fill="none" stroke="black" points="157,-98.5 157,-128.5 263,-128.5 263,-98.5 157,-98.5"/>
<text text-anchor="start" x="165" y="-116.5" font-family="Helvetica,sans-Serif" font-size="10.00">dg::BijectiveComm&lt;</text>
<text text-anchor="middle" x="210" y="-105.5" font-family="Helvetica,sans-Serif" font-size="10.00"> Index, Vector &gt;</text>
</a>
</g>
</g>
<!-- Node0&#45;&gt;Node1 -->
<g id="edge1" class="edge">
<title>Node0&#45;&gt;Node1</title>
<path fill="none" stroke="midnightblue" d="M112.39,-82.76C128.63,-87.93 146.12,-93.49 161.7,-98.45"/>
<polygon fill="midnightblue" stroke="midnightblue" points="113.05,-79.3 102.46,-79.6 110.93,-85.97 113.05,-79.3"/>
</g>
<!-- Node2 -->
<g id="node3" class="node">
<title>Node2</title>
<g id="a_node3"><a xlink:href="structdg_1_1_general_comm.html" target="_top" xlink:title="Perform general gather and its transpose (scatter) operation across processes on distributed vectors ...">
<polygon fill="none" stroke="black" points="144,-49.5 144,-79.5 276,-79.5 276,-49.5 144,-49.5"/>
<text text-anchor="start" x="152" y="-67.5" font-family="Helvetica,sans-Serif" font-size="10.00">dg::GeneralComm&lt; Index,</text>
<text text-anchor="middle" x="210" y="-56.5" font-family="Helvetica,sans-Serif" font-size="10.00"> Vector &gt;</text>
</a>
</g>
</g>
<!-- Node0&#45;&gt;Node2 -->
<g id="edge2" class="edge">
<title>Node0&#45;&gt;Node2</title>
<path fill="none" stroke="midnightblue" d="M118.54,-64.5C126.94,-64.5 135.56,-64.5 143.99,-64.5"/>
<polygon fill="midnightblue" stroke="midnightblue" points="118.43,-61 108.43,-64.5 118.43,-68 118.43,-61"/>
</g>
<!-- Node3 -->
<g id="node4" class="node">
<title>Node3</title>
<g id="a_node4"><a xlink:href="structdg_1_1_surjective_comm.html" target="_top" xlink:title="Perform surjective gather and its transpose (scatter) operation across processes on distributed vecto...">
<polygon fill="none" stroke="black" points="157,-0.5 157,-30.5 263,-30.5 263,-0.5 157,-0.5"/>
<text text-anchor="start" x="165" y="-18.5" font-family="Helvetica,sans-Serif" font-size="10.00">dg::SurjectiveComm</text>
<text text-anchor="middle" x="210" y="-7.5" font-family="Helvetica,sans-Serif" font-size="10.00">&lt; Index, Vector &gt;</text>
</a>
</g>
</g>
<!-- Node0&#45;&gt;Node3 -->
<g id="edge3" class="edge">
<title>Node0&#45;&gt;Node3</title>
<path fill="none" stroke="midnightblue" d="M112.39,-46.24C128.63,-41.07 146.12,-35.51 161.7,-30.55"/>
<polygon fill="midnightblue" stroke="midnightblue" points="110.93,-43.03 102.46,-49.4 113.05,-49.7 110.93,-43.03"/>
</g>
</g>
</svg>
