<?xml version="1.0" encoding="UTF-8" standalone="no"?>
<!DOCTYPE svg PUBLIC "-//W3C//DTD SVG 1.1//EN"
 "http://www.w3.org/Graphics/SVG/1.1/DTD/svg11.dtd">
<!-- Generated by graphviz version 2.43.0 (0)
 -->
<!-- Title: Graphical Class Hierarchy Pages: 1 -->
<svg width="211pt" height="104pt"
 viewBox="0.00 0.00 211.00 104.00" xmlns="http://www.w3.org/2000/svg" xmlns:xlink="http://www.w3.org/1999/xlink">
<g id="graph0" class="graph" transform="scale(1 1) rotate(0) translate(4 100)">
<title>Graphical Class Hierarchy</title>
<!-- Node0 -->
<g id="node1" class="node">
<title>Node0</title>
<g id="a_node1"><a xlink:href="structdg_1_1_any_policy_tag.html" target="_top" xlink:title="Execution Policy base class.">
<polygon fill="none" stroke="black" points="0,-38.5 0,-57.5 93,-57.5 93,-38.5 0,-38.5"/>
<text text-anchor="middle" x="46.5" y="-45.5" font-family="Helvetica,sans-Serif" font-size="10.00">dg::AnyPolicyTag</text>
</a>
</g>
</g>
<!-- Node1 -->
<g id="node2" class="node">
<title>Node1</title>
<g id="a_node2"><a xlink:href="structdg_1_1_cuda_tag.html" target="_top" xlink:title="CUDA implementation.">
<polygon fill="none" stroke="black" points="130,-76.5 130,-95.5 202,-95.5 202,-76.5 130,-76.5"/>
<text text-anchor="middle" x="166" y="-83.5" font-family="Helvetica,sans-Serif" font-size="10.00">dg::CudaTag</text>
</a>
</g>
</g>
<!-- Node0&#45;&gt;Node1 -->
<g id="edge1" class="edge">
<title>Node0&#45;&gt;Node1</title>
<path fill="none" stroke="midnightblue" d="M86.71,-60.68C102.59,-65.81 120.61,-71.64 135.36,-76.41"/>
<polygon fill="midnightblue" stroke="midnightblue" points="87.74,-57.34 77.15,-57.59 85.59,-64 87.74,-57.34"/>
</g>
<!-- Node2 -->
<g id="node3" class="node">
<title>Node2</title>
<g id="a_node3"><a xlink:href="structdg_1_1_omp_tag.html" target="_top" xlink:title="OpenMP parallel execution.">
<polygon fill="none" stroke="black" points="131,-38.5 131,-57.5 201,-57.5 201,-38.5 131,-38.5"/>
<text text-anchor="middle" x="166" y="-45.5" font-family="Helvetica,sans-Serif" font-size="10.00">dg::OmpTag</text>
</a>
</g>
</g>
<!-- Node0&#45;&gt;Node2 -->
<g id="edge2" class="edge">
<title>Node0&#45;&gt;Node2</title>
<path fill="none" stroke="midnightblue" d="M103.36,-48C112.73,-48 122.21,-48 130.82,-48"/>
<polygon fill="midnightblue" stroke="midnightblue" points="103.27,-44.5 93.27,-48 103.26,-51.5 103.27,-44.5"/>
</g>
<!-- Node3 -->
<g id="node4" class="node">
<title>Node3</title>
<g id="a_node4"><a xlink:href="structdg_1_1_serial_tag.html" target="_top" xlink:title="Indicate sequential execution.">
<polygon fill="none" stroke="black" points="129,-0.5 129,-19.5 203,-19.5 203,-0.5 129,-0.5"/>
<text text-anchor="middle" x="166" y="-7.5" font-family="Helvetica,sans-Serif" font-size="10.00">dg::SerialTag</text>
</a>
</g>
</g>
<!-- Node0&#45;&gt;Node3 -->
<g id="edge3" class="edge">
<title>Node0&#45;&gt;Node3</title>
<path fill="none" stroke="midnightblue" d="M86.71,-35.32C102.59,-30.19 120.61,-24.36 135.36,-19.59"/>
<polygon fill="midnightblue" stroke="midnightblue" points="85.59,-32 77.15,-38.41 87.74,-38.66 85.59,-32"/>
</g>
</g>
</svg>
