<?xml version="1.0" encoding="UTF-8" standalone="no"?>
<!DOCTYPE svg PUBLIC "-//W3C//DTD SVG 1.1//EN"
 "http://www.w3.org/Graphics/SVG/1.1/DTD/svg11.dtd">
<!-- Generated by graphviz version 2.43.0 (0)
 -->
<!-- Title: Graphical Class Hierarchy Pages: 1 -->
<svg width="841pt" height="275pt"
 viewBox="0.00 0.00 841.00 275.00" xmlns="http://www.w3.org/2000/svg" xmlns:xlink="http://www.w3.org/1999/xlink">
<g id="graph0" class="graph" transform="scale(1 1) rotate(0) translate(4 271)">
<title>Graphical Class Hierarchy</title>
<!-- Node0 -->
<g id="node1" class="node">
<title>Node0</title>
<g id="a_node1"><a xlink:href="structdg_1_1_any_matrix_tag.html" target="_top" xlink:title=" ">
<polygon fill="none" stroke="black" points="0,-95.5 0,-114.5 93,-114.5 93,-95.5 0,-95.5"/>
<text text-anchor="middle" x="46.5" y="-102.5" font-family="Helvetica,sans-Serif" font-size="10.00">dg::AnyMatrixTag</text>
</a>
</g>
</g>
<!-- Node1 -->
<g id="node2" class="node">
<title>Node1</title>
<g id="a_node2"><a xlink:href="structdg_1_1_any_vector_tag.html" target="_top" xlink:title="Vector Tag base class, indicates the basic Vector/container concept.">
<polygon fill="none" stroke="black" points="147,-190.5 147,-209.5 242,-209.5 242,-190.5 147,-190.5"/>
<text text-anchor="middle" x="194.5" y="-197.5" font-family="Helvetica,sans-Serif" font-size="10.00">dg::AnyVectorTag</text>
</a>
</g>
</g>
<!-- Node0&#45;&gt;Node1 -->
<g id="edge1" class="edge">
<title>Node0&#45;&gt;Node1</title>
<path fill="none" stroke="midnightblue" d="M61.75,-122.35C76.78,-139.58 102,-165.59 129,-181 135.69,-184.82 143.22,-187.93 150.71,-190.45"/>
<polygon fill="midnightblue" stroke="midnightblue" points="64.37,-120.03 55.22,-114.68 59.04,-124.56 64.37,-120.03"/>
</g>
<!-- Node12 -->
<g id="node13" class="node">
<title>Node12</title>
<g id="a_node13"><a xlink:href="structdg_1_1_cusp_matrix_tag.html" target="_top" xlink:title="One of cusp&#39;s matrices, for these only the blas2 transfer and the symv( m,x,y) are implemented.">
<polygon fill="none" stroke="black" points="145,-152.5 145,-171.5 244,-171.5 244,-152.5 145,-152.5"/>
<text text-anchor="middle" x="194.5" y="-159.5" font-family="Helvetica,sans-Serif" font-size="10.00">dg::CuspMatrixTag</text>
</a>
</g>
</g>
<!-- Node0&#45;&gt;Node12 -->
<g id="edge12" class="edge">
<title>Node0&#45;&gt;Node12</title>
<path fill="none" stroke="midnightblue" d="M75.02,-119.09C90.61,-126.75 110.62,-136.05 129,-143 138.17,-146.47 148.27,-149.7 157.7,-152.49"/>
<polygon fill="midnightblue" stroke="midnightblue" points="76.44,-115.89 65.93,-114.56 73.32,-122.16 76.44,-115.89"/>
</g>
<!-- Node13 -->
<g id="node14" class="node">
<title>Node13</title>
<g id="a_node14"><a xlink:href="structdg_1_1_dense_matrix_tag.html" target="_top" xlink:title="indicate our dense matrix format">
<polygon fill="none" stroke="black" points="142.5,-114.5 142.5,-133.5 246.5,-133.5 246.5,-114.5 142.5,-114.5"/>
<text text-anchor="middle" x="194.5" y="-121.5" font-family="Helvetica,sans-Serif" font-size="10.00">dg::DenseMatrixTag</text>
</a>
</g>
</g>
<!-- Node0&#45;&gt;Node13 -->
<g id="edge13" class="edge">
<title>Node0&#45;&gt;Node13</title>
<path fill="none" stroke="midnightblue" d="M103.36,-112.27C116.15,-113.93 129.69,-115.7 142.28,-117.33"/>
<polygon fill="midnightblue" stroke="midnightblue" points="103.66,-108.78 93.29,-110.96 102.76,-115.72 103.66,-108.78"/>
</g>
<!-- Node14 -->
<g id="node15" class="node">
<title>Node14</title>
<g id="a_node15"><a xlink:href="structdg_1_1_m_p_i_matrix_tag.html" target="_top" xlink:title="indicate one of our mpi matrices">
<polygon fill="none" stroke="black" points="147.5,-76.5 147.5,-95.5 241.5,-95.5 241.5,-76.5 147.5,-76.5"/>
<text text-anchor="middle" x="194.5" y="-83.5" font-family="Helvetica,sans-Serif" font-size="10.00">dg::MPIMatrixTag</text>
</a>
</g>
</g>
<!-- Node0&#45;&gt;Node14 -->
<g id="edge14" class="edge">
<title>Node0&#45;&gt;Node14</title>
<path fill="none" stroke="midnightblue" d="M103.62,-97.7C118.08,-95.81 133.48,-93.81 147.37,-92"/>
<polygon fill="midnightblue" stroke="midnightblue" points="102.76,-94.28 93.29,-99.04 103.66,-101.22 102.76,-94.28"/>
</g>
<!-- Node15 -->
<g id="node16" class="node">
<title>Node15</title>
<g id="a_node16"><a xlink:href="structdg_1_1_self_made_matrix_tag.html" target="_top" xlink:title="Indicates that the type has a member function with the same name and interface (up to the matrix itse...">
<polygon fill="none" stroke="black" points="136,-38.5 136,-57.5 253,-57.5 253,-38.5 136,-38.5"/>
<text text-anchor="middle" x="194.5" y="-45.5" font-family="Helvetica,sans-Serif" font-size="10.00">dg::SelfMadeMatrixTag</text>
</a>
</g>
</g>
<!-- Node0&#45;&gt;Node15 -->
<g id="edge15" class="edge">
<title>Node0&#45;&gt;Node15</title>
<path fill="none" stroke="midnightblue" d="M75.02,-90.91C90.61,-83.25 110.62,-73.95 129,-67 138.17,-63.53 148.27,-60.3 157.7,-57.51"/>
<polygon fill="midnightblue" stroke="midnightblue" points="73.32,-87.84 65.93,-95.44 76.44,-94.11 73.32,-87.84"/>
</g>
<!-- Node16 -->
<g id="node17" class="node">
<title>Node16</title>
<g id="a_node17"><a xlink:href="structdg_1_1_sparse_block_matrix_tag.html" target="_top" xlink:title="indicate our sparse block matrix format">
<polygon fill="none" stroke="black" points="129,-0.5 129,-19.5 260,-19.5 260,-0.5 129,-0.5"/>
<text text-anchor="middle" x="194.5" y="-7.5" font-family="Helvetica,sans-Serif" font-size="10.00">dg::SparseBlockMatrixTag</text>
</a>
</g>
</g>
<!-- Node0&#45;&gt;Node16 -->
<g id="edge16" class="edge">
<title>Node0&#45;&gt;Node16</title>
<path fill="none" stroke="midnightblue" d="M61.75,-87.65C76.78,-70.42 102,-44.41 129,-29 135.69,-25.18 143.22,-22.07 150.71,-19.55"/>
<polygon fill="midnightblue" stroke="midnightblue" points="59.04,-85.44 55.22,-95.32 64.37,-89.97 59.04,-85.44"/>
</g>
<!-- Node2 -->
<g id="node3" class="node">
<title>Node2</title>
<g id="a_node3"><a xlink:href="structdg_1_1_any_scalar_tag.html" target="_top" xlink:title="Scalar Tag base class, indicates the basic Scalar Tensor concept.">
<polygon fill="none" stroke="black" points="310,-247.5 310,-266.5 404,-266.5 404,-247.5 310,-247.5"/>
<text text-anchor="middle" x="357" y="-254.5" font-family="Helvetica,sans-Serif" font-size="10.00">dg::AnyScalarTag</text>
</a>
</g>
</g>
<!-- Node1&#45;&gt;Node2 -->
<g id="edge2" class="edge">
<title>Node1&#45;&gt;Node2</title>
<path fill="none" stroke="midnightblue" d="M229.08,-213.22C248.53,-220.75 273.54,-230.2 296,-238 305.29,-241.22 315.46,-244.53 324.75,-247.46"/>
<polygon fill="midnightblue" stroke="midnightblue" points="230.32,-209.95 219.73,-209.59 227.79,-216.48 230.32,-209.95"/>
</g>
<!-- Node4 -->
<g id="node5" class="node">
<title>Node4</title>
<g id="a_node5"><a xlink:href="structdg_1_1_m_p_i_vector_tag.html" target="_top" xlink:title="A distributed vector contains a data container and a MPI communicator.">
<polygon fill="none" stroke="black" points="309.5,-209.5 309.5,-228.5 404.5,-228.5 404.5,-209.5 309.5,-209.5"/>
<text text-anchor="middle" x="357" y="-216.5" font-family="Helvetica,sans-Serif" font-size="10.00">dg::MPIVectorTag</text>
</a>
</g>
</g>
<!-- Node1&#45;&gt;Node4 -->
<g id="edge4" class="edge">
<title>Node1&#45;&gt;Node4</title>
<path fill="none" stroke="midnightblue" d="M252.49,-206.75C271.12,-208.95 291.59,-211.37 309.36,-213.48"/>
<polygon fill="midnightblue" stroke="midnightblue" points="252.7,-203.25 242.35,-205.55 251.87,-210.2 252.7,-203.25"/>
</g>
<!-- Node5 -->
<g id="node6" class="node">
<title>Node5</title>
<g id="a_node6"><a xlink:href="structdg_1_1_recursive_vector_tag.html" target="_top" xlink:title="This tag indicates composition/recursion.">
<polygon fill="none" stroke="black" points="296,-171.5 296,-190.5 418,-190.5 418,-171.5 296,-171.5"/>
<text text-anchor="middle" x="357" y="-178.5" font-family="Helvetica,sans-Serif" font-size="10.00">dg::RecursiveVectorTag</text>
</a>
</g>
</g>
<!-- Node1&#45;&gt;Node5 -->
<g id="edge5" class="edge">
<title>Node1&#45;&gt;Node5</title>
<path fill="none" stroke="midnightblue" d="M252.41,-193.26C266.51,-191.59 281.67,-189.8 295.92,-188.11"/>
<polygon fill="midnightblue" stroke="midnightblue" points="251.87,-189.8 242.35,-194.45 252.7,-196.75 251.87,-189.8"/>
</g>
<!-- Node8 -->
<g id="node9" class="node">
<title>Node8</title>
<g id="a_node9"><a xlink:href="structdg_1_1_shared_vector_tag.html" target="_top" xlink:title="Indicate a contiguous chunk of shared memory.">
<polygon fill="none" stroke="black" points="303,-133.5 303,-152.5 411,-152.5 411,-133.5 303,-133.5"/>
<text text-anchor="middle" x="357" y="-140.5" font-family="Helvetica,sans-Serif" font-size="10.00">dg::SharedVectorTag</text>
</a>
</g>
</g>
<!-- Node1&#45;&gt;Node8 -->
<g id="edge8" class="edge">
<title>Node1&#45;&gt;Node8</title>
<path fill="none" stroke="midnightblue" d="M241.98,-187.52C248.11,-185.52 254.25,-183.34 260,-181 276.76,-174.19 279.31,-168.98 296,-162 304.37,-158.5 313.62,-155.27 322.29,-152.51"/>
<polygon fill="midnightblue" stroke="midnightblue" points="240.94,-184.18 232.43,-190.49 243.02,-190.86 240.94,-184.18"/>
</g>
<!-- Node3 -->
<g id="node4" class="node">
<title>Node3</title>
<g id="a_node4"><a xlink:href="structdg_1_1_scalar_tag.html" target="_top" xlink:title=" ">
<polygon fill="none" stroke="black" points="466,-247.5 466,-266.5 543,-266.5 543,-247.5 466,-247.5"/>
<text text-anchor="middle" x="504.5" y="-254.5" font-family="Helvetica,sans-Serif" font-size="10.00">dg::ScalarTag</text>
</a>
</g>
</g>
<!-- Node2&#45;&gt;Node3 -->
<g id="edge3" class="edge">
<title>Node2&#45;&gt;Node3</title>
<path fill="none" stroke="midnightblue" d="M414.49,-257C431.6,-257 449.97,-257 465.56,-257"/>
<polygon fill="midnightblue" stroke="midnightblue" points="414.04,-253.5 404.04,-257 414.04,-260.5 414.04,-253.5"/>
</g>
<!-- Node6 -->
<g id="node7" class="node">
<title>Node6</title>
<g id="a_node7"><a xlink:href="structdg_1_1_array_vector_tag.html" target="_top" xlink:title=" ">
<polygon fill="none" stroke="black" points="454,-209.5 454,-228.5 555,-228.5 555,-209.5 454,-209.5"/>
<text text-anchor="middle" x="504.5" y="-216.5" font-family="Helvetica,sans-Serif" font-size="10.00">dg::ArrayVectorTag</text>
</a>
</g>
</g>
<!-- Node5&#45;&gt;Node6 -->
<g id="edge6" class="edge">
<title>Node5&#45;&gt;Node6</title>
<path fill="none" stroke="midnightblue" d="M404.65,-193.18C424.85,-198.46 448.15,-204.54 467.05,-209.48"/>
<polygon fill="midnightblue" stroke="midnightblue" points="405.28,-189.73 394.72,-190.59 403.51,-196.5 405.28,-189.73"/>
</g>
<!-- Node7 -->
<g id="node8" class="node">
<title>Node7</title>
<g id="a_node8"><a xlink:href="structdg_1_1_std_map_tag.html" target="_top" xlink:title=" ">
<polygon fill="none" stroke="black" points="463,-171.5 463,-190.5 546,-190.5 546,-171.5 463,-171.5"/>
<text text-anchor="middle" x="504.5" y="-178.5" font-family="Helvetica,sans-Serif" font-size="10.00">dg::StdMapTag</text>
</a>
</g>
</g>
<!-- Node5&#45;&gt;Node7 -->
<g id="edge7" class="edge">
<title>Node5&#45;&gt;Node7</title>
<path fill="none" stroke="midnightblue" d="M428.32,-181C440.1,-181 451.97,-181 462.68,-181"/>
<polygon fill="midnightblue" stroke="midnightblue" points="428.02,-177.5 418.02,-181 428.02,-184.5 428.02,-177.5"/>
</g>
<!-- Node9 -->
<g id="node10" class="node">
<title>Node9</title>
<g id="a_node10"><a xlink:href="structdg_1_1_array_scalar_tag.html" target="_top" xlink:title=" ">
<polygon fill="none" stroke="black" points="454.5,-133.5 454.5,-152.5 554.5,-152.5 554.5,-133.5 454.5,-133.5"/>
<text text-anchor="middle" x="504.5" y="-140.5" font-family="Helvetica,sans-Serif" font-size="10.00">dg::ArrayScalarTag</text>
</a>
</g>
</g>
<!-- Node8&#45;&gt;Node9 -->
<g id="edge9" class="edge">
<title>Node8&#45;&gt;Node9</title>
<path fill="none" stroke="midnightblue" d="M421.42,-143C432.5,-143 443.88,-143 454.5,-143"/>
<polygon fill="midnightblue" stroke="midnightblue" points="421.35,-139.5 411.35,-143 421.35,-146.5 421.35,-139.5"/>
</g>
<!-- Node10 -->
<g id="node11" class="node">
<title>Node10</title>
<g id="a_node11"><a xlink:href="structdg_1_1_thrust_vector_tag.html" target="_top" xlink:title="Indicate thrust/std &#45; like behaviour.">
<polygon fill="none" stroke="black" points="591,-133.5 591,-152.5 696,-152.5 696,-133.5 591,-133.5"/>
<text text-anchor="middle" x="643.5" y="-140.5" font-family="Helvetica,sans-Serif" font-size="10.00">dg::ThrustVectorTag</text>
</a>
</g>
</g>
<!-- Node9&#45;&gt;Node10 -->
<g id="edge10" class="edge">
<title>Node9&#45;&gt;Node10</title>
<path fill="none" stroke="midnightblue" d="M564.71,-143C573.46,-143 582.42,-143 590.99,-143"/>
<polygon fill="midnightblue" stroke="midnightblue" points="564.57,-139.5 554.57,-143 564.57,-146.5 564.57,-139.5"/>
</g>
<!-- Node11 -->
<g id="node12" class="node">
<title>Node11</title>
<g id="a_node12"><a xlink:href="structdg_1_1_cusp_vector_tag.html" target="_top" xlink:title="special tag for cusp arrays">
<polygon fill="none" stroke="black" points="732,-133.5 732,-152.5 833,-152.5 833,-133.5 732,-133.5"/>
<text text-anchor="middle" x="782.5" y="-140.5" font-family="Helvetica,sans-Serif" font-size="10.00">dg::CuspVectorTag</text>
</a>
</g>
</g>
<!-- Node10&#45;&gt;Node11 -->
<g id="edge11" class="edge">
<title>Node10&#45;&gt;Node11</title>
<path fill="none" stroke="midnightblue" d="M706.55,-143C715.04,-143 723.67,-143 731.9,-143"/>
<polygon fill="midnightblue" stroke="midnightblue" points="706.29,-139.5 696.29,-143 706.29,-146.5 706.29,-139.5"/>
</g>
</g>
</svg>
