<?xml version="1.0" encoding="UTF-8" standalone="no"?>
<!DOCTYPE svg PUBLIC "-//W3C//DTD SVG 1.1//EN"
 "http://www.w3.org/Graphics/SVG/1.1/DTD/svg11.dtd">
<!-- Generated by graphviz version 2.43.0 (0)
 -->
<!-- Title: dg::aRealGeometry3d&lt; real_type &gt; Pages: 1 -->
<svg width="610pt" height="112pt"
 viewBox="0.00 0.00 610.00 112.00" xmlns="http://www.w3.org/2000/svg" xmlns:xlink="http://www.w3.org/1999/xlink">
<g id="graph0" class="graph" transform="scale(1 1) rotate(0) translate(4 108)">
<title>dg::aRealGeometry3d&lt; real_type &gt;</title>
<!-- Node1 -->
<g id="node1" class="node">
<title>Node1</title>
<g id="a_node1"><a xlink:title="This is the abstract interface class for a three&#45;dimensional Geometry.">
<polygon fill="#bfbfbf" stroke="black" points="144,-48.5 144,-78.5 256,-78.5 256,-48.5 144,-48.5"/>
<text text-anchor="start" x="152" y="-66.5" font-family="Helvetica,sans-Serif" font-size="10.00">dg::aRealGeometry3d</text>
<text text-anchor="middle" x="200" y="-55.5" font-family="Helvetica,sans-Serif" font-size="10.00">&lt; real_type &gt;</text>
</a>
</g>
</g>
<!-- Node3 -->
<g id="node3" class="node">
<title>Node3</title>
<g id="a_node3"><a xlink:href="structdg_1_1_real_cartesian_refined_grid3d.html" target="_top" xlink:title="Refined RealCartesian grid.">
<polygon fill="none" stroke="black" points="300.5,-73.5 300.5,-103.5 429.5,-103.5 429.5,-73.5 300.5,-73.5"/>
<text text-anchor="start" x="308.5" y="-91.5" font-family="Helvetica,sans-Serif" font-size="10.00">dg::RealCartesianRefined</text>
<text text-anchor="middle" x="365" y="-80.5" font-family="Helvetica,sans-Serif" font-size="10.00">Grid3d&lt; real_type &gt;</text>
</a>
</g>
</g>
<!-- Node1&#45;&gt;Node3 -->
<g id="edge2" class="edge">
<title>Node1&#45;&gt;Node3</title>
<path fill="none" stroke="midnightblue" d="M266.36,-73.52C277.59,-75.25 289.25,-77.04 300.44,-78.75"/>
<polygon fill="midnightblue" stroke="midnightblue" points="266.6,-70.02 256.18,-71.96 265.54,-76.94 266.6,-70.02"/>
</g>
<!-- Node4 -->
<g id="node4" class="node">
<title>Node4</title>
<g id="a_node4"><a xlink:href="structdg_1_1a_real_product_geometry3d.html" target="_top" xlink:title="A 3d product space Geometry .">
<polygon fill="none" stroke="black" points="292,-24.5 292,-54.5 438,-54.5 438,-24.5 292,-24.5"/>
<text text-anchor="start" x="300" y="-42.5" font-family="Helvetica,sans-Serif" font-size="10.00">dg::aRealProductGeometry3d</text>
<text text-anchor="middle" x="365" y="-31.5" font-family="Helvetica,sans-Serif" font-size="10.00">&lt; real_type &gt;</text>
</a>
</g>
</g>
<!-- Node1&#45;&gt;Node4 -->
<g id="edge3" class="edge">
<title>Node1&#45;&gt;Node4</title>
<path fill="none" stroke="midnightblue" d="M266.29,-53.89C274.68,-52.65 283.32,-51.38 291.82,-50.13"/>
<polygon fill="midnightblue" stroke="midnightblue" points="265.57,-50.46 256.18,-55.37 266.59,-57.38 265.57,-50.46"/>
</g>
<!-- Node2 -->
<g id="node2" class="node">
<title>Node2</title>
<g id="a_node2"><a xlink:href="structdg_1_1a_real_topology3d.html" target="_top" xlink:title="An abstract base class for three&#45;dimensional grids.">
<polygon fill="none" stroke="black" points="0,-48.5 0,-78.5 108,-78.5 108,-48.5 0,-48.5"/>
<text text-anchor="start" x="8" y="-66.5" font-family="Helvetica,sans-Serif" font-size="10.00">dg::aRealTopology3d</text>
<text text-anchor="middle" x="54" y="-55.5" font-family="Helvetica,sans-Serif" font-size="10.00">&lt; real_type &gt;</text>
</a>
</g>
</g>
<!-- Node2&#45;&gt;Node1 -->
<g id="edge1" class="edge">
<title>Node2&#45;&gt;Node1</title>
<path fill="none" stroke="midnightblue" d="M118.36,-63.5C126.77,-63.5 135.34,-63.5 143.6,-63.5"/>
<polygon fill="midnightblue" stroke="midnightblue" points="118.21,-60 108.21,-63.5 118.21,-67 118.21,-60"/>
</g>
<!-- Node5 -->
<g id="node5" class="node">
<title>Node5</title>
<g id="a_node5"><a xlink:href="structdg_1_1_real_cartesian_grid3d.html" target="_top" xlink:title="three&#45;dimensional Grid with Cartesian metric">
<polygon fill="none" stroke="black" points="476,-49.5 476,-79.5 600,-79.5 600,-49.5 476,-49.5"/>
<text text-anchor="start" x="484" y="-67.5" font-family="Helvetica,sans-Serif" font-size="10.00">dg::RealCartesianGrid3d</text>
<text text-anchor="middle" x="538" y="-56.5" font-family="Helvetica,sans-Serif" font-size="10.00">&lt; real_type &gt;</text>
</a>
</g>
</g>
<!-- Node4&#45;&gt;Node5 -->
<g id="edge4" class="edge">
<title>Node4&#45;&gt;Node5</title>
<path fill="none" stroke="midnightblue" d="M448.12,-51.51C457.47,-52.87 466.87,-54.25 475.88,-55.56"/>
<polygon fill="midnightblue" stroke="midnightblue" points="448.42,-48.01 438.02,-50.03 447.41,-54.94 448.42,-48.01"/>
</g>
<!-- Node6 -->
<g id="node6" class="node">
<title>Node6</title>
<g id="a_node6"><a xlink:href="structdg_1_1_real_cylindrical_grid3d.html" target="_top" xlink:title="three&#45;dimensional Grid with Cylindrical metric">
<polygon fill="none" stroke="black" points="474,-0.5 474,-30.5 602,-30.5 602,-0.5 474,-0.5"/>
<text text-anchor="start" x="482" y="-18.5" font-family="Helvetica,sans-Serif" font-size="10.00">dg::RealCylindricalGrid3d</text>
<text text-anchor="middle" x="538" y="-7.5" font-family="Helvetica,sans-Serif" font-size="10.00">&lt; real_type &gt;</text>
</a>
</g>
</g>
<!-- Node4&#45;&gt;Node6 -->
<g id="edge5" class="edge">
<title>Node4&#45;&gt;Node6</title>
<path fill="none" stroke="midnightblue" d="M448.1,-27.98C456.72,-26.77 465.38,-25.55 473.74,-24.38"/>
<polygon fill="midnightblue" stroke="midnightblue" points="447.44,-24.54 438.02,-29.39 448.41,-31.47 447.44,-24.54"/>
</g>
</g>
</svg>
