<?xml version="1.0" encoding="UTF-8" standalone="no"?>
<!DOCTYPE svg PUBLIC "-//W3C//DTD SVG 1.1//EN"
 "http://www.w3.org/Graphics/SVG/1.1/DTD/svg11.dtd">
<!-- Generated by graphviz version 2.43.0 (0)
 -->
<!-- Title: dg::AnyVectorTag Pages: 1 -->
<svg width="482pt" height="308pt"
 viewBox="0.00 0.00 482.00 308.00" xmlns="http://www.w3.org/2000/svg" xmlns:xlink="http://www.w3.org/1999/xlink">
<g id="graph0" class="graph" transform="scale(1 1) rotate(0) translate(4 304)">
<title>dg::AnyVectorTag</title>
<!-- Node1 -->
<g id="node1" class="node">
<title>Node1</title>
<g id="a_node1"><a xlink:title="Vector Tag base class, indicates the basic Vector/container concept.">
<polygon fill="#bfbfbf" stroke="black" points="175.5,-224.5 175.5,-243.5 270.5,-243.5 270.5,-224.5 175.5,-224.5"/>
<text text-anchor="middle" x="223" y="-231.5" font-family="Helvetica,sans-Serif" font-size="10.00">dg::AnyVectorTag</text>
</a>
</g>
</g>
<!-- Node3 -->
<g id="node3" class="node">
<title>Node3</title>
<g id="a_node3"><a xlink:href="structdg_1_1_any_scalar_tag.html" target="_top" xlink:title="Scalar Tag base class, indicates the basic Scalar Tensor concept.">
<polygon fill="none" stroke="black" points="0,-168.5 0,-187.5 94,-187.5 94,-168.5 0,-168.5"/>
<text text-anchor="middle" x="47" y="-175.5" font-family="Helvetica,sans-Serif" font-size="10.00">dg::AnyScalarTag</text>
</a>
</g>
</g>
<!-- Node1&#45;&gt;Node3 -->
<g id="edge2" class="edge">
<title>Node1&#45;&gt;Node3</title>
<path fill="none" stroke="midnightblue" d="M185.31,-221.44C152.13,-211.26 104.57,-196.66 74.76,-187.52"/>
<polygon fill="midnightblue" stroke="midnightblue" points="184.53,-224.86 195.11,-224.44 186.58,-218.16 184.53,-224.86"/>
</g>
<!-- Node5 -->
<g id="node5" class="node">
<title>Node5</title>
<g id="a_node5"><a xlink:href="structdg_1_1_m_p_i_vector_tag.html" target="_top" xlink:title="A distributed vector contains a data container and a MPI communicator.">
<polygon fill="none" stroke="black" points="112.5,-168.5 112.5,-187.5 207.5,-187.5 207.5,-168.5 112.5,-168.5"/>
<text text-anchor="middle" x="160" y="-175.5" font-family="Helvetica,sans-Serif" font-size="10.00">dg::MPIVectorTag</text>
</a>
</g>
</g>
<!-- Node1&#45;&gt;Node5 -->
<g id="edge4" class="edge">
<title>Node1&#45;&gt;Node5</title>
<path fill="none" stroke="midnightblue" d="M204.96,-217.54C193.73,-207.91 179.68,-195.87 170.31,-187.83"/>
<polygon fill="midnightblue" stroke="midnightblue" points="203.01,-220.47 212.88,-224.32 207.56,-215.16 203.01,-220.47"/>
</g>
<!-- Node6 -->
<g id="node6" class="node">
<title>Node6</title>
<g id="a_node6"><a xlink:href="structdg_1_1_recursive_vector_tag.html" target="_top" xlink:title="This tag indicates composition/recursion.">
<polygon fill="none" stroke="black" points="226,-168.5 226,-187.5 348,-187.5 348,-168.5 226,-168.5"/>
<text text-anchor="middle" x="287" y="-175.5" font-family="Helvetica,sans-Serif" font-size="10.00">dg::RecursiveVectorTag</text>
</a>
</g>
</g>
<!-- Node1&#45;&gt;Node6 -->
<g id="edge5" class="edge">
<title>Node1&#45;&gt;Node6</title>
<path fill="none" stroke="midnightblue" d="M240.99,-217.82C252.46,-208.15 266.91,-195.95 276.53,-187.83"/>
<polygon fill="midnightblue" stroke="midnightblue" points="238.67,-215.2 233.28,-224.32 243.18,-220.55 238.67,-215.2"/>
</g>
<!-- Node9 -->
<g id="node9" class="node">
<title>Node9</title>
<g id="a_node9"><a xlink:href="structdg_1_1_shared_vector_tag.html" target="_top" xlink:title="Indicate a contiguous chunk of shared memory.">
<polygon fill="none" stroke="black" points="366,-168.5 366,-187.5 474,-187.5 474,-168.5 366,-168.5"/>
<text text-anchor="middle" x="420" y="-175.5" font-family="Helvetica,sans-Serif" font-size="10.00">dg::SharedVectorTag</text>
</a>
</g>
</g>
<!-- Node1&#45;&gt;Node9 -->
<g id="edge8" class="edge">
<title>Node1&#45;&gt;Node9</title>
<path fill="none" stroke="midnightblue" d="M264.23,-221.7C301.41,-211.51 355.27,-196.74 388.93,-187.52"/>
<polygon fill="midnightblue" stroke="midnightblue" points="262.93,-218.42 254.22,-224.44 264.78,-225.18 262.93,-218.42"/>
</g>
<!-- Node2 -->
<g id="node2" class="node">
<title>Node2</title>
<g id="a_node2"><a xlink:href="structdg_1_1_any_matrix_tag.html" target="_top" xlink:title=" ">
<polygon fill="none" stroke="black" points="176.5,-280.5 176.5,-299.5 269.5,-299.5 269.5,-280.5 176.5,-280.5"/>
<text text-anchor="middle" x="223" y="-287.5" font-family="Helvetica,sans-Serif" font-size="10.00">dg::AnyMatrixTag</text>
</a>
</g>
</g>
<!-- Node2&#45;&gt;Node1 -->
<g id="edge1" class="edge">
<title>Node2&#45;&gt;Node1</title>
<path fill="none" stroke="midnightblue" d="M223,-269.8C223,-260.91 223,-250.78 223,-243.75"/>
<polygon fill="midnightblue" stroke="midnightblue" points="219.5,-270.08 223,-280.08 226.5,-270.08 219.5,-270.08"/>
</g>
<!-- Node4 -->
<g id="node4" class="node">
<title>Node4</title>
<g id="a_node4"><a xlink:href="structdg_1_1_scalar_tag.html" target="_top" xlink:title=" ">
<polygon fill="none" stroke="black" points="8.5,-112.5 8.5,-131.5 85.5,-131.5 85.5,-112.5 8.5,-112.5"/>
<text text-anchor="middle" x="47" y="-119.5" font-family="Helvetica,sans-Serif" font-size="10.00">dg::ScalarTag</text>
</a>
</g>
</g>
<!-- Node3&#45;&gt;Node4 -->
<g id="edge3" class="edge">
<title>Node3&#45;&gt;Node4</title>
<path fill="none" stroke="midnightblue" d="M47,-157.8C47,-148.91 47,-138.78 47,-131.75"/>
<polygon fill="midnightblue" stroke="midnightblue" points="43.5,-158.08 47,-168.08 50.5,-158.08 43.5,-158.08"/>
</g>
<!-- Node7 -->
<g id="node7" class="node">
<title>Node7</title>
<g id="a_node7"><a xlink:href="structdg_1_1_array_vector_tag.html" target="_top" xlink:title=" ">
<polygon fill="none" stroke="black" points="137.5,-112.5 137.5,-131.5 238.5,-131.5 238.5,-112.5 137.5,-112.5"/>
<text text-anchor="middle" x="188" y="-119.5" font-family="Helvetica,sans-Serif" font-size="10.00">dg::ArrayVectorTag</text>
</a>
</g>
</g>
<!-- Node6&#45;&gt;Node7 -->
<g id="edge6" class="edge">
<title>Node6&#45;&gt;Node7</title>
<path fill="none" stroke="midnightblue" d="M262.16,-163.45C243.89,-153.48 219.58,-140.23 203.87,-131.65"/>
<polygon fill="midnightblue" stroke="midnightblue" points="260.64,-166.61 271.09,-168.32 263.99,-160.46 260.64,-166.61"/>
</g>
<!-- Node8 -->
<g id="node8" class="node">
<title>Node8</title>
<g id="a_node8"><a xlink:href="structdg_1_1_std_map_tag.html" target="_top" xlink:title=" ">
<polygon fill="none" stroke="black" points="256.5,-112.5 256.5,-131.5 339.5,-131.5 339.5,-112.5 256.5,-112.5"/>
<text text-anchor="middle" x="298" y="-119.5" font-family="Helvetica,sans-Serif" font-size="10.00">dg::StdMapTag</text>
</a>
</g>
</g>
<!-- Node6&#45;&gt;Node8 -->
<g id="edge7" class="edge">
<title>Node6&#45;&gt;Node8</title>
<path fill="none" stroke="midnightblue" d="M290.85,-158.1C292.68,-149.14 294.77,-138.86 296.22,-131.75"/>
<polygon fill="midnightblue" stroke="midnightblue" points="287.38,-157.59 288.82,-168.08 294.24,-158.98 287.38,-157.59"/>
</g>
<!-- Node10 -->
<g id="node10" class="node">
<title>Node10</title>
<g id="a_node10"><a xlink:href="structdg_1_1_array_scalar_tag.html" target="_top" xlink:title=" ">
<polygon fill="none" stroke="black" points="370,-112.5 370,-131.5 470,-131.5 470,-112.5 370,-112.5"/>
<text text-anchor="middle" x="420" y="-119.5" font-family="Helvetica,sans-Serif" font-size="10.00">dg::ArrayScalarTag</text>
</a>
</g>
</g>
<!-- Node9&#45;&gt;Node10 -->
<g id="edge9" class="edge">
<title>Node9&#45;&gt;Node10</title>
<path fill="none" stroke="midnightblue" d="M420,-157.8C420,-148.91 420,-138.78 420,-131.75"/>
<polygon fill="midnightblue" stroke="midnightblue" points="416.5,-158.08 420,-168.08 423.5,-158.08 416.5,-158.08"/>
</g>
<!-- Node11 -->
<g id="node11" class="node">
<title>Node11</title>
<g id="a_node11"><a xlink:href="structdg_1_1_thrust_vector_tag.html" target="_top" xlink:title="Indicate thrust/std &#45; like behaviour.">
<polygon fill="none" stroke="black" points="367.5,-56.5 367.5,-75.5 472.5,-75.5 472.5,-56.5 367.5,-56.5"/>
<text text-anchor="middle" x="420" y="-63.5" font-family="Helvetica,sans-Serif" font-size="10.00">dg::ThrustVectorTag</text>
</a>
</g>
</g>
<!-- Node10&#45;&gt;Node11 -->
<g id="edge10" class="edge">
<title>Node10&#45;&gt;Node11</title>
<path fill="none" stroke="midnightblue" d="M420,-101.8C420,-92.91 420,-82.78 420,-75.75"/>
<polygon fill="midnightblue" stroke="midnightblue" points="416.5,-102.08 420,-112.08 423.5,-102.08 416.5,-102.08"/>
</g>
<!-- Node12 -->
<g id="node12" class="node">
<title>Node12</title>
<g id="a_node12"><a xlink:href="structdg_1_1_cusp_vector_tag.html" target="_top" xlink:title="special tag for cusp arrays">
<polygon fill="none" stroke="black" points="369.5,-0.5 369.5,-19.5 470.5,-19.5 470.5,-0.5 369.5,-0.5"/>
<text text-anchor="middle" x="420" y="-7.5" font-family="Helvetica,sans-Serif" font-size="10.00">dg::CuspVectorTag</text>
</a>
</g>
</g>
<!-- Node11&#45;&gt;Node12 -->
<g id="edge11" class="edge">
<title>Node11&#45;&gt;Node12</title>
<path fill="none" stroke="midnightblue" d="M420,-45.8C420,-36.91 420,-26.78 420,-19.75"/>
<polygon fill="midnightblue" stroke="midnightblue" points="416.5,-46.08 420,-56.08 423.5,-46.08 416.5,-46.08"/>
</g>
</g>
</svg>
