<?xml version="1.0" encoding="UTF-8" standalone="no"?>
<!DOCTYPE svg PUBLIC "-//W3C//DTD SVG 1.1//EN"
 "http://www.w3.org/Graphics/SVG/1.1/DTD/svg11.dtd">
<!-- Generated by graphviz version 2.43.0 (0)
 -->
<!-- Title: dg::aTimeloop&lt; ContainerType &gt; Pages: 1 -->
<svg width="292pt" height="137pt"
 viewBox="0.00 0.00 292.00 137.00" xmlns="http://www.w3.org/2000/svg" xmlns:xlink="http://www.w3.org/1999/xlink">
<g id="graph0" class="graph" transform="scale(1 1) rotate(0) translate(4 133)">
<title>dg::aTimeloop&lt; ContainerType &gt;</title>
<!-- Node1 -->
<g id="node1" class="node">
<title>Node1</title>
<g id="a_node1"><a xlink:title="Abstract timeloop independent of stepper and ODE.">
<polygon fill="#bfbfbf" stroke="black" points="0,-49.5 0,-79.5 129,-79.5 129,-49.5 0,-49.5"/>
<text text-anchor="start" x="8" y="-67.5" font-family="Helvetica,sans-Serif" font-size="10.00">dg::aTimeloop&lt; Container</text>
<text text-anchor="middle" x="64.5" y="-56.5" font-family="Helvetica,sans-Serif" font-size="10.00">Type &gt;</text>
</a>
</g>
</g>
<!-- Node2 -->
<g id="node2" class="node">
<title>Node2</title>
<g id="a_node2"><a xlink:href="structdg_1_1_adaptive_timeloop.html" target="_top" xlink:title="Integrate using a while loop.">
<polygon fill="none" stroke="black" points="169,-98.5 169,-128.5 280,-128.5 280,-98.5 169,-98.5"/>
<text text-anchor="start" x="177" y="-116.5" font-family="Helvetica,sans-Serif" font-size="10.00">dg::AdaptiveTimeloop</text>
<text text-anchor="middle" x="224.5" y="-105.5" font-family="Helvetica,sans-Serif" font-size="10.00">&lt; ContainerType &gt;</text>
</a>
</g>
</g>
<!-- Node1&#45;&gt;Node2 -->
<g id="edge1" class="edge">
<title>Node1&#45;&gt;Node2</title>
<path fill="none" stroke="midnightblue" d="M123.9,-82.61C140.7,-87.82 158.83,-93.45 174.97,-98.45"/>
<polygon fill="midnightblue" stroke="midnightblue" points="124.78,-79.22 114.19,-79.6 122.71,-85.91 124.78,-79.22"/>
</g>
<!-- Node3 -->
<g id="node3" class="node">
<title>Node3</title>
<g id="a_node3"><a xlink:href="structdg_1_1_multistep_timeloop.html" target="_top" xlink:title="Integrate using a for loop and a fixed non&#45;changeable time&#45;step.">
<polygon fill="none" stroke="black" points="168,-49.5 168,-79.5 281,-79.5 281,-49.5 168,-49.5"/>
<text text-anchor="start" x="176" y="-67.5" font-family="Helvetica,sans-Serif" font-size="10.00">dg::MultistepTimeloop</text>
<text text-anchor="middle" x="224.5" y="-56.5" font-family="Helvetica,sans-Serif" font-size="10.00">&lt; ContainerType &gt;</text>
</a>
</g>
</g>
<!-- Node1&#45;&gt;Node3 -->
<g id="edge2" class="edge">
<title>Node1&#45;&gt;Node3</title>
<path fill="none" stroke="midnightblue" d="M139.57,-64.5C149.08,-64.5 158.69,-64.5 167.84,-64.5"/>
<polygon fill="midnightblue" stroke="midnightblue" points="139.31,-61 129.31,-64.5 139.31,-68 139.31,-61"/>
</g>
<!-- Node4 -->
<g id="node4" class="node">
<title>Node4</title>
<g id="a_node4"><a xlink:href="structdg_1_1_singlestep_timeloop.html" target="_top" xlink:title="Integrate using a for loop and a fixed time&#45;step.">
<polygon fill="none" stroke="black" points="165,-0.5 165,-30.5 284,-30.5 284,-0.5 165,-0.5"/>
<text text-anchor="start" x="173" y="-18.5" font-family="Helvetica,sans-Serif" font-size="10.00">dg::SinglestepTimeloop</text>
<text text-anchor="middle" x="224.5" y="-7.5" font-family="Helvetica,sans-Serif" font-size="10.00">&lt; ContainerType &gt;</text>
</a>
</g>
</g>
<!-- Node1&#45;&gt;Node4 -->
<g id="edge3" class="edge">
<title>Node1&#45;&gt;Node4</title>
<path fill="none" stroke="midnightblue" d="M123.9,-46.39C140.7,-41.18 158.83,-35.55 174.97,-30.55"/>
<polygon fill="midnightblue" stroke="midnightblue" points="122.71,-43.09 114.19,-49.4 124.78,-49.78 122.71,-43.09"/>
</g>
</g>
</svg>
