<?xml version="1.0" encoding="UTF-8" standalone="no"?>
<!DOCTYPE svg PUBLIC "-//W3C//DTD SVG 1.1//EN"
 "http://www.w3.org/Graphics/SVG/1.1/DTD/svg11.dtd">
<!-- Generated by graphviz version 2.43.0 (0)
 -->
<!-- Title: dg::aRealProductGeometry3d&lt; real_type &gt; Pages: 1 -->
<svg width="278pt" height="240pt"
 viewBox="0.00 0.00 278.00 240.00" xmlns="http://www.w3.org/2000/svg" xmlns:xlink="http://www.w3.org/1999/xlink">
<g id="graph0" class="graph" transform="scale(1 1) rotate(0) translate(4 236)">
<title>dg::aRealProductGeometry3d&lt; real_type &gt;</title>
<!-- Node1 -->
<g id="node1" class="node">
<title>Node1</title>
<g id="a_node1"><a xlink:title="A 3d product space Geometry .">
<polygon fill="#bfbfbf" stroke="black" points="61,-67.5 61,-97.5 207,-97.5 207,-67.5 61,-67.5"/>
<text text-anchor="start" x="69" y="-85.5" font-family="Helvetica,sans-Serif" font-size="10.00">dg::aRealProductGeometry3d</text>
<text text-anchor="middle" x="134" y="-74.5" font-family="Helvetica,sans-Serif" font-size="10.00">&lt; real_type &gt;</text>
</a>
</g>
</g>
<!-- Node4 -->
<g id="node4" class="node">
<title>Node4</title>
<g id="a_node4"><a xlink:href="structdg_1_1_real_cartesian_grid3d.html" target="_top" xlink:title="three&#45;dimensional Grid with Cartesian metric">
<polygon fill="none" stroke="black" points="0,-0.5 0,-30.5 124,-30.5 124,-0.5 0,-0.5"/>
<text text-anchor="start" x="8" y="-18.5" font-family="Helvetica,sans-Serif" font-size="10.00">dg::RealCartesianGrid3d</text>
<text text-anchor="middle" x="62" y="-7.5" font-family="Helvetica,sans-Serif" font-size="10.00">&lt; real_type &gt;</text>
</a>
</g>
</g>
<!-- Node1&#45;&gt;Node4 -->
<g id="edge3" class="edge">
<title>Node1&#45;&gt;Node4</title>
<path fill="none" stroke="midnightblue" d="M110.85,-60.6C99.98,-50.78 87.3,-39.34 77.59,-30.58"/>
<polygon fill="midnightblue" stroke="midnightblue" points="108.61,-63.29 118.38,-67.4 113.3,-58.1 108.61,-63.29"/>
</g>
<!-- Node5 -->
<g id="node5" class="node">
<title>Node5</title>
<g id="a_node5"><a xlink:href="structdg_1_1_real_cylindrical_grid3d.html" target="_top" xlink:title="three&#45;dimensional Grid with Cylindrical metric">
<polygon fill="none" stroke="black" points="142,-0.5 142,-30.5 270,-30.5 270,-0.5 142,-0.5"/>
<text text-anchor="start" x="150" y="-18.5" font-family="Helvetica,sans-Serif" font-size="10.00">dg::RealCylindricalGrid3d</text>
<text text-anchor="middle" x="206" y="-7.5" font-family="Helvetica,sans-Serif" font-size="10.00">&lt; real_type &gt;</text>
</a>
</g>
</g>
<!-- Node1&#45;&gt;Node5 -->
<g id="edge4" class="edge">
<title>Node1&#45;&gt;Node5</title>
<path fill="none" stroke="midnightblue" d="M157.15,-60.6C168.02,-50.78 180.7,-39.34 190.41,-30.58"/>
<polygon fill="midnightblue" stroke="midnightblue" points="154.7,-58.1 149.62,-67.4 159.39,-63.29 154.7,-58.1"/>
</g>
<!-- Node2 -->
<g id="node2" class="node">
<title>Node2</title>
<g id="a_node2"><a xlink:href="structdg_1_1a_real_geometry3d.html" target="_top" xlink:title="This is the abstract interface class for a three&#45;dimensional Geometry.">
<polygon fill="none" stroke="black" points="78,-134.5 78,-164.5 190,-164.5 190,-134.5 78,-134.5"/>
<text text-anchor="start" x="86" y="-152.5" font-family="Helvetica,sans-Serif" font-size="10.00">dg::aRealGeometry3d</text>
<text text-anchor="middle" x="134" y="-141.5" font-family="Helvetica,sans-Serif" font-size="10.00">&lt; real_type &gt;</text>
</a>
</g>
</g>
<!-- Node2&#45;&gt;Node1 -->
<g id="edge1" class="edge">
<title>Node2&#45;&gt;Node1</title>
<path fill="none" stroke="midnightblue" d="M134,-124.11C134,-115.15 134,-105.32 134,-97.58"/>
<polygon fill="midnightblue" stroke="midnightblue" points="130.5,-124.4 134,-134.4 137.5,-124.4 130.5,-124.4"/>
</g>
<!-- Node3 -->
<g id="node3" class="node">
<title>Node3</title>
<g id="a_node3"><a xlink:href="structdg_1_1a_real_topology3d.html" target="_top" xlink:title="An abstract base class for three&#45;dimensional grids.">
<polygon fill="none" stroke="black" points="80,-201.5 80,-231.5 188,-231.5 188,-201.5 80,-201.5"/>
<text text-anchor="start" x="88" y="-219.5" font-family="Helvetica,sans-Serif" font-size="10.00">dg::aRealTopology3d</text>
<text text-anchor="middle" x="134" y="-208.5" font-family="Helvetica,sans-Serif" font-size="10.00">&lt; real_type &gt;</text>
</a>
</g>
</g>
<!-- Node3&#45;&gt;Node2 -->
<g id="edge2" class="edge">
<title>Node3&#45;&gt;Node2</title>
<path fill="none" stroke="midnightblue" d="M134,-191.11C134,-182.15 134,-172.32 134,-164.58"/>
<polygon fill="midnightblue" stroke="midnightblue" points="130.5,-191.4 134,-201.4 137.5,-191.4 130.5,-191.4"/>
</g>
</g>
</svg>
