<?xml version="1.0" encoding="UTF-8" standalone="no"?>
<!DOCTYPE svg PUBLIC "-//W3C//DTD SVG 1.1//EN"
 "http://www.w3.org/Graphics/SVG/1.1/DTD/svg11.dtd">
<!-- Generated by graphviz version 2.43.0 (0)
 -->
<!-- Title: dg::aRealMPITopology3d&lt; real_type &gt; Pages: 1 -->
<svg width="351pt" height="240pt"
 viewBox="0.00 0.00 351.00 240.00" xmlns="http://www.w3.org/2000/svg" xmlns:xlink="http://www.w3.org/1999/xlink">
<g id="graph0" class="graph" transform="scale(1 1) rotate(0) translate(4 236)">
<title>dg::aRealMPITopology3d&lt; real_type &gt;</title>
<!-- Node1 -->
<g id="node1" class="node">
<title>Node1</title>
<g id="a_node1"><a xlink:title="3D MPI Grid class">
<polygon fill="#bfbfbf" stroke="black" points="58,-201.5 58,-231.5 184,-231.5 184,-201.5 58,-201.5"/>
<text text-anchor="start" x="66" y="-219.5" font-family="Helvetica,sans-Serif" font-size="10.00">dg::aRealMPITopology3d</text>
<text text-anchor="middle" x="121" y="-208.5" font-family="Helvetica,sans-Serif" font-size="10.00">&lt; real_type &gt;</text>
</a>
</g>
</g>
<!-- Node2 -->
<g id="node2" class="node">
<title>Node2</title>
<g id="a_node2"><a xlink:href="structdg_1_1_real_m_p_i_grid3d.html" target="_top" xlink:title="The simplest implementation of aRealMPITopology3d.">
<polygon fill="none" stroke="black" points="0,-134.5 0,-164.5 106,-164.5 106,-134.5 0,-134.5"/>
<text text-anchor="start" x="8" y="-152.5" font-family="Helvetica,sans-Serif" font-size="10.00">dg::RealMPIGrid3d&lt;</text>
<text text-anchor="middle" x="53" y="-141.5" font-family="Helvetica,sans-Serif" font-size="10.00"> real_type &gt;</text>
</a>
</g>
</g>
<!-- Node1&#45;&gt;Node2 -->
<g id="edge1" class="edge">
<title>Node1&#45;&gt;Node2</title>
<path fill="none" stroke="midnightblue" d="M98.83,-194.31C88.63,-184.56 76.81,-173.26 67.73,-164.58"/>
<polygon fill="midnightblue" stroke="midnightblue" points="96.6,-197.02 106.25,-201.4 101.43,-191.96 96.6,-197.02"/>
</g>
<!-- Node3 -->
<g id="node3" class="node">
<title>Node3</title>
<g id="a_node3"><a xlink:href="structdg_1_1a_real_m_p_i_geometry3d.html" target="_top" xlink:title="This is the abstract interface class for a three&#45;dimensional MPIGeometry.">
<polygon fill="none" stroke="black" points="124,-134.5 124,-164.5 254,-164.5 254,-134.5 124,-134.5"/>
<text text-anchor="start" x="132" y="-152.5" font-family="Helvetica,sans-Serif" font-size="10.00">dg::aRealMPIGeometry3d</text>
<text text-anchor="middle" x="189" y="-141.5" font-family="Helvetica,sans-Serif" font-size="10.00">&lt; real_type &gt;</text>
</a>
</g>
</g>
<!-- Node1&#45;&gt;Node3 -->
<g id="edge2" class="edge">
<title>Node1&#45;&gt;Node3</title>
<path fill="none" stroke="midnightblue" d="M143.17,-194.31C153.37,-184.56 165.19,-173.26 174.27,-164.58"/>
<polygon fill="midnightblue" stroke="midnightblue" points="140.57,-191.96 135.75,-201.4 145.4,-197.02 140.57,-191.96"/>
</g>
<!-- Node4 -->
<g id="node4" class="node">
<title>Node4</title>
<g id="a_node4"><a xlink:href="structdg_1_1a_real_product_m_p_i_geometry3d.html" target="_top" xlink:title="A 3d product space Geometry .">
<polygon fill="none" stroke="black" points="107,-67.5 107,-97.5 271,-97.5 271,-67.5 107,-67.5"/>
<text text-anchor="start" x="115" y="-85.5" font-family="Helvetica,sans-Serif" font-size="10.00">dg::aRealProductMPIGeometry3d</text>
<text text-anchor="middle" x="189" y="-74.5" font-family="Helvetica,sans-Serif" font-size="10.00">&lt; real_type &gt;</text>
</a>
</g>
</g>
<!-- Node3&#45;&gt;Node4 -->
<g id="edge3" class="edge">
<title>Node3&#45;&gt;Node4</title>
<path fill="none" stroke="midnightblue" d="M189,-124.11C189,-115.15 189,-105.32 189,-97.58"/>
<polygon fill="midnightblue" stroke="midnightblue" points="185.5,-124.4 189,-134.4 192.5,-124.4 185.5,-124.4"/>
</g>
<!-- Node5 -->
<g id="node5" class="node">
<title>Node5</title>
<g id="a_node5"><a xlink:href="structdg_1_1_real_cartesian_m_p_i_grid3d.html" target="_top" xlink:title="The mpi version of RealCartesianGrid3d.">
<polygon fill="none" stroke="black" points="37,-0.5 37,-30.5 179,-30.5 179,-0.5 37,-0.5"/>
<text text-anchor="start" x="45" y="-18.5" font-family="Helvetica,sans-Serif" font-size="10.00">dg::RealCartesianMPIGrid3d</text>
<text text-anchor="middle" x="108" y="-7.5" font-family="Helvetica,sans-Serif" font-size="10.00">&lt; real_type &gt;</text>
</a>
</g>
</g>
<!-- Node4&#45;&gt;Node5 -->
<g id="edge4" class="edge">
<title>Node4&#45;&gt;Node5</title>
<path fill="none" stroke="midnightblue" d="M163.31,-60.88C151,-51.01 136.57,-39.43 125.54,-30.58"/>
<polygon fill="midnightblue" stroke="midnightblue" points="161.43,-63.87 171.42,-67.4 165.82,-58.41 161.43,-63.87"/>
</g>
<!-- Node6 -->
<g id="node6" class="node">
<title>Node6</title>
<g id="a_node6"><a xlink:href="structdg_1_1_real_cylindrical_m_p_i_grid3d.html" target="_top" xlink:title="the mpi version of RealCylindricalGrid3d">
<polygon fill="none" stroke="black" points="197,-0.5 197,-30.5 343,-30.5 343,-0.5 197,-0.5"/>
<text text-anchor="start" x="205" y="-18.5" font-family="Helvetica,sans-Serif" font-size="10.00">dg::RealCylindricalMPIGrid3d</text>
<text text-anchor="middle" x="270" y="-7.5" font-family="Helvetica,sans-Serif" font-size="10.00">&lt; real_type &gt;</text>
</a>
</g>
</g>
<!-- Node4&#45;&gt;Node6 -->
<g id="edge5" class="edge">
<title>Node4&#45;&gt;Node6</title>
<path fill="none" stroke="midnightblue" d="M214.69,-60.88C227,-51.01 241.43,-39.43 252.46,-30.58"/>
<polygon fill="midnightblue" stroke="midnightblue" points="212.18,-58.41 206.58,-67.4 216.57,-63.87 212.18,-58.41"/>
</g>
</g>
</svg>
