<?xml version="1.0" encoding="UTF-8" standalone="no"?>
<!DOCTYPE svg PUBLIC "-//W3C//DTD SVG 1.1//EN"
 "http://www.w3.org/Graphics/SVG/1.1/DTD/svg11.dtd">
<!-- Generated by graphviz version 2.43.0 (0)
 -->
<!-- Title: dg::aRealRefinement1d&lt; real_type &gt; Pages: 1 -->
<svg width="318pt" height="235pt"
 viewBox="0.00 0.00 318.00 235.00" xmlns="http://www.w3.org/2000/svg" xmlns:xlink="http://www.w3.org/1999/xlink">
<g id="graph0" class="graph" transform="scale(1 1) rotate(0) translate(4 231)">
<title>dg::aRealRefinement1d&lt; real_type &gt;</title>
<!-- Node1 -->
<g id="node1" class="node">
<title>Node1</title>
<g id="a_node1"><a xlink:title="Abstract base class for 1d grid refinement that increases the number of grid cells of a fixed basis g...">
<polygon fill="#bfbfbf" stroke="black" points="0,-98.5 0,-128.5 119,-128.5 119,-98.5 0,-98.5"/>
<text text-anchor="start" x="8" y="-116.5" font-family="Helvetica,sans-Serif" font-size="10.00">dg::aRealRefinement1d</text>
<text text-anchor="middle" x="59.5" y="-105.5" font-family="Helvetica,sans-Serif" font-size="10.00">&lt; real_type &gt;</text>
</a>
</g>
</g>
<!-- Node2 -->
<g id="node2" class="node">
<title>Node2</title>
<g id="a_node2"><a xlink:href="structdg_1_1_real_equidist_refinement.html" target="_top" xlink:title="Cell refinement around a given node.">
<polygon fill="none" stroke="black" points="163,-196.5 163,-226.5 302,-226.5 302,-196.5 163,-196.5"/>
<text text-anchor="start" x="171" y="-214.5" font-family="Helvetica,sans-Serif" font-size="10.00">dg::RealEquidistRefinement</text>
<text text-anchor="middle" x="232.5" y="-203.5" font-family="Helvetica,sans-Serif" font-size="10.00">&lt; real_type &gt;</text>
</a>
</g>
</g>
<!-- Node1&#45;&gt;Node2 -->
<g id="edge1" class="edge">
<title>Node1&#45;&gt;Node2</title>
<path fill="none" stroke="midnightblue" d="M83.7,-135.59C101.88,-151.88 128.45,-173.54 155,-187.5 161.41,-190.87 168.37,-193.86 175.39,-196.49"/>
<polygon fill="midnightblue" stroke="midnightblue" points="85.72,-132.7 75.98,-128.54 81,-137.86 85.72,-132.7"/>
</g>
<!-- Node3 -->
<g id="node3" class="node">
<title>Node3</title>
<g id="a_node3"><a xlink:href="structdg_1_1_real_exponential_refinement.html" target="_top" xlink:title="The exponential refinement around a node.">
<polygon fill="none" stroke="black" points="155,-147.5 155,-177.5 310,-177.5 310,-147.5 155,-147.5"/>
<text text-anchor="start" x="163" y="-165.5" font-family="Helvetica,sans-Serif" font-size="10.00">dg::RealExponentialRefinement</text>
<text text-anchor="middle" x="232.5" y="-154.5" font-family="Helvetica,sans-Serif" font-size="10.00">&lt; real_type &gt;</text>
</a>
</g>
</g>
<!-- Node1&#45;&gt;Node3 -->
<g id="edge2" class="edge">
<title>Node1&#45;&gt;Node3</title>
<path fill="none" stroke="midnightblue" d="M122.95,-131.39C141.34,-136.66 161.27,-142.38 178.97,-147.45"/>
<polygon fill="midnightblue" stroke="midnightblue" points="123.78,-127.99 113.2,-128.6 121.85,-134.72 123.78,-127.99"/>
</g>
<!-- Node4 -->
<g id="node4" class="node">
<title>Node4</title>
<g id="a_node4"><a xlink:href="structdg_1_1_real_fem_refinement.html" target="_top" xlink:title="Insert equidistant points in between dG nodes.">
<polygon fill="none" stroke="black" points="171,-98.5 171,-128.5 294,-128.5 294,-98.5 171,-98.5"/>
<text text-anchor="start" x="179" y="-116.5" font-family="Helvetica,sans-Serif" font-size="10.00">dg::RealFemRefinement</text>
<text text-anchor="middle" x="232.5" y="-105.5" font-family="Helvetica,sans-Serif" font-size="10.00">&lt; real_type &gt;</text>
</a>
</g>
</g>
<!-- Node1&#45;&gt;Node4 -->
<g id="edge3" class="edge">
<title>Node1&#45;&gt;Node4</title>
<path fill="none" stroke="midnightblue" d="M129.64,-113.5C143.27,-113.5 157.47,-113.5 170.8,-113.5"/>
<polygon fill="midnightblue" stroke="midnightblue" points="129.35,-110 119.35,-113.5 129.35,-117 129.35,-110"/>
</g>
<!-- Node5 -->
<g id="node5" class="node">
<title>Node5</title>
<g id="a_node5"><a xlink:href="structdg_1_1_real_identity_refinement.html" target="_top" xlink:title="No refinement.">
<polygon fill="none" stroke="black" points="164.5,-49.5 164.5,-79.5 300.5,-79.5 300.5,-49.5 164.5,-49.5"/>
<text text-anchor="start" x="172.5" y="-67.5" font-family="Helvetica,sans-Serif" font-size="10.00">dg::RealIdentityRefinement</text>
<text text-anchor="middle" x="232.5" y="-56.5" font-family="Helvetica,sans-Serif" font-size="10.00">&lt; real_type &gt;</text>
</a>
</g>
</g>
<!-- Node1&#45;&gt;Node5 -->
<g id="edge4" class="edge">
<title>Node1&#45;&gt;Node5</title>
<path fill="none" stroke="midnightblue" d="M122.95,-95.61C141.34,-90.34 161.27,-84.62 178.97,-79.55"/>
<polygon fill="midnightblue" stroke="midnightblue" points="121.85,-92.28 113.2,-98.4 123.78,-99.01 121.85,-92.28"/>
</g>
<!-- Node6 -->
<g id="node6" class="node">
<title>Node6</title>
<g id="a_node6"><a xlink:href="structdg_1_1_real_linear_refinement.html" target="_top" xlink:title="Multiply every cell in the grid by a factor.">
<polygon fill="none" stroke="black" points="167.5,-0.5 167.5,-30.5 297.5,-30.5 297.5,-0.5 167.5,-0.5"/>
<text text-anchor="start" x="175.5" y="-18.5" font-family="Helvetica,sans-Serif" font-size="10.00">dg::RealLinearRefinement</text>
<text text-anchor="middle" x="232.5" y="-7.5" font-family="Helvetica,sans-Serif" font-size="10.00">&lt; real_type &gt;</text>
</a>
</g>
</g>
<!-- Node1&#45;&gt;Node6 -->
<g id="edge5" class="edge">
<title>Node1&#45;&gt;Node6</title>
<path fill="none" stroke="midnightblue" d="M84.13,-91.52C102.35,-75.55 128.78,-54.38 155,-40.5 162.04,-36.77 169.74,-33.47 177.45,-30.58"/>
<polygon fill="midnightblue" stroke="midnightblue" points="81.5,-89.18 76.37,-98.45 86.16,-94.4 81.5,-89.18"/>
</g>
</g>
</svg>
