<?xml version="1.0" encoding="UTF-8" standalone="no"?>
<!DOCTYPE svg PUBLIC "-//W3C//DTD SVG 1.1//EN"
 "http://www.w3.org/Graphics/SVG/1.1/DTD/svg11.dtd">
<!-- Generated by graphviz version 2.43.0 (0)
 -->
<!-- Title: dg::aRealTopologyX2d&lt; real_type &gt; Pages: 1 -->
<svg width="445pt" height="112pt"
 viewBox="0.00 0.00 445.00 112.00" xmlns="http://www.w3.org/2000/svg" xmlns:xlink="http://www.w3.org/1999/xlink">
<g id="graph0" class="graph" transform="scale(1 1) rotate(0) translate(4 108)">
<title>dg::aRealTopologyX2d&lt; real_type &gt;</title>
<!-- Node1 -->
<g id="node1" class="node">
<title>Node1</title>
<g id="a_node1"><a xlink:title="A 2D grid class with X&#45;point topology.">
<polygon fill="#bfbfbf" stroke="black" points="0,-48.5 0,-78.5 115,-78.5 115,-48.5 0,-48.5"/>
<text text-anchor="start" x="8" y="-66.5" font-family="Helvetica,sans-Serif" font-size="10.00">dg::aRealTopologyX2d</text>
<text text-anchor="middle" x="57.5" y="-55.5" font-family="Helvetica,sans-Serif" font-size="10.00">&lt; real_type &gt;</text>
</a>
</g>
</g>
<!-- Node2 -->
<g id="node2" class="node">
<title>Node2</title>
<g id="a_node2"><a xlink:href="structdg_1_1_real_grid_x2d.html" target="_top" xlink:title="The simplest implementation of aRealTopologyX2d.">
<polygon fill="none" stroke="black" points="154,-73.5 154,-103.5 267,-103.5 267,-73.5 154,-73.5"/>
<text text-anchor="start" x="162" y="-91.5" font-family="Helvetica,sans-Serif" font-size="10.00">dg::RealGridX2d&lt; real</text>
<text text-anchor="middle" x="210.5" y="-80.5" font-family="Helvetica,sans-Serif" font-size="10.00">_type &gt;</text>
</a>
</g>
</g>
<!-- Node1&#45;&gt;Node2 -->
<g id="edge1" class="edge">
<title>Node1&#45;&gt;Node2</title>
<path fill="none" stroke="midnightblue" d="M125.05,-74.52C134.64,-76.11 144.43,-77.73 153.78,-79.27"/>
<polygon fill="midnightblue" stroke="midnightblue" points="125.59,-71.06 115.16,-72.88 124.45,-77.97 125.59,-71.06"/>
</g>
<!-- Node3 -->
<g id="node3" class="node">
<title>Node3</title>
<g id="a_node3"><a xlink:href="structdg_1_1a_real_geometry_x2d.html" target="_top" xlink:title="This is the abstract interface class for a two&#45;dimensional RealGeometryX.">
<polygon fill="none" stroke="black" points="151,-24.5 151,-54.5 270,-54.5 270,-24.5 151,-24.5"/>
<text text-anchor="start" x="159" y="-42.5" font-family="Helvetica,sans-Serif" font-size="10.00">dg::aRealGeometryX2d</text>
<text text-anchor="middle" x="210.5" y="-31.5" font-family="Helvetica,sans-Serif" font-size="10.00">&lt; real_type &gt;</text>
</a>
</g>
</g>
<!-- Node1&#45;&gt;Node3 -->
<g id="edge2" class="edge">
<title>Node1&#45;&gt;Node3</title>
<path fill="none" stroke="midnightblue" d="M125.1,-52.92C133.65,-51.56 142.35,-50.17 150.76,-48.84"/>
<polygon fill="midnightblue" stroke="midnightblue" points="124.48,-49.47 115.16,-54.5 125.58,-56.38 124.48,-49.47"/>
</g>
<!-- Node4 -->
<g id="node4" class="node">
<title>Node4</title>
<g id="a_node4"><a xlink:href="structdg_1_1_real_cartesian_grid_x2d.html" target="_top" xlink:title="two&#45;dimensional GridX with RealCartesian metric">
<polygon fill="none" stroke="black" points="306,-49.5 306,-79.5 437,-79.5 437,-49.5 306,-49.5"/>
<text text-anchor="start" x="314" y="-67.5" font-family="Helvetica,sans-Serif" font-size="10.00">dg::RealCartesianGridX2d</text>
<text text-anchor="middle" x="371.5" y="-56.5" font-family="Helvetica,sans-Serif" font-size="10.00">&lt; real_type &gt;</text>
</a>
</g>
</g>
<!-- Node3&#45;&gt;Node4 -->
<g id="edge3" class="edge">
<title>Node3&#45;&gt;Node4</title>
<path fill="none" stroke="midnightblue" d="M280.16,-50.3C288.68,-51.64 297.37,-53 305.83,-54.33"/>
<polygon fill="midnightblue" stroke="midnightblue" points="280.68,-46.83 270.25,-48.74 279.59,-53.75 280.68,-46.83"/>
</g>
<!-- Node5 -->
<g id="node5" class="node">
<title>Node5</title>
<g id="a_node5"><a xlink:href="structdg_1_1_real_cartesian_refined_grid_x2d.html" target="_top" xlink:title="Refined X&#45;point grid.">
<polygon fill="none" stroke="black" points="307,-0.5 307,-30.5 436,-30.5 436,-0.5 307,-0.5"/>
<text text-anchor="start" x="315" y="-18.5" font-family="Helvetica,sans-Serif" font-size="10.00">dg::RealCartesianRefined</text>
<text text-anchor="middle" x="371.5" y="-7.5" font-family="Helvetica,sans-Serif" font-size="10.00">GridX2d&lt; real_type &gt;</text>
</a>
</g>
</g>
<!-- Node3&#45;&gt;Node5 -->
<g id="edge4" class="edge">
<title>Node3&#45;&gt;Node5</title>
<path fill="none" stroke="midnightblue" d="M280.18,-29.13C289.06,-27.79 298.12,-26.43 306.91,-25.1"/>
<polygon fill="midnightblue" stroke="midnightblue" points="279.62,-25.68 270.25,-30.63 280.66,-32.6 279.62,-25.68"/>
</g>
</g>
</svg>
