<?xml version="1.0" encoding="UTF-8" standalone="no"?>
<!DOCTYPE svg PUBLIC "-//W3C//DTD SVG 1.1//EN"
 "http://www.w3.org/Graphics/SVG/1.1/DTD/svg11.dtd">
<!-- Generated by graphviz version 2.43.0 (0)
 -->
<!-- Title: dg::aRealTopology2d&lt; real_type &gt; Pages: 1 -->
<svg width="326pt" height="173pt"
 viewBox="0.00 0.00 326.00 173.00" xmlns="http://www.w3.org/2000/svg" xmlns:xlink="http://www.w3.org/1999/xlink">
<g id="graph0" class="graph" transform="scale(1 1) rotate(0) translate(4 169)">
<title>dg::aRealTopology2d&lt; real_type &gt;</title>
<!-- Node1 -->
<g id="node1" class="node">
<title>Node1</title>
<g id="a_node1"><a xlink:title="An abstract base class for two&#45;dimensional grids.">
<polygon fill="#bfbfbf" stroke="black" points="63.5,-134.5 63.5,-164.5 171.5,-164.5 171.5,-134.5 63.5,-134.5"/>
<text text-anchor="start" x="71.5" y="-152.5" font-family="Helvetica,sans-Serif" font-size="10.00">dg::aRealTopology2d</text>
<text text-anchor="middle" x="117.5" y="-141.5" font-family="Helvetica,sans-Serif" font-size="10.00">&lt; real_type &gt;</text>
</a>
</g>
</g>
<!-- Node2 -->
<g id="node2" class="node">
<title>Node2</title>
<g id="a_node2"><a xlink:href="structdg_1_1_real_grid2d.html" target="_top" xlink:title="The simplest implementation of aRealTopology2d.">
<polygon fill="none" stroke="black" points="0,-67.5 0,-97.5 107,-97.5 107,-67.5 0,-67.5"/>
<text text-anchor="start" x="8" y="-85.5" font-family="Helvetica,sans-Serif" font-size="10.00">dg::RealGrid2d&lt; real</text>
<text text-anchor="middle" x="53.5" y="-74.5" font-family="Helvetica,sans-Serif" font-size="10.00">_type &gt;</text>
</a>
</g>
</g>
<!-- Node1&#45;&gt;Node2 -->
<g id="edge1" class="edge">
<title>Node1&#45;&gt;Node2</title>
<path fill="none" stroke="midnightblue" d="M96.35,-127.02C86.82,-117.34 75.83,-106.17 67.36,-97.58"/>
<polygon fill="midnightblue" stroke="midnightblue" points="94.1,-129.73 103.61,-134.4 99.09,-124.81 94.1,-129.73"/>
</g>
<!-- Node3 -->
<g id="node3" class="node">
<title>Node3</title>
<g id="a_node3"><a xlink:href="structdg_1_1a_real_geometry2d.html" target="_top" xlink:title="This is the abstract interface class for a two&#45;dimensional Geometry.">
<polygon fill="none" stroke="black" points="125.5,-67.5 125.5,-97.5 237.5,-97.5 237.5,-67.5 125.5,-67.5"/>
<text text-anchor="start" x="133.5" y="-85.5" font-family="Helvetica,sans-Serif" font-size="10.00">dg::aRealGeometry2d</text>
<text text-anchor="middle" x="181.5" y="-74.5" font-family="Helvetica,sans-Serif" font-size="10.00">&lt; real_type &gt;</text>
</a>
</g>
</g>
<!-- Node1&#45;&gt;Node3 -->
<g id="edge2" class="edge">
<title>Node1&#45;&gt;Node3</title>
<path fill="none" stroke="midnightblue" d="M138.65,-127.02C148.18,-117.34 159.17,-106.17 167.64,-97.58"/>
<polygon fill="midnightblue" stroke="midnightblue" points="135.91,-124.81 131.39,-134.4 140.9,-129.73 135.91,-124.81"/>
</g>
<!-- Node4 -->
<g id="node4" class="node">
<title>Node4</title>
<g id="a_node4"><a xlink:href="structdg_1_1_real_cartesian_grid2d.html" target="_top" xlink:title="two&#45;dimensional Grid with Cartesian metric">
<polygon fill="none" stroke="black" points="46.5,-0.5 46.5,-30.5 170.5,-30.5 170.5,-0.5 46.5,-0.5"/>
<text text-anchor="start" x="54.5" y="-18.5" font-family="Helvetica,sans-Serif" font-size="10.00">dg::RealCartesianGrid2d</text>
<text text-anchor="middle" x="108.5" y="-7.5" font-family="Helvetica,sans-Serif" font-size="10.00">&lt; real_type &gt;</text>
</a>
</g>
</g>
<!-- Node3&#45;&gt;Node4 -->
<g id="edge3" class="edge">
<title>Node3&#45;&gt;Node4</title>
<path fill="none" stroke="midnightblue" d="M158.03,-60.6C147,-50.78 134.16,-39.34 124.31,-30.58"/>
<polygon fill="midnightblue" stroke="midnightblue" points="155.86,-63.36 165.66,-67.4 160.52,-58.13 155.86,-63.36"/>
</g>
<!-- Node5 -->
<g id="node5" class="node">
<title>Node5</title>
<g id="a_node5"><a xlink:href="structdg_1_1_real_cartesian_refined_grid2d.html" target="_top" xlink:title="Refined RealCartesian grid.">
<polygon fill="none" stroke="black" points="189,-0.5 189,-30.5 318,-30.5 318,-0.5 189,-0.5"/>
<text text-anchor="start" x="197" y="-18.5" font-family="Helvetica,sans-Serif" font-size="10.00">dg::RealCartesianRefined</text>
<text text-anchor="middle" x="253.5" y="-7.5" font-family="Helvetica,sans-Serif" font-size="10.00">Grid2d&lt; real_type &gt;</text>
</a>
</g>
</g>
<!-- Node3&#45;&gt;Node5 -->
<g id="edge4" class="edge">
<title>Node3&#45;&gt;Node5</title>
<path fill="none" stroke="midnightblue" d="M204.65,-60.6C215.52,-50.78 228.2,-39.34 237.91,-30.58"/>
<polygon fill="midnightblue" stroke="midnightblue" points="202.2,-58.1 197.12,-67.4 206.89,-63.29 202.2,-58.1"/>
</g>
</g>
</svg>
