<?xml version="1.0" encoding="UTF-8" standalone="no"?>
<!DOCTYPE svg PUBLIC "-//W3C//DTD SVG 1.1//EN"
 "http://www.w3.org/Graphics/SVG/1.1/DTD/svg11.dtd">
<!-- Generated by graphviz version 2.43.0 (0)
 -->
<!-- Title: dg::RealCartesianGridX3d&lt; real_type &gt; Pages: 1 -->
<svg width="139pt" height="173pt"
 viewBox="0.00 0.00 139.00 173.00" xmlns="http://www.w3.org/2000/svg" xmlns:xlink="http://www.w3.org/1999/xlink">
<g id="graph0" class="graph" transform="scale(1 1) rotate(0) translate(4 169)">
<title>dg::RealCartesianGridX3d&lt; real_type &gt;</title>
<!-- Node1 -->
<g id="node1" class="node">
<title>Node1</title>
<g id="a_node1"><a xlink:title="three&#45;dimensional GridX with RealCartesian metric">
<polygon fill="#bfbfbf" stroke="black" points="0,-0.5 0,-30.5 131,-30.5 131,-0.5 0,-0.5"/>
<text text-anchor="start" x="8" y="-18.5" font-family="Helvetica,sans-Serif" font-size="10.00">dg::RealCartesianGridX3d</text>
<text text-anchor="middle" x="65.5" y="-7.5" font-family="Helvetica,sans-Serif" font-size="10.00">&lt; real_type &gt;</text>
</a>
</g>
</g>
<!-- Node2 -->
<g id="node2" class="node">
<title>Node2</title>
<g id="a_node2"><a xlink:href="structdg_1_1a_real_geometry_x3d.html" target="_top" xlink:title="This is the abstract interface class for a three&#45;dimensional RealGeometryX.">
<polygon fill="none" stroke="black" points="6,-67.5 6,-97.5 125,-97.5 125,-67.5 6,-67.5"/>
<text text-anchor="start" x="14" y="-85.5" font-family="Helvetica,sans-Serif" font-size="10.00">dg::aRealGeometryX3d</text>
<text text-anchor="middle" x="65.5" y="-74.5" font-family="Helvetica,sans-Serif" font-size="10.00">&lt; real_type &gt;</text>
</a>
</g>
</g>
<!-- Node2&#45;&gt;Node1 -->
<g id="edge1" class="edge">
<title>Node2&#45;&gt;Node1</title>
<path fill="none" stroke="midnightblue" d="M65.5,-57.11C65.5,-48.15 65.5,-38.32 65.5,-30.58"/>
<polygon fill="midnightblue" stroke="midnightblue" points="62,-57.4 65.5,-67.4 69,-57.4 62,-57.4"/>
</g>
<!-- Node3 -->
<g id="node3" class="node">
<title>Node3</title>
<g id="a_node3"><a xlink:href="structdg_1_1a_real_topology_x3d.html" target="_top" xlink:title="A 3D grid class with X&#45;point topology.">
<polygon fill="none" stroke="black" points="8,-134.5 8,-164.5 123,-164.5 123,-134.5 8,-134.5"/>
<text text-anchor="start" x="16" y="-152.5" font-family="Helvetica,sans-Serif" font-size="10.00">dg::aRealTopologyX3d</text>
<text text-anchor="middle" x="65.5" y="-141.5" font-family="Helvetica,sans-Serif" font-size="10.00">&lt; real_type &gt;</text>
</a>
</g>
</g>
<!-- Node3&#45;&gt;Node2 -->
<g id="edge2" class="edge">
<title>Node3&#45;&gt;Node2</title>
<path fill="none" stroke="midnightblue" d="M65.5,-124.11C65.5,-115.15 65.5,-105.32 65.5,-97.58"/>
<polygon fill="midnightblue" stroke="midnightblue" points="62,-124.4 65.5,-134.4 69,-124.4 62,-124.4"/>
</g>
</g>
</svg>
