<?xml version="1.0" encoding="UTF-8" standalone="no"?>
<!DOCTYPE svg PUBLIC "-//W3C//DTD SVG 1.1//EN"
 "http://www.w3.org/Graphics/SVG/1.1/DTD/svg11.dtd">
<!-- Generated by graphviz version 2.43.0 (0)
 -->
<!-- Title: dg::RealCartesianGrid3d&lt; real_type &gt; Pages: 1 -->
<svg width="154pt" height="240pt"
 viewBox="0.00 0.00 154.00 240.00" xmlns="http://www.w3.org/2000/svg" xmlns:xlink="http://www.w3.org/1999/xlink">
<g id="graph0" class="graph" transform="scale(1 1) rotate(0) translate(4 236)">
<title>dg::RealCartesianGrid3d&lt; real_type &gt;</title>
<!-- Node1 -->
<g id="node1" class="node">
<title>Node1</title>
<g id="a_node1"><a xlink:title="three&#45;dimensional Grid with Cartesian metric">
<polygon fill="#bfbfbf" stroke="black" points="11,-0.5 11,-30.5 135,-30.5 135,-0.5 11,-0.5"/>
<text text-anchor="start" x="19" y="-18.5" font-family="Helvetica,sans-Serif" font-size="10.00">dg::RealCartesianGrid3d</text>
<text text-anchor="middle" x="73" y="-7.5" font-family="Helvetica,sans-Serif" font-size="10.00">&lt; real_type &gt;</text>
</a>
</g>
</g>
<!-- Node2 -->
<g id="node2" class="node">
<title>Node2</title>
<g id="a_node2"><a xlink:href="structdg_1_1a_real_product_geometry3d.html" target="_top" xlink:title="A 3d product space Geometry .">
<polygon fill="none" stroke="black" points="0,-67.5 0,-97.5 146,-97.5 146,-67.5 0,-67.5"/>
<text text-anchor="start" x="8" y="-85.5" font-family="Helvetica,sans-Serif" font-size="10.00">dg::aRealProductGeometry3d</text>
<text text-anchor="middle" x="73" y="-74.5" font-family="Helvetica,sans-Serif" font-size="10.00">&lt; real_type &gt;</text>
</a>
</g>
</g>
<!-- Node2&#45;&gt;Node1 -->
<g id="edge1" class="edge">
<title>Node2&#45;&gt;Node1</title>
<path fill="none" stroke="midnightblue" d="M73,-57.11C73,-48.15 73,-38.32 73,-30.58"/>
<polygon fill="midnightblue" stroke="midnightblue" points="69.5,-57.4 73,-67.4 76.5,-57.4 69.5,-57.4"/>
</g>
<!-- Node3 -->
<g id="node3" class="node">
<title>Node3</title>
<g id="a_node3"><a xlink:href="structdg_1_1a_real_geometry3d.html" target="_top" xlink:title="This is the abstract interface class for a three&#45;dimensional Geometry.">
<polygon fill="none" stroke="black" points="17,-134.5 17,-164.5 129,-164.5 129,-134.5 17,-134.5"/>
<text text-anchor="start" x="25" y="-152.5" font-family="Helvetica,sans-Serif" font-size="10.00">dg::aRealGeometry3d</text>
<text text-anchor="middle" x="73" y="-141.5" font-family="Helvetica,sans-Serif" font-size="10.00">&lt; real_type &gt;</text>
</a>
</g>
</g>
<!-- Node3&#45;&gt;Node2 -->
<g id="edge2" class="edge">
<title>Node3&#45;&gt;Node2</title>
<path fill="none" stroke="midnightblue" d="M73,-124.11C73,-115.15 73,-105.32 73,-97.58"/>
<polygon fill="midnightblue" stroke="midnightblue" points="69.5,-124.4 73,-134.4 76.5,-124.4 69.5,-124.4"/>
</g>
<!-- Node4 -->
<g id="node4" class="node">
<title>Node4</title>
<g id="a_node4"><a xlink:href="structdg_1_1a_real_topology3d.html" target="_top" xlink:title="An abstract base class for three&#45;dimensional grids.">
<polygon fill="none" stroke="black" points="19,-201.5 19,-231.5 127,-231.5 127,-201.5 19,-201.5"/>
<text text-anchor="start" x="27" y="-219.5" font-family="Helvetica,sans-Serif" font-size="10.00">dg::aRealTopology3d</text>
<text text-anchor="middle" x="73" y="-208.5" font-family="Helvetica,sans-Serif" font-size="10.00">&lt; real_type &gt;</text>
</a>
</g>
</g>
<!-- Node4&#45;&gt;Node3 -->
<g id="edge3" class="edge">
<title>Node4&#45;&gt;Node3</title>
<path fill="none" stroke="midnightblue" d="M73,-191.11C73,-182.15 73,-172.32 73,-164.58"/>
<polygon fill="midnightblue" stroke="midnightblue" points="69.5,-191.4 73,-201.4 76.5,-191.4 69.5,-191.4"/>
</g>
</g>
</svg>
