<?xml version="1.0" encoding="UTF-8" standalone="no"?>
<!DOCTYPE svg PUBLIC "-//W3C//DTD SVG 1.1//EN"
 "http://www.w3.org/Graphics/SVG/1.1/DTD/svg11.dtd">
<!-- Generated by graphviz version 2.43.0 (0)
 -->
<!-- Title: dg::RealCartesianRefinedGrid2d&lt; real_type &gt; Pages: 1 -->
<svg width="137pt" height="173pt"
 viewBox="0.00 0.00 137.00 173.00" xmlns="http://www.w3.org/2000/svg" xmlns:xlink="http://www.w3.org/1999/xlink">
<g id="graph0" class="graph" transform="scale(1 1) rotate(0) translate(4 169)">
<title>dg::RealCartesianRefinedGrid2d&lt; real_type &gt;</title>
<!-- Node1 -->
<g id="node1" class="node">
<title>Node1</title>
<g id="a_node1"><a xlink:title="Refined RealCartesian grid.">
<polygon fill="#bfbfbf" stroke="black" points="0,-0.5 0,-30.5 129,-30.5 129,-0.5 0,-0.5"/>
<text text-anchor="start" x="8" y="-18.5" font-family="Helvetica,sans-Serif" font-size="10.00">dg::RealCartesianRefined</text>
<text text-anchor="middle" x="64.5" y="-7.5" font-family="Helvetica,sans-Serif" font-size="10.00">Grid2d&lt; real_type &gt;</text>
</a>
</g>
</g>
<!-- Node2 -->
<g id="node2" class="node">
<title>Node2</title>
<g id="a_node2"><a xlink:href="structdg_1_1a_real_geometry2d.html" target="_top" xlink:title="This is the abstract interface class for a two&#45;dimensional Geometry.">
<polygon fill="none" stroke="black" points="8.5,-67.5 8.5,-97.5 120.5,-97.5 120.5,-67.5 8.5,-67.5"/>
<text text-anchor="start" x="16.5" y="-85.5" font-family="Helvetica,sans-Serif" font-size="10.00">dg::aRealGeometry2d</text>
<text text-anchor="middle" x="64.5" y="-74.5" font-family="Helvetica,sans-Serif" font-size="10.00">&lt; real_type &gt;</text>
</a>
</g>
</g>
<!-- Node2&#45;&gt;Node1 -->
<g id="edge1" class="edge">
<title>Node2&#45;&gt;Node1</title>
<path fill="none" stroke="midnightblue" d="M64.5,-57.11C64.5,-48.15 64.5,-38.32 64.5,-30.58"/>
<polygon fill="midnightblue" stroke="midnightblue" points="61,-57.4 64.5,-67.4 68,-57.4 61,-57.4"/>
</g>
<!-- Node3 -->
<g id="node3" class="node">
<title>Node3</title>
<g id="a_node3"><a xlink:href="structdg_1_1a_real_topology2d.html" target="_top" xlink:title="An abstract base class for two&#45;dimensional grids.">
<polygon fill="none" stroke="black" points="10.5,-134.5 10.5,-164.5 118.5,-164.5 118.5,-134.5 10.5,-134.5"/>
<text text-anchor="start" x="18.5" y="-152.5" font-family="Helvetica,sans-Serif" font-size="10.00">dg::aRealTopology2d</text>
<text text-anchor="middle" x="64.5" y="-141.5" font-family="Helvetica,sans-Serif" font-size="10.00">&lt; real_type &gt;</text>
</a>
</g>
</g>
<!-- Node3&#45;&gt;Node2 -->
<g id="edge2" class="edge">
<title>Node3&#45;&gt;Node2</title>
<path fill="none" stroke="midnightblue" d="M64.5,-124.11C64.5,-115.15 64.5,-105.32 64.5,-97.58"/>
<polygon fill="midnightblue" stroke="midnightblue" points="61,-124.4 64.5,-134.4 68,-124.4 61,-124.4"/>
</g>
</g>
</svg>
