<?xml version="1.0" encoding="UTF-8" standalone="no"?>
<!DOCTYPE svg PUBLIC "-//W3C//DTD SVG 1.1//EN"
 "http://www.w3.org/Graphics/SVG/1.1/DTD/svg11.dtd">
<!-- Generated by graphviz version 2.43.0 (0)
 -->
<!-- Title: dg::aRealGeometry2d&lt; real_type &gt; Pages: 1 -->
<svg width="280pt" height="173pt"
 viewBox="0.00 0.00 279.50 173.00" xmlns="http://www.w3.org/2000/svg" xmlns:xlink="http://www.w3.org/1999/xlink">
<g id="graph0" class="graph" transform="scale(1 1) rotate(0) translate(4 169)">
<title>dg::aRealGeometry2d&lt; real_type &gt;</title>
<!-- Node1 -->
<g id="node1" class="node">
<title>Node1</title>
<g id="a_node1"><a xlink:title="This is the abstract interface class for a two&#45;dimensional Geometry.">
<polygon fill="#bfbfbf" stroke="black" points="78,-67.5 78,-97.5 190,-97.5 190,-67.5 78,-67.5"/>
<text text-anchor="start" x="86" y="-85.5" font-family="Helvetica,sans-Serif" font-size="10.00">dg::aRealGeometry2d</text>
<text text-anchor="middle" x="134" y="-74.5" font-family="Helvetica,sans-Serif" font-size="10.00">&lt; real_type &gt;</text>
</a>
</g>
</g>
<!-- Node3 -->
<g id="node3" class="node">
<title>Node3</title>
<g id="a_node3"><a xlink:href="structdg_1_1_real_cartesian_grid2d.html" target="_top" xlink:title="two&#45;dimensional Grid with Cartesian metric">
<polygon fill="none" stroke="black" points="0,-0.5 0,-30.5 124,-30.5 124,-0.5 0,-0.5"/>
<text text-anchor="start" x="8" y="-18.5" font-family="Helvetica,sans-Serif" font-size="10.00">dg::RealCartesianGrid2d</text>
<text text-anchor="middle" x="62" y="-7.5" font-family="Helvetica,sans-Serif" font-size="10.00">&lt; real_type &gt;</text>
</a>
</g>
</g>
<!-- Node1&#45;&gt;Node3 -->
<g id="edge2" class="edge">
<title>Node1&#45;&gt;Node3</title>
<path fill="none" stroke="midnightblue" d="M110.85,-60.6C99.98,-50.78 87.3,-39.34 77.59,-30.58"/>
<polygon fill="midnightblue" stroke="midnightblue" points="108.61,-63.29 118.38,-67.4 113.3,-58.1 108.61,-63.29"/>
</g>
<!-- Node4 -->
<g id="node4" class="node">
<title>Node4</title>
<g id="a_node4"><a xlink:href="structdg_1_1_real_cartesian_refined_grid2d.html" target="_top" xlink:title="Refined RealCartesian grid.">
<polygon fill="none" stroke="black" points="142.5,-0.5 142.5,-30.5 271.5,-30.5 271.5,-0.5 142.5,-0.5"/>
<text text-anchor="start" x="150.5" y="-18.5" font-family="Helvetica,sans-Serif" font-size="10.00">dg::RealCartesianRefined</text>
<text text-anchor="middle" x="207" y="-7.5" font-family="Helvetica,sans-Serif" font-size="10.00">Grid2d&lt; real_type &gt;</text>
</a>
</g>
</g>
<!-- Node1&#45;&gt;Node4 -->
<g id="edge3" class="edge">
<title>Node1&#45;&gt;Node4</title>
<path fill="none" stroke="midnightblue" d="M157.47,-60.6C168.5,-50.78 181.34,-39.34 191.19,-30.58"/>
<polygon fill="midnightblue" stroke="midnightblue" points="154.98,-58.13 149.84,-67.4 159.64,-63.36 154.98,-58.13"/>
</g>
<!-- Node2 -->
<g id="node2" class="node">
<title>Node2</title>
<g id="a_node2"><a xlink:href="structdg_1_1a_real_topology2d.html" target="_top" xlink:title="An abstract base class for two&#45;dimensional grids.">
<polygon fill="none" stroke="black" points="80,-134.5 80,-164.5 188,-164.5 188,-134.5 80,-134.5"/>
<text text-anchor="start" x="88" y="-152.5" font-family="Helvetica,sans-Serif" font-size="10.00">dg::aRealTopology2d</text>
<text text-anchor="middle" x="134" y="-141.5" font-family="Helvetica,sans-Serif" font-size="10.00">&lt; real_type &gt;</text>
</a>
</g>
</g>
<!-- Node2&#45;&gt;Node1 -->
<g id="edge1" class="edge">
<title>Node2&#45;&gt;Node1</title>
<path fill="none" stroke="midnightblue" d="M134,-124.11C134,-115.15 134,-105.32 134,-97.58"/>
<polygon fill="midnightblue" stroke="midnightblue" points="130.5,-124.4 134,-134.4 137.5,-124.4 130.5,-124.4"/>
</g>
</g>
</svg>
