<?xml version="1.0" encoding="UTF-8" standalone="no"?>
<!DOCTYPE svg PUBLIC "-//W3C//DTD SVG 1.1//EN"
 "http://www.w3.org/Graphics/SVG/1.1/DTD/svg11.dtd">
<!-- Generated by graphviz version 2.43.0 (0)
 -->
<!-- Title: dg::AnyPolicyTag Pages: 1 -->
<svg width="260pt" height="84pt"
 viewBox="0.00 0.00 260.00 84.00" xmlns="http://www.w3.org/2000/svg" xmlns:xlink="http://www.w3.org/1999/xlink">
<g id="graph0" class="graph" transform="scale(1 1) rotate(0) translate(4 80)">
<title>dg::AnyPolicyTag</title>
<!-- Node1 -->
<g id="node1" class="node">
<title>Node1</title>
<g id="a_node1"><a xlink:title="Execution Policy base class.">
<polygon fill="#bfbfbf" stroke="black" points="78.5,-56.5 78.5,-75.5 171.5,-75.5 171.5,-56.5 78.5,-56.5"/>
<text text-anchor="middle" x="125" y="-63.5" font-family="Helvetica,sans-Serif" font-size="10.00">dg::AnyPolicyTag</text>
</a>
</g>
</g>
<!-- Node2 -->
<g id="node2" class="node">
<title>Node2</title>
<g id="a_node2"><a xlink:href="structdg_1_1_cuda_tag.html" target="_top" xlink:title="CUDA implementation.">
<polygon fill="none" stroke="black" points="0,-0.5 0,-19.5 72,-19.5 72,-0.5 0,-0.5"/>
<text text-anchor="middle" x="36" y="-7.5" font-family="Helvetica,sans-Serif" font-size="10.00">dg::CudaTag</text>
</a>
</g>
</g>
<!-- Node1&#45;&gt;Node2 -->
<g id="edge1" class="edge">
<title>Node1&#45;&gt;Node2</title>
<path fill="none" stroke="midnightblue" d="M101.76,-50.9C85.44,-41 64.13,-28.07 50.26,-19.65"/>
<polygon fill="midnightblue" stroke="midnightblue" points="100.34,-54.13 110.7,-56.32 103.97,-48.14 100.34,-54.13"/>
</g>
<!-- Node3 -->
<g id="node3" class="node">
<title>Node3</title>
<g id="a_node3"><a xlink:href="structdg_1_1_omp_tag.html" target="_top" xlink:title="OpenMP parallel execution.">
<polygon fill="none" stroke="black" points="90,-0.5 90,-19.5 160,-19.5 160,-0.5 90,-0.5"/>
<text text-anchor="middle" x="125" y="-7.5" font-family="Helvetica,sans-Serif" font-size="10.00">dg::OmpTag</text>
</a>
</g>
</g>
<!-- Node1&#45;&gt;Node3 -->
<g id="edge2" class="edge">
<title>Node1&#45;&gt;Node3</title>
<path fill="none" stroke="midnightblue" d="M125,-45.8C125,-36.91 125,-26.78 125,-19.75"/>
<polygon fill="midnightblue" stroke="midnightblue" points="121.5,-46.08 125,-56.08 128.5,-46.08 121.5,-46.08"/>
</g>
<!-- Node4 -->
<g id="node4" class="node">
<title>Node4</title>
<g id="a_node4"><a xlink:href="structdg_1_1_serial_tag.html" target="_top" xlink:title="Indicate sequential execution.">
<polygon fill="none" stroke="black" points="178,-0.5 178,-19.5 252,-19.5 252,-0.5 178,-0.5"/>
<text text-anchor="middle" x="215" y="-7.5" font-family="Helvetica,sans-Serif" font-size="10.00">dg::SerialTag</text>
</a>
</g>
</g>
<!-- Node1&#45;&gt;Node4 -->
<g id="edge3" class="edge">
<title>Node1&#45;&gt;Node4</title>
<path fill="none" stroke="midnightblue" d="M148.04,-51.18C164.6,-41.24 186.42,-28.15 200.58,-19.65"/>
<polygon fill="midnightblue" stroke="midnightblue" points="146.23,-48.18 139.46,-56.32 149.84,-54.18 146.23,-48.18"/>
</g>
</g>
</svg>
