<?xml version="1.0" encoding="UTF-8" standalone="no"?>
<!DOCTYPE svg PUBLIC "-//W3C//DTD SVG 1.1//EN"
 "http://www.w3.org/Graphics/SVG/1.1/DTD/svg11.dtd">
<!-- Generated by graphviz version 2.43.0 (0)
 -->
<!-- Title: dg::aRealMPIGeometry3d&lt; real_type &gt; Pages: 1 -->
<svg width="314pt" height="240pt"
 viewBox="0.00 0.00 314.00 240.00" xmlns="http://www.w3.org/2000/svg" xmlns:xlink="http://www.w3.org/1999/xlink">
<g id="graph0" class="graph" transform="scale(1 1) rotate(0) translate(4 236)">
<title>dg::aRealMPIGeometry3d&lt; real_type &gt;</title>
<!-- Node1 -->
<g id="node1" class="node">
<title>Node1</title>
<g id="a_node1"><a xlink:title="This is the abstract interface class for a three&#45;dimensional MPIGeometry.">
<polygon fill="#bfbfbf" stroke="black" points="87,-134.5 87,-164.5 217,-164.5 217,-134.5 87,-134.5"/>
<text text-anchor="start" x="95" y="-152.5" font-family="Helvetica,sans-Serif" font-size="10.00">dg::aRealMPIGeometry3d</text>
<text text-anchor="middle" x="152" y="-141.5" font-family="Helvetica,sans-Serif" font-size="10.00">&lt; real_type &gt;</text>
</a>
</g>
</g>
<!-- Node3 -->
<g id="node3" class="node">
<title>Node3</title>
<g id="a_node3"><a xlink:href="structdg_1_1a_real_product_m_p_i_geometry3d.html" target="_top" xlink:title="A 3d product space Geometry .">
<polygon fill="none" stroke="black" points="70,-67.5 70,-97.5 234,-97.5 234,-67.5 70,-67.5"/>
<text text-anchor="start" x="78" y="-85.5" font-family="Helvetica,sans-Serif" font-size="10.00">dg::aRealProductMPIGeometry3d</text>
<text text-anchor="middle" x="152" y="-74.5" font-family="Helvetica,sans-Serif" font-size="10.00">&lt; real_type &gt;</text>
</a>
</g>
</g>
<!-- Node1&#45;&gt;Node3 -->
<g id="edge2" class="edge">
<title>Node1&#45;&gt;Node3</title>
<path fill="none" stroke="midnightblue" d="M152,-124.11C152,-115.15 152,-105.32 152,-97.58"/>
<polygon fill="midnightblue" stroke="midnightblue" points="148.5,-124.4 152,-134.4 155.5,-124.4 148.5,-124.4"/>
</g>
<!-- Node2 -->
<g id="node2" class="node">
<title>Node2</title>
<g id="a_node2"><a xlink:href="structdg_1_1a_real_m_p_i_topology3d.html" target="_top" xlink:title="3D MPI Grid class">
<polygon fill="none" stroke="black" points="89,-201.5 89,-231.5 215,-231.5 215,-201.5 89,-201.5"/>
<text text-anchor="start" x="97" y="-219.5" font-family="Helvetica,sans-Serif" font-size="10.00">dg::aRealMPITopology3d</text>
<text text-anchor="middle" x="152" y="-208.5" font-family="Helvetica,sans-Serif" font-size="10.00">&lt; real_type &gt;</text>
</a>
</g>
</g>
<!-- Node2&#45;&gt;Node1 -->
<g id="edge1" class="edge">
<title>Node2&#45;&gt;Node1</title>
<path fill="none" stroke="midnightblue" d="M152,-191.11C152,-182.15 152,-172.32 152,-164.58"/>
<polygon fill="midnightblue" stroke="midnightblue" points="148.5,-191.4 152,-201.4 155.5,-191.4 148.5,-191.4"/>
</g>
<!-- Node4 -->
<g id="node4" class="node">
<title>Node4</title>
<g id="a_node4"><a xlink:href="structdg_1_1_real_cartesian_m_p_i_grid3d.html" target="_top" xlink:title="The mpi version of RealCartesianGrid3d.">
<polygon fill="none" stroke="black" points="0,-0.5 0,-30.5 142,-30.5 142,-0.5 0,-0.5"/>
<text text-anchor="start" x="8" y="-18.5" font-family="Helvetica,sans-Serif" font-size="10.00">dg::RealCartesianMPIGrid3d</text>
<text text-anchor="middle" x="71" y="-7.5" font-family="Helvetica,sans-Serif" font-size="10.00">&lt; real_type &gt;</text>
</a>
</g>
</g>
<!-- Node3&#45;&gt;Node4 -->
<g id="edge3" class="edge">
<title>Node3&#45;&gt;Node4</title>
<path fill="none" stroke="midnightblue" d="M126.31,-60.88C114,-51.01 99.57,-39.43 88.54,-30.58"/>
<polygon fill="midnightblue" stroke="midnightblue" points="124.43,-63.87 134.42,-67.4 128.82,-58.41 124.43,-63.87"/>
</g>
<!-- Node5 -->
<g id="node5" class="node">
<title>Node5</title>
<g id="a_node5"><a xlink:href="structdg_1_1_real_cylindrical_m_p_i_grid3d.html" target="_top" xlink:title="the mpi version of RealCylindricalGrid3d">
<polygon fill="none" stroke="black" points="160,-0.5 160,-30.5 306,-30.5 306,-0.5 160,-0.5"/>
<text text-anchor="start" x="168" y="-18.5" font-family="Helvetica,sans-Serif" font-size="10.00">dg::RealCylindricalMPIGrid3d</text>
<text text-anchor="middle" x="233" y="-7.5" font-family="Helvetica,sans-Serif" font-size="10.00">&lt; real_type &gt;</text>
</a>
</g>
</g>
<!-- Node3&#45;&gt;Node5 -->
<g id="edge4" class="edge">
<title>Node3&#45;&gt;Node5</title>
<path fill="none" stroke="midnightblue" d="M177.69,-60.88C190,-51.01 204.43,-39.43 215.46,-30.58"/>
<polygon fill="midnightblue" stroke="midnightblue" points="175.18,-58.41 169.58,-67.4 179.57,-63.87 175.18,-58.41"/>
</g>
</g>
</svg>
