<?xml version="1.0" encoding="UTF-8" standalone="no"?>
<!DOCTYPE svg PUBLIC "-//W3C//DTD SVG 1.1//EN"
 "http://www.w3.org/Graphics/SVG/1.1/DTD/svg11.dtd">
<!-- Generated by graphviz version 2.43.0 (0)
 -->
<!-- Title: dg::aRealMPIGeometry2d&lt; real_type &gt; Pages: 1 -->
<svg width="150pt" height="173pt"
 viewBox="0.00 0.00 150.00 173.00" xmlns="http://www.w3.org/2000/svg" xmlns:xlink="http://www.w3.org/1999/xlink">
<g id="graph0" class="graph" transform="scale(1 1) rotate(0) translate(4 169)">
<title>dg::aRealMPIGeometry2d&lt; real_type &gt;</title>
<!-- Node1 -->
<g id="node1" class="node">
<title>Node1</title>
<g id="a_node1"><a xlink:title="This is the abstract interface class for a two&#45;dimensional Geometry.">
<polygon fill="#bfbfbf" stroke="black" points="6,-67.5 6,-97.5 136,-97.5 136,-67.5 6,-67.5"/>
<text text-anchor="start" x="14" y="-85.5" font-family="Helvetica,sans-Serif" font-size="10.00">dg::aRealMPIGeometry2d</text>
<text text-anchor="middle" x="71" y="-74.5" font-family="Helvetica,sans-Serif" font-size="10.00">&lt; real_type &gt;</text>
</a>
</g>
</g>
<!-- Node3 -->
<g id="node3" class="node">
<title>Node3</title>
<g id="a_node3"><a xlink:href="structdg_1_1_real_cartesian_m_p_i_grid2d.html" target="_top" xlink:title="The mpi version of RealCartesianGrid2d.">
<polygon fill="none" stroke="black" points="0,-0.5 0,-30.5 142,-30.5 142,-0.5 0,-0.5"/>
<text text-anchor="start" x="8" y="-18.5" font-family="Helvetica,sans-Serif" font-size="10.00">dg::RealCartesianMPIGrid2d</text>
<text text-anchor="middle" x="71" y="-7.5" font-family="Helvetica,sans-Serif" font-size="10.00">&lt; real_type &gt;</text>
</a>
</g>
</g>
<!-- Node1&#45;&gt;Node3 -->
<g id="edge2" class="edge">
<title>Node1&#45;&gt;Node3</title>
<path fill="none" stroke="midnightblue" d="M71,-57.11C71,-48.15 71,-38.32 71,-30.58"/>
<polygon fill="midnightblue" stroke="midnightblue" points="67.5,-57.4 71,-67.4 74.5,-57.4 67.5,-57.4"/>
</g>
<!-- Node2 -->
<g id="node2" class="node">
<title>Node2</title>
<g id="a_node2"><a xlink:href="structdg_1_1a_real_m_p_i_topology2d.html" target="_top" xlink:title="2D MPI abstract grid class">
<polygon fill="none" stroke="black" points="8,-134.5 8,-164.5 134,-164.5 134,-134.5 8,-134.5"/>
<text text-anchor="start" x="16" y="-152.5" font-family="Helvetica,sans-Serif" font-size="10.00">dg::aRealMPITopology2d</text>
<text text-anchor="middle" x="71" y="-141.5" font-family="Helvetica,sans-Serif" font-size="10.00">&lt; real_type &gt;</text>
</a>
</g>
</g>
<!-- Node2&#45;&gt;Node1 -->
<g id="edge1" class="edge">
<title>Node2&#45;&gt;Node1</title>
<path fill="none" stroke="midnightblue" d="M71,-124.11C71,-115.15 71,-105.32 71,-97.58"/>
<polygon fill="midnightblue" stroke="midnightblue" points="67.5,-124.4 71,-134.4 74.5,-124.4 67.5,-124.4"/>
</g>
</g>
</svg>
