<?xml version="1.0" encoding="UTF-8" standalone="no"?>
<!DOCTYPE svg PUBLIC "-//W3C//DTD SVG 1.1//EN"
 "http://www.w3.org/Graphics/SVG/1.1/DTD/svg11.dtd">
<!-- Generated by graphviz version 2.43.0 (0)
 -->
<!-- Title: dg::aRealMPITopology2d&lt; real_type &gt; Pages: 1 -->
<svg width="268pt" height="173pt"
 viewBox="0.00 0.00 268.00 173.00" xmlns="http://www.w3.org/2000/svg" xmlns:xlink="http://www.w3.org/1999/xlink">
<g id="graph0" class="graph" transform="scale(1 1) rotate(0) translate(4 169)">
<title>dg::aRealMPITopology2d&lt; real_type &gt;</title>
<!-- Node1 -->
<g id="node1" class="node">
<title>Node1</title>
<g id="a_node1"><a xlink:title="2D MPI abstract grid class">
<polygon fill="#bfbfbf" stroke="black" points="58,-134.5 58,-164.5 184,-164.5 184,-134.5 58,-134.5"/>
<text text-anchor="start" x="66" y="-152.5" font-family="Helvetica,sans-Serif" font-size="10.00">dg::aRealMPITopology2d</text>
<text text-anchor="middle" x="121" y="-141.5" font-family="Helvetica,sans-Serif" font-size="10.00">&lt; real_type &gt;</text>
</a>
</g>
</g>
<!-- Node2 -->
<g id="node2" class="node">
<title>Node2</title>
<g id="a_node2"><a xlink:href="structdg_1_1_real_m_p_i_grid2d.html" target="_top" xlink:title="The simplest implementation of aRealMPITopology2d.">
<polygon fill="none" stroke="black" points="0,-67.5 0,-97.5 106,-97.5 106,-67.5 0,-67.5"/>
<text text-anchor="start" x="8" y="-85.5" font-family="Helvetica,sans-Serif" font-size="10.00">dg::RealMPIGrid2d&lt;</text>
<text text-anchor="middle" x="53" y="-74.5" font-family="Helvetica,sans-Serif" font-size="10.00"> real_type &gt;</text>
</a>
</g>
</g>
<!-- Node1&#45;&gt;Node2 -->
<g id="edge1" class="edge">
<title>Node1&#45;&gt;Node2</title>
<path fill="none" stroke="midnightblue" d="M98.83,-127.31C88.63,-117.56 76.81,-106.26 67.73,-97.58"/>
<polygon fill="midnightblue" stroke="midnightblue" points="96.6,-130.02 106.25,-134.4 101.43,-124.96 96.6,-130.02"/>
</g>
<!-- Node3 -->
<g id="node3" class="node">
<title>Node3</title>
<g id="a_node3"><a xlink:href="structdg_1_1a_real_m_p_i_geometry2d.html" target="_top" xlink:title="This is the abstract interface class for a two&#45;dimensional Geometry.">
<polygon fill="none" stroke="black" points="124,-67.5 124,-97.5 254,-97.5 254,-67.5 124,-67.5"/>
<text text-anchor="start" x="132" y="-85.5" font-family="Helvetica,sans-Serif" font-size="10.00">dg::aRealMPIGeometry2d</text>
<text text-anchor="middle" x="189" y="-74.5" font-family="Helvetica,sans-Serif" font-size="10.00">&lt; real_type &gt;</text>
</a>
</g>
</g>
<!-- Node1&#45;&gt;Node3 -->
<g id="edge2" class="edge">
<title>Node1&#45;&gt;Node3</title>
<path fill="none" stroke="midnightblue" d="M143.17,-127.31C153.37,-117.56 165.19,-106.26 174.27,-97.58"/>
<polygon fill="midnightblue" stroke="midnightblue" points="140.57,-124.96 135.75,-134.4 145.4,-130.02 140.57,-124.96"/>
</g>
<!-- Node4 -->
<g id="node4" class="node">
<title>Node4</title>
<g id="a_node4"><a xlink:href="structdg_1_1_real_cartesian_m_p_i_grid2d.html" target="_top" xlink:title="The mpi version of RealCartesianGrid2d.">
<polygon fill="none" stroke="black" points="118,-0.5 118,-30.5 260,-30.5 260,-0.5 118,-0.5"/>
<text text-anchor="start" x="126" y="-18.5" font-family="Helvetica,sans-Serif" font-size="10.00">dg::RealCartesianMPIGrid2d</text>
<text text-anchor="middle" x="189" y="-7.5" font-family="Helvetica,sans-Serif" font-size="10.00">&lt; real_type &gt;</text>
</a>
</g>
</g>
<!-- Node3&#45;&gt;Node4 -->
<g id="edge3" class="edge">
<title>Node3&#45;&gt;Node4</title>
<path fill="none" stroke="midnightblue" d="M189,-57.11C189,-48.15 189,-38.32 189,-30.58"/>
<polygon fill="midnightblue" stroke="midnightblue" points="185.5,-57.4 189,-67.4 192.5,-57.4 185.5,-57.4"/>
</g>
</g>
</svg>
