<?xml version="1.0" encoding="UTF-8" standalone="no"?>
<!DOCTYPE svg PUBLIC "-//W3C//DTD SVG 1.1//EN"
 "http://www.w3.org/Graphics/SVG/1.1/DTD/svg11.dtd">
<!-- Generated by graphviz version 2.43.0 (0)
 -->
<!-- Title: accumulate.h Pages: 1 -->
<svg width="291pt" height="84pt"
 viewBox="0.00 0.00 290.50 84.00" xmlns="http://www.w3.org/2000/svg" xmlns:xlink="http://www.w3.org/1999/xlink">
<g id="graph0" class="graph" transform="scale(1 1) rotate(0) translate(4 80)">
<title>accumulate.h</title>
<!-- Node1 -->
<g id="node1" class="node">
<title>Node1</title>
<g id="a_node1"><a xlink:title="Primitives for accumulation into superaccumulator.">
<polygon fill="#bfbfbf" stroke="black" points="92,-56.5 92,-75.5 167,-75.5 167,-56.5 92,-56.5"/>
<text text-anchor="middle" x="129.5" y="-63.5" font-family="Helvetica,sans-Serif" font-size="10.00">accumulate.h</text>
</a>
</g>
</g>
<!-- Node2 -->
<g id="node2" class="node">
<title>Node2</title>
<g id="a_node2"><a xlink:href="exdot__omp_8h.html" target="_top" xlink:title="OpenMP version of exdot.">
<polygon fill="none" stroke="black" points="0,-0.5 0,-19.5 73,-19.5 73,-0.5 0,-0.5"/>
<text text-anchor="middle" x="36.5" y="-7.5" font-family="Helvetica,sans-Serif" font-size="10.00">exdot_omp.h</text>
</a>
</g>
</g>
<!-- Node1&#45;&gt;Node2 -->
<g id="edge1" class="edge">
<title>Node1&#45;&gt;Node2</title>
<path fill="none" stroke="midnightblue" d="M105.69,-51.18C88.58,-41.24 66.03,-28.15 51.4,-19.65"/>
<polygon fill="midnightblue" stroke="midnightblue" points="104.15,-54.33 114.56,-56.32 107.67,-48.28 104.15,-54.33"/>
</g>
<!-- Node3 -->
<g id="node3" class="node">
<title>Node3</title>
<g id="a_node3"><a xlink:href="exdot__serial_8h.html" target="_top" xlink:title="Serial version of exdot.">
<polygon fill="none" stroke="black" points="91,-0.5 91,-19.5 168,-19.5 168,-0.5 91,-0.5"/>
<text text-anchor="middle" x="129.5" y="-7.5" font-family="Helvetica,sans-Serif" font-size="10.00">exdot_serial.h</text>
</a>
</g>
</g>
<!-- Node1&#45;&gt;Node3 -->
<g id="edge2" class="edge">
<title>Node1&#45;&gt;Node3</title>
<path fill="none" stroke="midnightblue" d="M129.5,-45.8C129.5,-36.91 129.5,-26.78 129.5,-19.75"/>
<polygon fill="midnightblue" stroke="midnightblue" points="126,-46.08 129.5,-56.08 133,-46.08 126,-46.08"/>
</g>
<!-- Node4 -->
<g id="node4" class="node">
<title>Node4</title>
<g id="a_node4"><a xlink:href="mpi__accumulate_8h.html" target="_top" xlink:title="Primitives for an MPI Reduction.">
<polygon fill="none" stroke="black" points="186.5,-0.5 186.5,-19.5 282.5,-19.5 282.5,-0.5 186.5,-0.5"/>
<text text-anchor="middle" x="234.5" y="-7.5" font-family="Helvetica,sans-Serif" font-size="10.00">mpi_accumulate.h</text>
</a>
</g>
</g>
<!-- Node1&#45;&gt;Node4 -->
<g id="edge3" class="edge">
<title>Node1&#45;&gt;Node4</title>
<path fill="none" stroke="midnightblue" d="M155.31,-51.73C174.75,-41.73 200.85,-28.31 217.67,-19.65"/>
<polygon fill="midnightblue" stroke="midnightblue" points="153.66,-48.64 146.37,-56.32 156.86,-54.86 153.66,-48.64"/>
</g>
</g>
</svg>
