<?xml version="1.0" encoding="UTF-8" standalone="no"?>
<!DOCTYPE svg PUBLIC "-//W3C//DTD SVG 1.1//EN"
 "http://www.w3.org/Graphics/SVG/1.1/DTD/svg11.dtd">
<!-- Generated by graphviz version 2.43.0 (0)
 -->
<!-- Title: exdot_omp.h Pages: 1 -->
<svg width="582pt" height="140pt"
 viewBox="0.00 0.00 581.50 140.00" xmlns="http://www.w3.org/2000/svg" xmlns:xlink="http://www.w3.org/1999/xlink">
<g id="graph0" class="graph" transform="scale(1 1) rotate(0) translate(4 136)">
<title>exdot_omp.h</title>
<!-- Node1 -->
<g id="node1" class="node">
<title>Node1</title>
<g id="a_node1"><a xlink:title="OpenMP version of exdot.">
<polygon fill="#bfbfbf" stroke="black" points="210,-112.5 210,-131.5 283,-131.5 283,-112.5 210,-112.5"/>
<text text-anchor="middle" x="246.5" y="-119.5" font-family="Helvetica,sans-Serif" font-size="10.00">exdot_omp.h</text>
</a>
</g>
</g>
<!-- Node2 -->
<g id="node2" class="node">
<title>Node2</title>
<g id="a_node2"><a xlink:title=" ">
<polygon fill="none" stroke="#bfbfbf" points="0,-56.5 0,-75.5 49,-75.5 49,-56.5 0,-56.5"/>
<text text-anchor="middle" x="24.5" y="-63.5" font-family="Helvetica,sans-Serif" font-size="10.00">cassert</text>
</a>
</g>
</g>
<!-- Node1&#45;&gt;Node2 -->
<g id="edge1" class="edge">
<title>Node1&#45;&gt;Node2</title>
<path fill="none" stroke="midnightblue" d="M209.83,-112.64C173.77,-104.34 116.93,-91.03 59.34,-76.42"/>
<polygon fill="midnightblue" stroke="midnightblue" points="59.9,-72.95 49.34,-73.87 58.17,-79.73 59.9,-72.95"/>
</g>
<!-- Node3 -->
<g id="node3" class="node">
<title>Node3</title>
<g id="a_node3"><a xlink:title=" ">
<polygon fill="none" stroke="#bfbfbf" points="67,-56.5 67,-75.5 112,-75.5 112,-56.5 67,-56.5"/>
<text text-anchor="middle" x="89.5" y="-63.5" font-family="Helvetica,sans-Serif" font-size="10.00">cstdlib</text>
</a>
</g>
</g>
<!-- Node1&#45;&gt;Node3 -->
<g id="edge2" class="edge">
<title>Node1&#45;&gt;Node3</title>
<path fill="none" stroke="midnightblue" d="M221.62,-112.44C194.59,-103.15 151.3,-88.26 121.7,-78.07"/>
<polygon fill="midnightblue" stroke="midnightblue" points="122.82,-74.76 112.22,-74.82 120.54,-81.38 122.82,-74.76"/>
</g>
<!-- Node4 -->
<g id="node4" class="node">
<title>Node4</title>
<g id="a_node4"><a xlink:title=" ">
<polygon fill="none" stroke="#bfbfbf" points="130,-56.5 130,-75.5 173,-75.5 173,-56.5 130,-56.5"/>
<text text-anchor="middle" x="151.5" y="-63.5" font-family="Helvetica,sans-Serif" font-size="10.00">cstdio</text>
</a>
</g>
</g>
<!-- Node1&#45;&gt;Node4 -->
<g id="edge3" class="edge">
<title>Node1&#45;&gt;Node4</title>
<path fill="none" stroke="midnightblue" d="M231.24,-112.32C216.28,-103.82 193.25,-90.73 175.77,-80.8"/>
<polygon fill="midnightblue" stroke="midnightblue" points="177.15,-77.55 166.73,-75.65 173.69,-83.64 177.15,-77.55"/>
</g>
<!-- Node5 -->
<g id="node5" class="node">
<title>Node5</title>
<g id="a_node5"><a xlink:title=" ">
<polygon fill="none" stroke="#bfbfbf" points="191.5,-56.5 191.5,-75.5 235.5,-75.5 235.5,-56.5 191.5,-56.5"/>
<text text-anchor="middle" x="213.5" y="-63.5" font-family="Helvetica,sans-Serif" font-size="10.00">cmath</text>
</a>
</g>
</g>
<!-- Node1&#45;&gt;Node5 -->
<g id="edge4" class="edge">
<title>Node1&#45;&gt;Node5</title>
<path fill="none" stroke="midnightblue" d="M241.05,-112.08C236.49,-104.61 229.83,-93.72 224.21,-84.52"/>
<polygon fill="midnightblue" stroke="midnightblue" points="227.05,-82.46 218.85,-75.75 221.08,-86.11 227.05,-82.46"/>
</g>
<!-- Node6 -->
<g id="node6" class="node">
<title>Node6</title>
<g id="a_node6"><a xlink:title=" ">
<polygon fill="none" stroke="#bfbfbf" points="253.5,-56.5 253.5,-75.5 307.5,-75.5 307.5,-56.5 253.5,-56.5"/>
<text text-anchor="middle" x="280.5" y="-63.5" font-family="Helvetica,sans-Serif" font-size="10.00">iostream</text>
</a>
</g>
</g>
<!-- Node1&#45;&gt;Node6 -->
<g id="edge5" class="edge">
<title>Node1&#45;&gt;Node6</title>
<path fill="none" stroke="midnightblue" d="M252.11,-112.08C256.87,-104.53 263.82,-93.49 269.65,-84.23"/>
<polygon fill="midnightblue" stroke="midnightblue" points="272.62,-86.08 274.99,-75.75 266.7,-82.35 272.62,-86.08"/>
</g>
<!-- Node7 -->
<g id="node7" class="node">
<title>Node7</title>
<g id="a_node7"><a xlink:href="accumulate_8h.html" target="_top" xlink:title="Primitives for accumulation into superaccumulator.">
<polygon fill="none" stroke="black" points="326,-56.5 326,-75.5 401,-75.5 401,-56.5 326,-56.5"/>
<text text-anchor="middle" x="363.5" y="-63.5" font-family="Helvetica,sans-Serif" font-size="10.00">accumulate.h</text>
</a>
</g>
</g>
<!-- Node1&#45;&gt;Node7 -->
<g id="edge6" class="edge">
<title>Node1&#45;&gt;Node7</title>
<path fill="none" stroke="midnightblue" d="M265.04,-112.44C284.12,-103.64 314.07,-89.81 335.94,-79.72"/>
<polygon fill="midnightblue" stroke="midnightblue" points="337.43,-82.88 345.05,-75.52 334.5,-76.53 337.43,-82.88"/>
</g>
<!-- Node10 -->
<g id="node10" class="node">
<title>Node10</title>
<g id="a_node10"><a xlink:title=" ">
<polygon fill="none" stroke="#bfbfbf" points="419.5,-56.5 419.5,-75.5 511.5,-75.5 511.5,-56.5 419.5,-56.5"/>
<text text-anchor="middle" x="465.5" y="-63.5" font-family="Helvetica,sans-Serif" font-size="10.00">ExSUM.FPE.hpp</text>
</a>
</g>
</g>
<!-- Node1&#45;&gt;Node10 -->
<g id="edge9" class="edge">
<title>Node1&#45;&gt;Node10</title>
<path fill="none" stroke="midnightblue" d="M281.2,-112.44C319.08,-103.1 379.85,-88.12 421.16,-77.93"/>
<polygon fill="midnightblue" stroke="midnightblue" points="422.09,-81.31 430.96,-75.52 420.41,-74.51 422.09,-81.31"/>
</g>
<!-- Node11 -->
<g id="node11" class="node">
<title>Node11</title>
<g id="a_node11"><a xlink:title=" ">
<polygon fill="none" stroke="#bfbfbf" points="529.5,-56.5 529.5,-75.5 573.5,-75.5 573.5,-56.5 529.5,-56.5"/>
<text text-anchor="middle" x="551.5" y="-63.5" font-family="Helvetica,sans-Serif" font-size="10.00">omp.h</text>
</a>
</g>
</g>
<!-- Node1&#45;&gt;Node11 -->
<g id="edge10" class="edge">
<title>Node1&#45;&gt;Node11</title>
<path fill="none" stroke="midnightblue" d="M283.11,-116.41C334.06,-109.71 429.34,-96.06 519.41,-76.03"/>
<polygon fill="midnightblue" stroke="midnightblue" points="520.25,-79.43 529.23,-73.81 518.71,-72.6 520.25,-79.43"/>
</g>
<!-- Node8 -->
<g id="node8" class="node">
<title>Node8</title>
<g id="a_node8"><a xlink:title=" ">
<polygon fill="none" stroke="#bfbfbf" points="299,-0.5 299,-19.5 350,-19.5 350,-0.5 299,-0.5"/>
<text text-anchor="middle" x="324.5" y="-7.5" font-family="Helvetica,sans-Serif" font-size="10.00">config.h</text>
</a>
</g>
</g>
<!-- Node7&#45;&gt;Node8 -->
<g id="edge7" class="edge">
<title>Node7&#45;&gt;Node8</title>
<path fill="none" stroke="midnightblue" d="M357.06,-56.08C351.55,-48.46 343.47,-37.26 336.74,-27.94"/>
<polygon fill="midnightblue" stroke="midnightblue" points="339.51,-25.81 330.82,-19.75 333.84,-29.91 339.51,-25.81"/>
</g>
<!-- Node9 -->
<g id="node9" class="node">
<title>Node9</title>
<g id="a_node9"><a xlink:title=" ">
<polygon fill="none" stroke="#bfbfbf" points="368,-0.5 368,-19.5 435,-19.5 435,-0.5 368,-0.5"/>
<text text-anchor="middle" x="401.5" y="-7.5" font-family="Helvetica,sans-Serif" font-size="10.00">mylibm.hpp</text>
</a>
</g>
</g>
<!-- Node7&#45;&gt;Node9 -->
<g id="edge8" class="edge">
<title>Node7&#45;&gt;Node9</title>
<path fill="none" stroke="midnightblue" d="M369.77,-56.08C375.14,-48.46 383.02,-37.26 389.58,-27.94"/>
<polygon fill="midnightblue" stroke="midnightblue" points="392.45,-29.94 395.34,-19.75 386.72,-25.91 392.45,-29.94"/>
</g>
</g>
</svg>
