<?xml version="1.0" encoding="UTF-8" standalone="no"?>
<!DOCTYPE svg PUBLIC "-//W3C//DTD SVG 1.1//EN"
 "http://www.w3.org/Graphics/SVG/1.1/DTD/svg11.dtd">
<!-- Generated by graphviz version 2.43.0 (0)
 -->
<!-- Title: exdot_cuda.cuh Pages: 1 -->
<svg width="254pt" height="140pt"
 viewBox="0.00 0.00 254.00 140.00" xmlns="http://www.w3.org/2000/svg" xmlns:xlink="http://www.w3.org/1999/xlink">
<g id="graph0" class="graph" transform="scale(1 1) rotate(0) translate(4 136)">
<title>exdot_cuda.cuh</title>
<!-- Node1 -->
<g id="node1" class="node">
<title>Node1</title>
<g id="a_node1"><a xlink:title="CUDA version of exdot.">
<polygon fill="#bfbfbf" stroke="black" points="72.5,-112.5 72.5,-131.5 158.5,-131.5 158.5,-112.5 72.5,-112.5"/>
<text text-anchor="middle" x="115.5" y="-119.5" font-family="Helvetica,sans-Serif" font-size="10.00">exdot_cuda.cuh</text>
</a>
</g>
</g>
<!-- Node2 -->
<g id="node2" class="node">
<title>Node2</title>
<g id="a_node2"><a xlink:title=" ">
<polygon fill="none" stroke="#bfbfbf" points="0,-56.5 0,-75.5 113,-75.5 113,-56.5 0,-56.5"/>
<text text-anchor="middle" x="56.5" y="-63.5" font-family="Helvetica,sans-Serif" font-size="10.00">thrust/device_vector.h</text>
</a>
</g>
</g>
<!-- Node1&#45;&gt;Node2 -->
<g id="edge1" class="edge">
<title>Node1&#45;&gt;Node2</title>
<path fill="none" stroke="midnightblue" d="M106.02,-112.32C97.3,-104.34 84.16,-92.31 73.6,-82.65"/>
<polygon fill="midnightblue" stroke="midnightblue" points="75.89,-80 66.15,-75.83 71.17,-85.17 75.89,-80"/>
</g>
<!-- Node3 -->
<g id="node3" class="node">
<title>Node3</title>
<g id="a_node3"><a xlink:href="accumulate_8cuh.html" target="_top" xlink:title="The CUDA version of accumulate.h.">
<polygon fill="none" stroke="black" points="131.5,-56.5 131.5,-75.5 217.5,-75.5 217.5,-56.5 131.5,-56.5"/>
<text text-anchor="middle" x="174.5" y="-63.5" font-family="Helvetica,sans-Serif" font-size="10.00">accumulate.cuh</text>
</a>
</g>
</g>
<!-- Node1&#45;&gt;Node3 -->
<g id="edge2" class="edge">
<title>Node1&#45;&gt;Node3</title>
<path fill="none" stroke="midnightblue" d="M124.98,-112.32C133.7,-104.34 146.84,-92.31 157.4,-82.65"/>
<polygon fill="midnightblue" stroke="midnightblue" points="159.83,-85.17 164.85,-75.83 155.11,-80 159.83,-85.17"/>
</g>
<!-- Node4 -->
<g id="node4" class="node">
<title>Node4</title>
<g id="a_node4"><a xlink:title=" ">
<polygon fill="none" stroke="#bfbfbf" points="110,-0.5 110,-19.5 161,-19.5 161,-0.5 110,-0.5"/>
<text text-anchor="middle" x="135.5" y="-7.5" font-family="Helvetica,sans-Serif" font-size="10.00">config.h</text>
</a>
</g>
</g>
<!-- Node3&#45;&gt;Node4 -->
<g id="edge3" class="edge">
<title>Node3&#45;&gt;Node4</title>
<path fill="none" stroke="midnightblue" d="M168.06,-56.08C162.55,-48.46 154.47,-37.26 147.74,-27.94"/>
<polygon fill="midnightblue" stroke="midnightblue" points="150.51,-25.81 141.82,-19.75 144.84,-29.91 150.51,-25.81"/>
</g>
<!-- Node5 -->
<g id="node5" class="node">
<title>Node5</title>
<g id="a_node5"><a xlink:title=" ">
<polygon fill="none" stroke="#bfbfbf" points="179,-0.5 179,-19.5 246,-19.5 246,-0.5 179,-0.5"/>
<text text-anchor="middle" x="212.5" y="-7.5" font-family="Helvetica,sans-Serif" font-size="10.00">mylibm.cuh</text>
</a>
</g>
</g>
<!-- Node3&#45;&gt;Node5 -->
<g id="edge4" class="edge">
<title>Node3&#45;&gt;Node5</title>
<path fill="none" stroke="midnightblue" d="M180.77,-56.08C186.14,-48.46 194.02,-37.26 200.58,-27.94"/>
<polygon fill="midnightblue" stroke="midnightblue" points="203.45,-29.94 206.34,-19.75 197.72,-25.91 203.45,-29.94"/>
</g>
</g>
</svg>
