<?xml version="1.0" encoding="UTF-8" standalone="no"?>
<!DOCTYPE svg PUBLIC "-//W3C//DTD SVG 1.1//EN"
 "http://www.w3.org/Graphics/SVG/1.1/DTD/svg11.dtd">
<!-- Generated by graphviz version 2.43.0 (0)
 -->
<!-- Title: exdot_serial.h Pages: 1 -->
<svg width="520pt" height="140pt"
 viewBox="0.00 0.00 519.50 140.00" xmlns="http://www.w3.org/2000/svg" xmlns:xlink="http://www.w3.org/1999/xlink">
<g id="graph0" class="graph" transform="scale(1 1) rotate(0) translate(4 136)">
<title>exdot_serial.h</title>
<!-- Node1 -->
<g id="node1" class="node">
<title>Node1</title>
<g id="a_node1"><a xlink:title="Serial version of exdot.">
<polygon fill="#bfbfbf" stroke="black" points="175,-112.5 175,-131.5 252,-131.5 252,-112.5 175,-112.5"/>
<text text-anchor="middle" x="213.5" y="-119.5" font-family="Helvetica,sans-Serif" font-size="10.00">exdot_serial.h</text>
</a>
</g>
</g>
<!-- Node2 -->
<g id="node2" class="node">
<title>Node2</title>
<g id="a_node2"><a xlink:title=" ">
<polygon fill="none" stroke="#bfbfbf" points="0,-56.5 0,-75.5 49,-75.5 49,-56.5 0,-56.5"/>
<text text-anchor="middle" x="24.5" y="-63.5" font-family="Helvetica,sans-Serif" font-size="10.00">cassert</text>
</a>
</g>
</g>
<!-- Node1&#45;&gt;Node2 -->
<g id="edge1" class="edge">
<title>Node1&#45;&gt;Node2</title>
<path fill="none" stroke="midnightblue" d="M183.55,-112.44C149.73,-102.78 94.78,-87.08 59.14,-76.9"/>
<polygon fill="midnightblue" stroke="midnightblue" points="59.76,-73.44 49.19,-74.05 57.84,-80.17 59.76,-73.44"/>
</g>
<!-- Node3 -->
<g id="node3" class="node">
<title>Node3</title>
<g id="a_node3"><a xlink:title=" ">
<polygon fill="none" stroke="#bfbfbf" points="67,-56.5 67,-75.5 112,-75.5 112,-56.5 67,-56.5"/>
<text text-anchor="middle" x="89.5" y="-63.5" font-family="Helvetica,sans-Serif" font-size="10.00">cstdlib</text>
</a>
</g>
</g>
<!-- Node1&#45;&gt;Node3 -->
<g id="edge2" class="edge">
<title>Node1&#45;&gt;Node3</title>
<path fill="none" stroke="midnightblue" d="M193.85,-112.44C173.54,-103.6 141.6,-89.69 118.4,-79.59"/>
<polygon fill="midnightblue" stroke="midnightblue" points="119.62,-76.3 109.06,-75.52 116.83,-82.72 119.62,-76.3"/>
</g>
<!-- Node4 -->
<g id="node4" class="node">
<title>Node4</title>
<g id="a_node4"><a xlink:title=" ">
<polygon fill="none" stroke="#bfbfbf" points="130,-56.5 130,-75.5 173,-75.5 173,-56.5 130,-56.5"/>
<text text-anchor="middle" x="151.5" y="-63.5" font-family="Helvetica,sans-Serif" font-size="10.00">cstdio</text>
</a>
</g>
</g>
<!-- Node1&#45;&gt;Node4 -->
<g id="edge3" class="edge">
<title>Node1&#45;&gt;Node4</title>
<path fill="none" stroke="midnightblue" d="M203.54,-112.32C194.37,-104.34 180.56,-92.31 169.47,-82.65"/>
<polygon fill="midnightblue" stroke="midnightblue" points="171.48,-79.76 161.64,-75.83 166.88,-85.04 171.48,-79.76"/>
</g>
<!-- Node5 -->
<g id="node5" class="node">
<title>Node5</title>
<g id="a_node5"><a xlink:title=" ">
<polygon fill="none" stroke="#bfbfbf" points="191.5,-56.5 191.5,-75.5 235.5,-75.5 235.5,-56.5 191.5,-56.5"/>
<text text-anchor="middle" x="213.5" y="-63.5" font-family="Helvetica,sans-Serif" font-size="10.00">cmath</text>
</a>
</g>
</g>
<!-- Node1&#45;&gt;Node5 -->
<g id="edge4" class="edge">
<title>Node1&#45;&gt;Node5</title>
<path fill="none" stroke="midnightblue" d="M213.5,-112.08C213.5,-105.01 213.5,-94.86 213.5,-85.99"/>
<polygon fill="midnightblue" stroke="midnightblue" points="217,-85.75 213.5,-75.75 210,-85.75 217,-85.75"/>
</g>
<!-- Node6 -->
<g id="node6" class="node">
<title>Node6</title>
<g id="a_node6"><a xlink:title=" ">
<polygon fill="none" stroke="#bfbfbf" points="253.5,-56.5 253.5,-75.5 307.5,-75.5 307.5,-56.5 253.5,-56.5"/>
<text text-anchor="middle" x="280.5" y="-63.5" font-family="Helvetica,sans-Serif" font-size="10.00">iostream</text>
</a>
</g>
</g>
<!-- Node1&#45;&gt;Node6 -->
<g id="edge5" class="edge">
<title>Node1&#45;&gt;Node6</title>
<path fill="none" stroke="midnightblue" d="M224.26,-112.32C234.27,-104.26 249.39,-92.08 261.43,-82.37"/>
<polygon fill="midnightblue" stroke="midnightblue" points="263.95,-84.83 269.54,-75.83 259.56,-79.38 263.95,-84.83"/>
</g>
<!-- Node7 -->
<g id="node7" class="node">
<title>Node7</title>
<g id="a_node7"><a xlink:href="accumulate_8h.html" target="_top" xlink:title="Primitives for accumulation into superaccumulator.">
<polygon fill="none" stroke="black" points="326,-56.5 326,-75.5 401,-75.5 401,-56.5 326,-56.5"/>
<text text-anchor="middle" x="363.5" y="-63.5" font-family="Helvetica,sans-Serif" font-size="10.00">accumulate.h</text>
</a>
</g>
</g>
<!-- Node1&#45;&gt;Node7 -->
<g id="edge6" class="edge">
<title>Node1&#45;&gt;Node7</title>
<path fill="none" stroke="midnightblue" d="M237.27,-112.44C262.39,-103.4 302.21,-89.06 330.4,-78.92"/>
<polygon fill="midnightblue" stroke="midnightblue" points="331.62,-82.2 339.84,-75.52 329.25,-75.61 331.62,-82.2"/>
</g>
<!-- Node10 -->
<g id="node10" class="node">
<title>Node10</title>
<g id="a_node10"><a xlink:title=" ">
<polygon fill="none" stroke="#bfbfbf" points="419.5,-56.5 419.5,-75.5 511.5,-75.5 511.5,-56.5 419.5,-56.5"/>
<text text-anchor="middle" x="465.5" y="-63.5" font-family="Helvetica,sans-Serif" font-size="10.00">ExSUM.FPE.hpp</text>
</a>
</g>
</g>
<!-- Node1&#45;&gt;Node10 -->
<g id="edge9" class="edge">
<title>Node1&#45;&gt;Node10</title>
<path fill="none" stroke="midnightblue" d="M252.05,-112.74C295.94,-103.33 367.77,-87.94 415.83,-77.64"/>
<polygon fill="midnightblue" stroke="midnightblue" points="416.66,-81.04 425.71,-75.53 415.2,-74.2 416.66,-81.04"/>
</g>
<!-- Node8 -->
<g id="node8" class="node">
<title>Node8</title>
<g id="a_node8"><a xlink:title=" ">
<polygon fill="none" stroke="#bfbfbf" points="299,-0.5 299,-19.5 350,-19.5 350,-0.5 299,-0.5"/>
<text text-anchor="middle" x="324.5" y="-7.5" font-family="Helvetica,sans-Serif" font-size="10.00">config.h</text>
</a>
</g>
</g>
<!-- Node7&#45;&gt;Node8 -->
<g id="edge7" class="edge">
<title>Node7&#45;&gt;Node8</title>
<path fill="none" stroke="midnightblue" d="M357.06,-56.08C351.55,-48.46 343.47,-37.26 336.74,-27.94"/>
<polygon fill="midnightblue" stroke="midnightblue" points="339.51,-25.81 330.82,-19.75 333.84,-29.91 339.51,-25.81"/>
</g>
<!-- Node9 -->
<g id="node9" class="node">
<title>Node9</title>
<g id="a_node9"><a xlink:title=" ">
<polygon fill="none" stroke="#bfbfbf" points="368,-0.5 368,-19.5 435,-19.5 435,-0.5 368,-0.5"/>
<text text-anchor="middle" x="401.5" y="-7.5" font-family="Helvetica,sans-Serif" font-size="10.00">mylibm.hpp</text>
</a>
</g>
</g>
<!-- Node7&#45;&gt;Node9 -->
<g id="edge8" class="edge">
<title>Node7&#45;&gt;Node9</title>
<path fill="none" stroke="midnightblue" d="M369.77,-56.08C375.14,-48.46 383.02,-37.26 389.58,-27.94"/>
<polygon fill="midnightblue" stroke="midnightblue" points="392.45,-29.94 395.34,-19.75 386.72,-25.91 392.45,-29.94"/>
</g>
</g>
</svg>
