<?xml version="1.0" encoding="UTF-8" standalone="no"?>
<!DOCTYPE svg PUBLIC "-//W3C//DTD SVG 1.1//EN"
 "http://www.w3.org/Graphics/SVG/1.1/DTD/svg11.dtd">
<!-- Generated by graphviz version 2.43.0 (0)
 -->
<!-- Title: dg::file::get_idx Pages: 1 -->
<svg width="282pt" height="46pt"
 viewBox="0.00 0.00 282.00 46.00" xmlns="http://www.w3.org/2000/svg" xmlns:xlink="http://www.w3.org/1999/xlink">
<g id="graph0" class="graph" transform="scale(1 1) rotate(0) translate(4 42)">
<title>dg::file::get_idx</title>
<!-- Node1 -->
<g id="node1" class="node">
<title>Node1</title>
<g id="a_node1"><a xlink:title="DEPRECATED Wrapper around Json::Value::get function that handles missing keys.">
<polygon fill="#bfbfbf" stroke="black" points="0,-0.5 0,-19.5 83,-19.5 83,-0.5 0,-0.5"/>
<text text-anchor="middle" x="41.5" y="-7.5" font-family="Helvetica,sans-Serif" font-size="10.00">dg::file::get_idx</text>
</a>
</g>
</g>
<!-- Node2 -->
<g id="node2" class="node">
<title>Node2</title>
<g id="a_node2"><a xlink:href="structdg_1_1file_1_1_wrapped_json_value.html#a227b56d30b5a787e3ebc660854e50dca" target="_top" xlink:title="Wrap the corresponding Json::Value function with error handling.">
<polygon fill="none" stroke="black" points="119,-0.5 119,-19.5 274,-19.5 274,-0.5 119,-0.5"/>
<text text-anchor="middle" x="196.5" y="-7.5" font-family="Helvetica,sans-Serif" font-size="10.00">dg::file::WrappedJsonValue::get</text>
</a>
</g>
</g>
<!-- Node1&#45;&gt;Node2 -->
<g id="edge1" class="edge">
<title>Node1&#45;&gt;Node2</title>
<path fill="none" stroke="midnightblue" d="M83.1,-10C91.14,-10 99.86,-10 108.78,-10"/>
<polygon fill="midnightblue" stroke="midnightblue" points="108.89,-13.5 118.89,-10 108.89,-6.5 108.89,-13.5"/>
</g>
<!-- Node2&#45;&gt;Node2 -->
<g id="edge2" class="edge">
<title>Node2&#45;&gt;Node2</title>
<path fill="none" stroke="midnightblue" d="M172.76,-19.76C161.22,-28.57 169.13,-38 196.5,-38 214.46,-38 224.04,-33.94 225.25,-28.65"/>
<polygon fill="midnightblue" stroke="midnightblue" points="228.19,-26.75 220.24,-19.76 222.09,-30.19 228.19,-26.75"/>
</g>
</g>
</svg>
