<?xml version="1.0" encoding="UTF-8" standalone="no"?>
<!DOCTYPE svg PUBLIC "-//W3C//DTD SVG 1.1//EN"
 "http://www.w3.org/Graphics/SVG/1.1/DTD/svg11.dtd">
<!-- Generated by graphviz version 2.43.0 (0)
 -->
<!-- Title: dg::file::get Pages: 1 -->
<svg width="264pt" height="46pt"
 viewBox="0.00 0.00 264.00 46.00" xmlns="http://www.w3.org/2000/svg" xmlns:xlink="http://www.w3.org/1999/xlink">
<g id="graph0" class="graph" transform="scale(1 1) rotate(0) translate(4 42)">
<title>dg::file::get</title>
<!-- Node1 -->
<g id="node1" class="node">
<title>Node1</title>
<g id="a_node1"><a xlink:title="DEPRECATED Wrapper around Json::Value::get function that handles missing keys.">
<polygon fill="#bfbfbf" stroke="black" points="0,-0.5 0,-19.5 65,-19.5 65,-0.5 0,-0.5"/>
<text text-anchor="middle" x="32.5" y="-7.5" font-family="Helvetica,sans-Serif" font-size="10.00">dg::file::get</text>
</a>
</g>
</g>
<!-- Node2 -->
<g id="node2" class="node">
<title>Node2</title>
<g id="a_node2"><a xlink:href="structdg_1_1file_1_1_wrapped_json_value.html#a227b56d30b5a787e3ebc660854e50dca" target="_top" xlink:title="Wrap the corresponding Json::Value function with error handling.">
<polygon fill="none" stroke="black" points="101,-0.5 101,-19.5 256,-19.5 256,-0.5 101,-0.5"/>
<text text-anchor="middle" x="178.5" y="-7.5" font-family="Helvetica,sans-Serif" font-size="10.00">dg::file::WrappedJsonValue::get</text>
</a>
</g>
</g>
<!-- Node1&#45;&gt;Node2 -->
<g id="edge1" class="edge">
<title>Node1&#45;&gt;Node2</title>
<path fill="none" stroke="midnightblue" d="M65.1,-10C72.86,-10 81.55,-10 90.56,-10"/>
<polygon fill="midnightblue" stroke="midnightblue" points="90.84,-13.5 100.84,-10 90.84,-6.5 90.84,-13.5"/>
</g>
<!-- Node2&#45;&gt;Node2 -->
<g id="edge2" class="edge">
<title>Node2&#45;&gt;Node2</title>
<path fill="none" stroke="midnightblue" d="M156,-19.76C145.05,-28.57 152.55,-38 178.5,-38 195.53,-38 204.61,-33.94 205.75,-28.65"/>
<polygon fill="midnightblue" stroke="midnightblue" points="208.8,-26.93 201,-19.76 202.62,-30.23 208.8,-26.93"/>
</g>
</g>
</svg>
