<?xml version="1.0" encoding="UTF-8" standalone="no"?>
<!DOCTYPE svg PUBLIC "-//W3C//DTD SVG 1.1//EN"
 "http://www.w3.org/Graphics/SVG/1.1/DTD/svg11.dtd">
<!-- Generated by graphviz version 2.43.0 (0)
 -->
<!-- Title: nc_utilities.h Pages: 1 -->
<svg width="576pt" height="140pt"
 viewBox="0.00 0.00 576.00 140.00" xmlns="http://www.w3.org/2000/svg" xmlns:xlink="http://www.w3.org/1999/xlink">
<g id="graph0" class="graph" transform="scale(1 1) rotate(0) translate(4 136)">
<title>nc_utilities.h</title>
<!-- Node1 -->
<g id="node1" class="node">
<title>Node1</title>
<g id="a_node1"><a xlink:title=" ">
<polygon fill="#bfbfbf" stroke="black" points="226.5,-112.5 226.5,-131.5 297.5,-131.5 297.5,-112.5 226.5,-112.5"/>
<text text-anchor="middle" x="262" y="-119.5" font-family="Helvetica,sans-Serif" font-size="10.00">nc_utilities.h</text>
</a>
</g>
</g>
<!-- Node2 -->
<g id="node2" class="node">
<title>Node2</title>
<g id="a_node2"><a xlink:title=" ">
<polygon fill="none" stroke="#bfbfbf" points="0,-0.5 0,-19.5 52,-19.5 52,-0.5 0,-0.5"/>
<text text-anchor="middle" x="26" y="-7.5" font-family="Helvetica,sans-Serif" font-size="10.00">netcdf.h</text>
</a>
</g>
</g>
<!-- Node1&#45;&gt;Node2 -->
<g id="edge1" class="edge">
<title>Node1&#45;&gt;Node2</title>
<path fill="none" stroke="midnightblue" d="M240.5,-112.46C218.75,-103.71 184.28,-89.51 155,-76 118.46,-59.13 77.03,-37.87 51.21,-24.35"/>
<polygon fill="midnightblue" stroke="midnightblue" points="52.6,-21.12 42.12,-19.57 49.34,-27.32 52.6,-21.12"/>
</g>
<!-- Node3 -->
<g id="node3" class="node">
<title>Node3</title>
<g id="a_node3"><a xlink:title=" ">
<polygon fill="none" stroke="#bfbfbf" points="324.5,-56.5 324.5,-75.5 427.5,-75.5 427.5,-56.5 324.5,-56.5"/>
<text text-anchor="middle" x="376" y="-63.5" font-family="Helvetica,sans-Serif" font-size="10.00">thrust/host_vector.h</text>
</a>
</g>
</g>
<!-- Node1&#45;&gt;Node3 -->
<g id="edge2" class="edge">
<title>Node1&#45;&gt;Node3</title>
<path fill="none" stroke="midnightblue" d="M280.06,-112.44C298.57,-103.68 327.58,-89.94 348.86,-79.86"/>
<polygon fill="midnightblue" stroke="midnightblue" points="350.48,-82.96 358.02,-75.52 347.49,-76.63 350.48,-82.96"/>
</g>
<!-- Node4 -->
<g id="node4" class="node">
<title>Node4</title>
<g id="a_node4"><a xlink:title=" ">
<polygon fill="none" stroke="#bfbfbf" points="70,-0.5 70,-19.5 164,-19.5 164,-0.5 70,-0.5"/>
<text text-anchor="middle" x="117" y="-7.5" font-family="Helvetica,sans-Serif" font-size="10.00">dg/topology/grid.h</text>
</a>
</g>
</g>
<!-- Node1&#45;&gt;Node4 -->
<g id="edge3" class="edge">
<title>Node1&#45;&gt;Node4</title>
<path fill="none" stroke="midnightblue" d="M243.06,-112.4C226.03,-104.23 200.72,-91 181,-76 162,-61.55 143.19,-41.59 130.93,-27.61"/>
<polygon fill="midnightblue" stroke="midnightblue" points="133.37,-25.08 124.2,-19.78 128.07,-29.65 133.37,-25.08"/>
</g>
<!-- Node5 -->
<g id="node5" class="node">
<title>Node5</title>
<g id="a_node5"><a xlink:title=" ">
<polygon fill="none" stroke="#bfbfbf" points="446,-56.5 446,-75.5 568,-75.5 568,-56.5 446,-56.5"/>
<text text-anchor="middle" x="507" y="-63.5" font-family="Helvetica,sans-Serif" font-size="10.00">dg/topology/evaluation.h</text>
</a>
</g>
</g>
<!-- Node1&#45;&gt;Node5 -->
<g id="edge4" class="edge">
<title>Node1&#45;&gt;Node5</title>
<path fill="none" stroke="midnightblue" d="M297.63,-113.15C339.91,-103.83 410.65,-88.24 458.05,-77.79"/>
<polygon fill="midnightblue" stroke="midnightblue" points="459.08,-81.15 468.09,-75.58 457.57,-74.31 459.08,-81.15"/>
</g>
<!-- Node6 -->
<g id="node6" class="node">
<title>Node6</title>
<g id="a_node6"><a xlink:title=" ">
<polygon fill="none" stroke="#bfbfbf" points="402.5,-0.5 402.5,-19.5 517.5,-19.5 517.5,-0.5 402.5,-0.5"/>
<text text-anchor="middle" x="460" y="-7.5" font-family="Helvetica,sans-Serif" font-size="10.00">dg/topology/mpi_grid.h</text>
</a>
</g>
</g>
<!-- Node1&#45;&gt;Node6 -->
<g id="edge5" class="edge">
<title>Node1&#45;&gt;Node6</title>
<path fill="none" stroke="midnightblue" d="M266.82,-112.48C275.1,-98.62 293.33,-71.19 316,-56 340.81,-39.38 372.08,-28.64 399.13,-21.84"/>
<polygon fill="midnightblue" stroke="midnightblue" points="399.98,-25.23 408.89,-19.51 398.35,-18.43 399.98,-25.23"/>
</g>
<!-- Node7 -->
<g id="node7" class="node">
<title>Node7</title>
<g id="a_node7"><a xlink:href="easy__output_8h.html" target="_top" xlink:title=" ">
<polygon fill="none" stroke="black" points="190,-56.5 190,-75.5 268,-75.5 268,-56.5 190,-56.5"/>
<text text-anchor="middle" x="229" y="-63.5" font-family="Helvetica,sans-Serif" font-size="10.00">easy_output.h</text>
</a>
</g>
</g>
<!-- Node1&#45;&gt;Node7 -->
<g id="edge6" class="edge">
<title>Node1&#45;&gt;Node7</title>
<path fill="none" stroke="midnightblue" d="M256.55,-112.08C251.99,-104.61 245.33,-93.72 239.71,-84.52"/>
<polygon fill="midnightblue" stroke="midnightblue" points="242.55,-82.46 234.35,-75.75 236.58,-86.11 242.55,-82.46"/>
</g>
<!-- Node7&#45;&gt;Node2 -->
<g id="edge8" class="edge">
<title>Node7&#45;&gt;Node2</title>
<path fill="none" stroke="midnightblue" d="M196.83,-56.44C160.09,-46.67 100.14,-30.72 61.9,-20.55"/>
<polygon fill="midnightblue" stroke="midnightblue" points="62.77,-17.16 52.21,-17.97 60.97,-23.92 62.77,-17.16"/>
</g>
<!-- Node7&#45;&gt;Node4 -->
<g id="edge9" class="edge">
<title>Node7&#45;&gt;Node4</title>
<path fill="none" stroke="midnightblue" d="M211.01,-56.32C192.96,-47.62 164.95,-34.12 144.2,-24.11"/>
<polygon fill="midnightblue" stroke="midnightblue" points="145.48,-20.84 134.95,-19.65 142.44,-27.15 145.48,-20.84"/>
</g>
<!-- Node7&#45;&gt;Node6 -->
<g id="edge11" class="edge">
<title>Node7&#45;&gt;Node6</title>
<path fill="none" stroke="midnightblue" d="M265.6,-56.44C305.73,-47.06 370.2,-31.99 413.78,-21.8"/>
<polygon fill="midnightblue" stroke="midnightblue" points="414.63,-25.2 423.57,-19.52 413.03,-18.38 414.63,-25.2"/>
</g>
<!-- Node8 -->
<g id="node8" class="node">
<title>Node8</title>
<g id="a_node8"><a xlink:title=" ">
<polygon fill="none" stroke="#bfbfbf" points="325.5,-0.5 325.5,-19.5 384.5,-19.5 384.5,-0.5 325.5,-0.5"/>
<text text-anchor="middle" x="355" y="-7.5" font-family="Helvetica,sans-Serif" font-size="10.00">exception</text>
</a>
</g>
</g>
<!-- Node7&#45;&gt;Node8 -->
<g id="edge7" class="edge">
<title>Node7&#45;&gt;Node8</title>
<path fill="none" stroke="midnightblue" d="M248.97,-56.44C269.61,-47.6 302.06,-33.69 325.63,-23.59"/>
<polygon fill="midnightblue" stroke="midnightblue" points="327.32,-26.67 335.13,-19.52 324.56,-20.24 327.32,-26.67"/>
</g>
<!-- Node9 -->
<g id="node9" class="node">
<title>Node9</title>
<g id="a_node9"><a xlink:title=" ">
<polygon fill="none" stroke="#bfbfbf" points="182.5,-0.5 182.5,-19.5 307.5,-19.5 307.5,-0.5 182.5,-0.5"/>
<text text-anchor="middle" x="245" y="-7.5" font-family="Helvetica,sans-Serif" font-size="10.00">dg/backend/mpi_vector.h</text>
</a>
</g>
</g>
<!-- Node7&#45;&gt;Node9 -->
<g id="edge10" class="edge">
<title>Node7&#45;&gt;Node9</title>
<path fill="none" stroke="midnightblue" d="M231.64,-56.08C233.79,-48.85 236.88,-38.41 239.55,-29.4"/>
<polygon fill="midnightblue" stroke="midnightblue" points="242.92,-30.33 242.41,-19.75 236.21,-28.34 242.92,-30.33"/>
</g>
</g>
</svg>
