<?xml version="1.0" encoding="UTF-8" standalone="no"?>
<!DOCTYPE svg PUBLIC "-//W3C//DTD SVG 1.1//EN"
 "http://www.w3.org/Graphics/SVG/1.1/DTD/svg11.dtd">
<!-- Generated by graphviz version 2.43.0 (0)
 -->
<!-- Title: dg::file::WrappedJsonValue::operator[] Pages: 1 -->
<svg width="334pt" height="52pt"
 viewBox="0.00 0.00 334.00 51.50" xmlns="http://www.w3.org/2000/svg" xmlns:xlink="http://www.w3.org/1999/xlink">
<g id="graph0" class="graph" transform="scale(1 1) rotate(0) translate(4 47.5)">
<title>dg::file::WrappedJsonValue::operator[]</title>
<!-- Node1 -->
<g id="node1" class="node">
<title>Node1</title>
<g id="a_node1"><a xlink:title=" ">
<polygon fill="#bfbfbf" stroke="black" points="0,-0.5 0,-30.5 135,-30.5 135,-0.5 0,-0.5"/>
<text text-anchor="start" x="8" y="-18.5" font-family="Helvetica,sans-Serif" font-size="10.00">dg::file::WrappedJsonValue</text>
<text text-anchor="middle" x="67.5" y="-7.5" font-family="Helvetica,sans-Serif" font-size="10.00">::operator[]</text>
</a>
</g>
</g>
<!-- Node2 -->
<g id="node2" class="node">
<title>Node2</title>
<g id="a_node2"><a xlink:href="structdg_1_1file_1_1_wrapped_json_value.html#a227b56d30b5a787e3ebc660854e50dca" target="_top" xlink:title="Wrap the corresponding Json::Value function with error handling.">
<polygon fill="none" stroke="black" points="171,-6 171,-25 326,-25 326,-6 171,-6"/>
<text text-anchor="middle" x="248.5" y="-13" font-family="Helvetica,sans-Serif" font-size="10.00">dg::file::WrappedJsonValue::get</text>
</a>
</g>
</g>
<!-- Node1&#45;&gt;Node2 -->
<g id="edge1" class="edge">
<title>Node1&#45;&gt;Node2</title>
<path fill="none" stroke="midnightblue" d="M135.15,-15.5C143.51,-15.5 152.16,-15.5 160.77,-15.5"/>
<polygon fill="midnightblue" stroke="midnightblue" points="160.84,-19 170.84,-15.5 160.84,-12 160.84,-19"/>
</g>
<!-- Node2&#45;&gt;Node2 -->
<g id="edge2" class="edge">
<title>Node2&#45;&gt;Node2</title>
<path fill="none" stroke="midnightblue" d="M220.76,-25.26C207.26,-34.07 216.51,-43.5 248.5,-43.5 270.49,-43.5 281.74,-39.04 282.23,-33.39"/>
<polygon fill="midnightblue" stroke="midnightblue" points="284.99,-31.23 276.24,-25.26 279.35,-35.38 284.99,-31.23"/>
</g>
</g>
</svg>
